<svg width="60" height="60" viewBox="0 0 60 60" fill="none" xmlns="http://www.w3.org/2000/svg">
<circle cx="30" cy="30" r="30" fill="#2E2E2E"/>
<path d="M40.901 34.7031L36.7344 30.5365V33.4271L35.1719 31.8646V22.5938H25.901L24.3385 21.0312H35.1719C35.5885 21.0312 35.9531 21.1875 36.2656 21.5C36.5781 21.8125 36.7344 22.1771 36.7344 22.5938V28.1927L40.901 24.026V34.7031ZM40.0677 41.1615L19 20.0938L20.0938 19L41.1615 40.0677L40.0677 41.1615ZM22.125 21.0312L23.6875 22.5938H21.6302V36.1354H35.1719V34.0781L36.7344 35.6406V36.1354C36.7344 36.5521 36.5781 36.9167 36.2656 37.2292C35.9531 37.5417 35.5885 37.6979 35.1719 37.6979H21.6302C21.2135 37.6979 20.849 37.5417 20.5365 37.2292C20.224 36.9167 20.0677 36.5521 20.0677 36.1354V22.5938C20.0677 22.1771 20.224 21.8125 20.5365 21.5C20.849 21.1875 21.2135 21.0312 21.6302 21.0312H22.125Z" fill="white"/>
</svg>
