<svg width="60" height="60" viewBox="0 0 60 60" fill="none" xmlns="http://www.w3.org/2000/svg">
<circle cx="30" cy="30" r="30" fill="#2E2E2E"/>
<path d="M21.5625 38.6667C21.1458 38.6667 20.7813 38.5104 20.4688 38.1979C20.1563 37.8854 20 37.5208 20 37.1042V23.5625C20 23.1458 20.1563 22.7812 20.4688 22.4688C20.7813 22.1562 21.1458 22 21.5625 22H35.1042C35.5208 22 35.8854 22.1562 36.1979 22.4688C36.5104 22.7812 36.6667 23.1458 36.6667 23.5625V29.1615L40.8333 24.9948V35.6719L36.6667 31.5052V37.1042C36.6667 37.5208 36.5104 37.8854 36.1979 38.1979C35.8854 38.5104 35.5208 38.6667 35.1042 38.6667H21.5625ZM21.5625 37.1042H35.1042V23.5625H21.5625V37.1042Z" fill="white"/>
</svg>
