<svg width="78" height="60" viewBox="0 0 78 60" fill="none" xmlns="http://www.w3.org/2000/svg">
<rect width="78" height="60" rx="30" fill="#EA4335"/>
<path d="M39.3 26.7088C37.26 26.7088 35.2837 27.0474 33.435 27.684V31.8826C33.435 32.4108 33.1418 32.8849 32.721 33.1016C31.4715 33.7652 30.3367 34.6185 29.3295 35.6072C29.1 35.851 28.7812 35.9865 28.437 35.9865C28.08 35.9865 27.7613 35.8375 27.5317 35.5937L24.3697 32.2348C24.1402 32.0045 24 31.6659 24 31.2867C24 30.9074 24.1402 30.5688 24.3697 30.3251C28.2585 26.4108 33.5115 24 39.3 24C45.0885 24 50.3415 26.4108 54.2302 30.3251C54.4597 30.5688 54.6 30.9074 54.6 31.2867C54.6 31.6659 54.4597 32.0045 54.2302 32.2483L51.0682 35.6072C50.8387 35.851 50.52 36 50.163 36C49.8188 36 49.5 35.851 49.2705 35.6208C48.2632 34.6185 47.1157 33.7788 45.8662 33.1151C45.4455 32.8984 45.1523 32.4379 45.1523 31.8962V27.6975C43.3162 27.0474 41.34 26.7088 39.3 26.7088Z" fill="white"/>
</svg>
