<svg width="60" height="60" viewBox="0 0 60 60" fill="none" xmlns="http://www.w3.org/2000/svg">
<circle cx="30" cy="30" r="30" fill="#2E2E2E"/>
<path d="M29.6 34.0526C31.9349 34.0526 33.8198 32.1484 33.8198 29.7895V21.2632C33.8198 18.9042 31.9349 17 29.6 17C27.2651 17 25.3802 18.9042 25.3802 21.2632V29.7895C25.3802 32.1484 27.2651 34.0526 29.6 34.0526ZM28.1934 21.2632C28.1934 20.4816 28.8264 19.8421 29.6 19.8421C30.3736 19.8421 31.0066 20.4816 31.0066 21.2632V29.7895C31.0066 30.5711 30.3736 31.2105 29.6 31.2105C28.8264 31.2105 28.1934 30.5711 28.1934 29.7895V21.2632ZM37.7385 29.9316C37.1862 29.9316 36.7457 30.3818 36.6678 30.9286C36.1733 34.3956 33.148 37.1434 29.6 37.1434C26.0518 37.1434 22.8208 34.3954 22.2912 30.9281C22.2078 30.3821 21.7677 29.9316 21.2154 29.9316H21C20.4477 29.9316 19.9945 30.3809 20.0486 30.9305C20.4633 35.1474 23.4916 38.301 27.5194 39.2227C28.0034 39.3335 28.3692 39.7497 28.3692 40.2462V43C28.3692 43.5523 28.8169 44 29.3692 44L29.8308 44C30.3831 44 30.8308 43.5523 30.8308 43V40.2462C30.8308 39.7497 31.1966 39.3335 31.6806 39.2227C35.7084 38.301 38.7367 35.1474 39.1514 30.9305C39.2055 30.3809 38.7523 29.9316 38.2 29.9316L37.7385 29.9316Z" fill="white"/>
</svg>
