<svg width="60" height="60" viewBox="0 0 60 60" fill="none" xmlns="http://www.w3.org/2000/svg">
<circle cx="30" cy="30" r="30" fill="#2E2E2E"/>
<path d="M28.0726 21.1167C28.0726 20.1798 28.8391 19.4132 29.776 19.4132C30.7129 19.4132 31.4795 20.1798 31.4795 21.1167L31.4653 26.6672L34.0347 29.2082V21.2587C34.0347 18.9022 32.1325 17 29.776 17C27.5899 17 25.8155 18.6467 25.5741 20.7618L28.0726 23.2603V21.1167V21.1167ZM39.7129 29.776H37.2997C37.2997 30.5994 37.1577 31.3801 36.9164 32.1041L38.7192 33.9069C39.3438 32.6577 39.7129 31.2524 39.7129 29.776ZM19.0016 18.2208L17 20.2224L25.5173 28.7397V29.776C25.5173 32.1325 27.4196 34.0347 29.776 34.0347C30.1025 34.0347 30.4006 33.9921 30.6987 33.9211L33.0552 36.2776C32.0473 36.7461 30.9259 37.0158 29.776 37.0158C25.858 37.0158 22.2524 34.0347 22.2524 29.776H19.8391C19.8391 34.6167 23.7003 38.6199 28.3565 39.3155V43.9716H31.1956V39.3155C32.4874 39.1309 33.7082 38.6767 34.8155 38.0379L40.7776 44L42.7792 41.9984L19.0016 18.2208Z" fill="white"/>
</svg>
