<svg width="475" height="812" viewBox="0 0 475 812" fill="none" xmlns="http://www.w3.org/2000/svg">
<path opacity="0.95" fill-rule="evenodd" clip-rule="evenodd" d="M475 0H0V812H475V0ZM119 137C116.791 137 115 138.791 115 141V484C115 486.209 116.791 488 119 488H356C358.209 488 360 486.209 360 484V141C360 138.791 358.209 137 356 137H119Z" fill="#4A4A4A" fill-opacity="0.85"/>
<path d="M82.4609 100.852H79.5312V99.1641H82.4609C82.9401 99.1641 83.3281 99.0859 83.625 98.9297C83.9271 98.7682 84.1484 98.5495 84.2891 98.2734C84.4297 97.9922 84.5 97.6719 84.5 97.3125C84.5 96.9635 84.4297 96.638 84.2891 96.3359C84.1484 96.0339 83.9271 95.7891 83.625 95.6016C83.3281 95.4141 82.9401 95.3203 82.4609 95.3203H80.2344V105H78.0859V93.625H82.4609C83.3464 93.625 84.1016 93.7839 84.7266 94.1016C85.3568 94.4141 85.8359 94.849 86.1641 95.4062C86.4974 95.9583 86.6641 96.5885 86.6641 97.2969C86.6641 98.0312 86.4974 98.6641 86.1641 99.1953C85.8359 99.7266 85.3568 100.135 84.7266 100.422C84.1016 100.708 83.3464 100.852 82.4609 100.852ZM87.7188 100.859V100.695C87.7188 100.076 87.8073 99.5052 87.9844 98.9844C88.1615 98.4583 88.4193 98.0026 88.7578 97.6172C89.0964 97.2318 89.5104 96.9323 90 96.7188C90.4896 96.5 91.0469 96.3906 91.6719 96.3906C92.3073 96.3906 92.8698 96.5 93.3594 96.7188C93.8542 96.9323 94.2708 97.2318 94.6094 97.6172C94.9479 98.0026 95.2057 98.4583 95.3828 98.9844C95.5599 99.5052 95.6484 100.076 95.6484 100.695V100.859C95.6484 101.474 95.5599 102.044 95.3828 102.57C95.2057 103.091 94.9479 103.547 94.6094 103.938C94.2708 104.323 93.8568 104.622 93.3672 104.836C92.8776 105.049 92.3177 105.156 91.6875 105.156C91.0625 105.156 90.5026 105.049 90.0078 104.836C89.513 104.622 89.0964 104.323 88.7578 103.938C88.4193 103.547 88.1615 103.091 87.9844 102.57C87.8073 102.044 87.7188 101.474 87.7188 100.859ZM89.7812 100.695V100.859C89.7812 101.229 89.8177 101.576 89.8906 101.898C89.9635 102.221 90.0755 102.505 90.2266 102.75C90.3776 102.995 90.5729 103.188 90.8125 103.328C91.0573 103.464 91.349 103.531 91.6875 103.531C92.0208 103.531 92.3073 103.464 92.5469 103.328C92.7865 103.188 92.9818 102.995 93.1328 102.75C93.2891 102.505 93.4036 102.221 93.4766 101.898C93.5495 101.576 93.5859 101.229 93.5859 100.859V100.695C93.5859 100.331 93.5495 99.9896 93.4766 99.6719C93.4036 99.349 93.2891 99.0651 93.1328 98.8203C92.9818 98.5703 92.7839 98.375 92.5391 98.2344C92.2995 98.0885 92.0104 98.0156 91.6719 98.0156C91.3385 98.0156 91.0521 98.0885 90.8125 98.2344C90.5729 98.375 90.3776 98.5703 90.2266 98.8203C90.0755 99.0651 89.9635 99.349 89.8906 99.6719C89.8177 99.9896 89.7812 100.331 89.7812 100.695ZM101.797 102.688C101.797 102.51 101.75 102.352 101.656 102.211C101.562 102.07 101.385 101.943 101.125 101.828C100.87 101.708 100.495 101.596 100 101.492C99.5625 101.398 99.1589 101.281 98.7891 101.141C98.4193 101 98.1016 100.831 97.8359 100.633C97.5703 100.43 97.362 100.193 97.2109 99.9219C97.0651 99.6458 96.9922 99.3281 96.9922 98.9688C96.9922 98.6198 97.0677 98.2917 97.2188 97.9844C97.3698 97.6719 97.5885 97.3984 97.875 97.1641C98.1615 96.9245 98.5104 96.737 98.9219 96.6016C99.3333 96.4609 99.7969 96.3906 100.312 96.3906C101.031 96.3906 101.648 96.5078 102.164 96.7422C102.685 96.9766 103.083 97.2995 103.359 97.7109C103.635 98.1172 103.773 98.5755 103.773 99.0859H101.711C101.711 98.862 101.659 98.6589 101.555 98.4766C101.456 98.2943 101.302 98.1484 101.094 98.0391C100.885 97.9245 100.622 97.8672 100.305 97.8672C100.018 97.8672 99.776 97.9141 99.5781 98.0078C99.3854 98.1016 99.2396 98.224 99.1406 98.375C99.0417 98.526 98.9922 98.6927 98.9922 98.875C98.9922 99.0104 99.0182 99.1328 99.0703 99.2422C99.1276 99.3464 99.2188 99.4427 99.3438 99.5312C99.4688 99.6198 99.638 99.7005 99.8516 99.7734C100.07 99.8464 100.339 99.9167 100.656 99.9844C101.286 100.109 101.836 100.276 102.305 100.484C102.779 100.688 103.148 100.958 103.414 101.297C103.68 101.635 103.812 102.068 103.812 102.594C103.812 102.969 103.732 103.312 103.57 103.625C103.409 103.932 103.174 104.201 102.867 104.43C102.56 104.659 102.193 104.839 101.766 104.969C101.339 105.094 100.857 105.156 100.32 105.156C99.5443 105.156 98.888 105.018 98.3516 104.742C97.8151 104.461 97.4089 104.107 97.1328 103.68C96.8568 103.247 96.7188 102.799 96.7188 102.336H98.6953C98.7109 102.664 98.7995 102.927 98.9609 103.125C99.1224 103.323 99.3255 103.466 99.5703 103.555C99.8203 103.638 100.083 103.68 100.359 103.68C100.672 103.68 100.935 103.638 101.148 103.555C101.362 103.466 101.523 103.349 101.633 103.203C101.742 103.052 101.797 102.88 101.797 102.688ZM107.57 96.5469V105H105.5V96.5469H107.57ZM105.359 94.3359C105.359 94.0286 105.464 93.7734 105.672 93.5703C105.885 93.3672 106.172 93.2656 106.531 93.2656C106.891 93.2656 107.174 93.3672 107.383 93.5703C107.596 93.7734 107.703 94.0286 107.703 94.3359C107.703 94.638 107.596 94.8906 107.383 95.0938C107.174 95.2969 106.891 95.3984 106.531 95.3984C106.172 95.3984 105.885 95.2969 105.672 95.0938C105.464 94.8906 105.359 94.638 105.359 94.3359ZM113.008 103.531C113.299 103.531 113.56 103.474 113.789 103.359C114.018 103.245 114.201 103.083 114.336 102.875C114.477 102.667 114.552 102.424 114.562 102.148H116.508C116.497 102.721 116.336 103.234 116.023 103.688C115.711 104.141 115.294 104.5 114.773 104.766C114.258 105.026 113.68 105.156 113.039 105.156C112.388 105.156 111.82 105.047 111.336 104.828C110.852 104.609 110.448 104.305 110.125 103.914C109.807 103.523 109.568 103.07 109.406 102.555C109.25 102.039 109.172 101.487 109.172 100.898V100.648C109.172 100.06 109.25 99.5078 109.406 98.9922C109.568 98.4766 109.807 98.0234 110.125 97.6328C110.448 97.2422 110.852 96.9375 111.336 96.7188C111.82 96.5 112.385 96.3906 113.031 96.3906C113.714 96.3906 114.312 96.5234 114.828 96.7891C115.349 97.0547 115.755 97.4297 116.047 97.9141C116.344 98.3984 116.497 98.9688 116.508 99.625H114.562C114.552 99.3229 114.484 99.0521 114.359 98.8125C114.234 98.5729 114.057 98.3802 113.828 98.2344C113.599 98.0885 113.32 98.0156 112.992 98.0156C112.643 98.0156 112.352 98.0885 112.117 98.2344C111.888 98.3802 111.708 98.5807 111.578 98.8359C111.453 99.0859 111.365 99.3672 111.312 99.6797C111.266 99.987 111.242 100.31 111.242 100.648V100.898C111.242 101.242 111.266 101.57 111.312 101.883C111.365 102.195 111.453 102.477 111.578 102.727C111.708 102.971 111.888 103.167 112.117 103.312C112.352 103.458 112.648 103.531 113.008 103.531ZM120.07 96.5469V105H118V96.5469H120.07ZM117.859 94.3359C117.859 94.0286 117.964 93.7734 118.172 93.5703C118.385 93.3672 118.672 93.2656 119.031 93.2656C119.391 93.2656 119.674 93.3672 119.883 93.5703C120.096 93.7734 120.203 94.0286 120.203 94.3359C120.203 94.638 120.096 94.8906 119.883 95.0938C119.674 95.2969 119.391 95.3984 119.031 95.3984C118.672 95.3984 118.385 95.2969 118.172 95.0938C117.964 94.8906 117.859 94.638 117.859 94.3359ZM121.672 100.859V100.695C121.672 100.076 121.76 99.5052 121.938 98.9844C122.115 98.4583 122.372 98.0026 122.711 97.6172C123.049 97.2318 123.464 96.9323 123.953 96.7188C124.443 96.5 125 96.3906 125.625 96.3906C126.26 96.3906 126.823 96.5 127.312 96.7188C127.807 96.9323 128.224 97.2318 128.562 97.6172C128.901 98.0026 129.159 98.4583 129.336 98.9844C129.513 99.5052 129.602 100.076 129.602 100.695V100.859C129.602 101.474 129.513 102.044 129.336 102.57C129.159 103.091 128.901 103.547 128.562 103.938C128.224 104.323 127.81 104.622 127.32 104.836C126.831 105.049 126.271 105.156 125.641 105.156C125.016 105.156 124.456 105.049 123.961 104.836C123.466 104.622 123.049 104.323 122.711 103.938C122.372 103.547 122.115 103.091 121.938 102.57C121.76 102.044 121.672 101.474 121.672 100.859ZM123.734 100.695V100.859C123.734 101.229 123.771 101.576 123.844 101.898C123.917 102.221 124.029 102.505 124.18 102.75C124.331 102.995 124.526 103.188 124.766 103.328C125.01 103.464 125.302 103.531 125.641 103.531C125.974 103.531 126.26 103.464 126.5 103.328C126.74 103.188 126.935 102.995 127.086 102.75C127.242 102.505 127.357 102.221 127.43 101.898C127.503 101.576 127.539 101.229 127.539 100.859V100.695C127.539 100.331 127.503 99.9896 127.43 99.6719C127.357 99.349 127.242 99.0651 127.086 98.8203C126.935 98.5703 126.737 98.375 126.492 98.2344C126.253 98.0885 125.964 98.0156 125.625 98.0156C125.292 98.0156 125.005 98.0885 124.766 98.2344C124.526 98.375 124.331 98.5703 124.18 98.8203C124.029 99.0651 123.917 99.349 123.844 99.6719C123.771 99.9896 123.734 100.331 123.734 100.695ZM133.125 98.3516V105H131.062V96.5469H133L133.125 98.3516ZM132.797 100.469H132.188C132.193 99.8542 132.276 99.2969 132.438 98.7969C132.599 98.2969 132.826 97.8672 133.117 97.5078C133.414 97.1484 133.766 96.8724 134.172 96.6797C134.578 96.487 135.031 96.3906 135.531 96.3906C135.938 96.3906 136.305 96.4479 136.633 96.5625C136.961 96.6771 137.242 96.8594 137.477 97.1094C137.716 97.3594 137.898 97.6875 138.023 98.0938C138.154 98.4948 138.219 98.9896 138.219 99.5781V105H136.141V99.5625C136.141 99.1771 136.083 98.8724 135.969 98.6484C135.859 98.4245 135.698 98.2656 135.484 98.1719C135.276 98.0781 135.018 98.0312 134.711 98.0312C134.393 98.0312 134.115 98.0964 133.875 98.2266C133.641 98.3516 133.443 98.526 133.281 98.75C133.125 98.974 133.005 99.2318 132.922 99.5234C132.839 99.8151 132.797 100.13 132.797 100.469ZM143.836 105.156C143.195 105.156 142.62 105.052 142.109 104.844C141.599 104.635 141.164 104.346 140.805 103.977C140.451 103.602 140.177 103.167 139.984 102.672C139.797 102.172 139.703 101.635 139.703 101.062V100.75C139.703 100.099 139.797 99.5078 139.984 98.9766C140.172 98.4401 140.438 97.9792 140.781 97.5938C141.125 97.2083 141.536 96.9115 142.016 96.7031C142.495 96.4948 143.023 96.3906 143.602 96.3906C144.201 96.3906 144.729 96.4922 145.188 96.6953C145.646 96.8932 146.029 97.1745 146.336 97.5391C146.643 97.9036 146.875 98.3411 147.031 98.8516C147.188 99.3568 147.266 99.9167 147.266 100.531V101.398H140.641V99.9766H145.234V99.8203C145.224 99.4922 145.161 99.1927 145.047 98.9219C144.932 98.6458 144.755 98.4271 144.516 98.2656C144.276 98.099 143.966 98.0156 143.586 98.0156C143.279 98.0156 143.01 98.0833 142.781 98.2188C142.557 98.349 142.37 98.5365 142.219 98.7812C142.073 99.0208 141.964 99.3073 141.891 99.6406C141.818 99.974 141.781 100.344 141.781 100.75V101.062C141.781 101.417 141.828 101.745 141.922 102.047C142.021 102.349 142.164 102.612 142.352 102.836C142.544 103.055 142.773 103.227 143.039 103.352C143.31 103.471 143.617 103.531 143.961 103.531C144.393 103.531 144.784 103.448 145.133 103.281C145.487 103.109 145.794 102.857 146.055 102.523L147.094 103.602C146.917 103.862 146.677 104.112 146.375 104.352C146.078 104.591 145.719 104.786 145.297 104.938C144.875 105.083 144.388 105.156 143.836 105.156ZM152.266 100.859V100.695C152.266 100.076 152.354 99.5052 152.531 98.9844C152.708 98.4583 152.966 98.0026 153.305 97.6172C153.643 97.2318 154.057 96.9323 154.547 96.7188C155.036 96.5 155.594 96.3906 156.219 96.3906C156.854 96.3906 157.417 96.5 157.906 96.7188C158.401 96.9323 158.818 97.2318 159.156 97.6172C159.495 98.0026 159.753 98.4583 159.93 98.9844C160.107 99.5052 160.195 100.076 160.195 100.695V100.859C160.195 101.474 160.107 102.044 159.93 102.57C159.753 103.091 159.495 103.547 159.156 103.938C158.818 104.323 158.404 104.622 157.914 104.836C157.424 105.049 156.865 105.156 156.234 105.156C155.609 105.156 155.049 105.049 154.555 104.836C154.06 104.622 153.643 104.323 153.305 103.938C152.966 103.547 152.708 103.091 152.531 102.57C152.354 102.044 152.266 101.474 152.266 100.859ZM154.328 100.695V100.859C154.328 101.229 154.365 101.576 154.438 101.898C154.51 102.221 154.622 102.505 154.773 102.75C154.924 102.995 155.12 103.188 155.359 103.328C155.604 103.464 155.896 103.531 156.234 103.531C156.568 103.531 156.854 103.464 157.094 103.328C157.333 103.188 157.529 102.995 157.68 102.75C157.836 102.505 157.951 102.221 158.023 101.898C158.096 101.576 158.133 101.229 158.133 100.859V100.695C158.133 100.331 158.096 99.9896 158.023 99.6719C157.951 99.349 157.836 99.0651 157.68 98.8203C157.529 98.5703 157.331 98.375 157.086 98.2344C156.846 98.0885 156.557 98.0156 156.219 98.0156C155.885 98.0156 155.599 98.0885 155.359 98.2344C155.12 98.375 154.924 98.5703 154.773 98.8203C154.622 99.0651 154.51 99.349 154.438 99.6719C154.365 99.9896 154.328 100.331 154.328 100.695ZM170.75 103.203V93H172.828V105H170.953L170.75 103.203ZM165.32 100.875V100.711C165.32 100.065 165.393 99.4792 165.539 98.9531C165.69 98.4219 165.909 97.9661 166.195 97.5859C166.482 97.2057 166.828 96.9115 167.234 96.7031C167.646 96.4948 168.112 96.3906 168.633 96.3906C169.138 96.3906 169.578 96.4922 169.953 96.6953C170.333 96.8984 170.656 97.1875 170.922 97.5625C171.193 97.9375 171.409 98.3828 171.57 98.8984C171.732 99.4089 171.849 99.9714 171.922 100.586V101.031C171.849 101.63 171.732 102.18 171.57 102.68C171.409 103.18 171.193 103.617 170.922 103.992C170.656 104.362 170.333 104.648 169.953 104.852C169.573 105.055 169.128 105.156 168.617 105.156C168.102 105.156 167.638 105.049 167.227 104.836C166.82 104.622 166.474 104.323 166.188 103.938C165.906 103.552 165.69 103.099 165.539 102.578C165.393 102.057 165.32 101.49 165.32 100.875ZM167.391 100.711V100.875C167.391 101.24 167.422 101.581 167.484 101.898C167.547 102.216 167.648 102.497 167.789 102.742C167.93 102.982 168.109 103.169 168.328 103.305C168.552 103.44 168.823 103.508 169.141 103.508C169.547 103.508 169.88 103.419 170.141 103.242C170.406 103.06 170.612 102.812 170.758 102.5C170.904 102.182 170.997 101.826 171.039 101.43V100.203C171.018 99.8906 170.964 99.6016 170.875 99.3359C170.792 99.0703 170.672 98.8411 170.516 98.6484C170.365 98.4557 170.177 98.3047 169.953 98.1953C169.729 98.0859 169.464 98.0312 169.156 98.0312C168.839 98.0312 168.568 98.1016 168.344 98.2422C168.12 98.3776 167.938 98.5677 167.797 98.8125C167.656 99.0573 167.552 99.3411 167.484 99.6641C167.422 99.987 167.391 100.336 167.391 100.711ZM174.328 100.859V100.695C174.328 100.076 174.417 99.5052 174.594 98.9844C174.771 98.4583 175.029 98.0026 175.367 97.6172C175.706 97.2318 176.12 96.9323 176.609 96.7188C177.099 96.5 177.656 96.3906 178.281 96.3906C178.917 96.3906 179.479 96.5 179.969 96.7188C180.464 96.9323 180.88 97.2318 181.219 97.6172C181.557 98.0026 181.815 98.4583 181.992 98.9844C182.169 99.5052 182.258 100.076 182.258 100.695V100.859C182.258 101.474 182.169 102.044 181.992 102.57C181.815 103.091 181.557 103.547 181.219 103.938C180.88 104.323 180.466 104.622 179.977 104.836C179.487 105.049 178.927 105.156 178.297 105.156C177.672 105.156 177.112 105.049 176.617 104.836C176.122 104.622 175.706 104.323 175.367 103.938C175.029 103.547 174.771 103.091 174.594 102.57C174.417 102.044 174.328 101.474 174.328 100.859ZM176.391 100.695V100.859C176.391 101.229 176.427 101.576 176.5 101.898C176.573 102.221 176.685 102.505 176.836 102.75C176.987 102.995 177.182 103.188 177.422 103.328C177.667 103.464 177.958 103.531 178.297 103.531C178.63 103.531 178.917 103.464 179.156 103.328C179.396 103.188 179.591 102.995 179.742 102.75C179.898 102.505 180.013 102.221 180.086 101.898C180.159 101.576 180.195 101.229 180.195 100.859V100.695C180.195 100.331 180.159 99.9896 180.086 99.6719C180.013 99.349 179.898 99.0651 179.742 98.8203C179.591 98.5703 179.393 98.375 179.148 98.2344C178.909 98.0885 178.62 98.0156 178.281 98.0156C177.948 98.0156 177.661 98.0885 177.422 98.2344C177.182 98.375 176.987 98.5703 176.836 98.8203C176.685 99.0651 176.573 99.349 176.5 99.6719C176.427 99.9896 176.391 100.331 176.391 100.695ZM187.227 103.531C187.518 103.531 187.779 103.474 188.008 103.359C188.237 103.245 188.419 103.083 188.555 102.875C188.695 102.667 188.771 102.424 188.781 102.148H190.727C190.716 102.721 190.555 103.234 190.242 103.688C189.93 104.141 189.513 104.5 188.992 104.766C188.477 105.026 187.898 105.156 187.258 105.156C186.607 105.156 186.039 105.047 185.555 104.828C185.07 104.609 184.667 104.305 184.344 103.914C184.026 103.523 183.786 103.07 183.625 102.555C183.469 102.039 183.391 101.487 183.391 100.898V100.648C183.391 100.06 183.469 99.5078 183.625 98.9922C183.786 98.4766 184.026 98.0234 184.344 97.6328C184.667 97.2422 185.07 96.9375 185.555 96.7188C186.039 96.5 186.604 96.3906 187.25 96.3906C187.932 96.3906 188.531 96.5234 189.047 96.7891C189.568 97.0547 189.974 97.4297 190.266 97.9141C190.562 98.3984 190.716 98.9688 190.727 99.625H188.781C188.771 99.3229 188.703 99.0521 188.578 98.8125C188.453 98.5729 188.276 98.3802 188.047 98.2344C187.818 98.0885 187.539 98.0156 187.211 98.0156C186.862 98.0156 186.57 98.0885 186.336 98.2344C186.107 98.3802 185.927 98.5807 185.797 98.8359C185.672 99.0859 185.583 99.3672 185.531 99.6797C185.484 99.987 185.461 100.31 185.461 100.648V100.898C185.461 101.242 185.484 101.57 185.531 101.883C185.583 102.195 185.672 102.477 185.797 102.727C185.927 102.971 186.107 103.167 186.336 103.312C186.57 103.458 186.867 103.531 187.227 103.531ZM197.133 102.992V96.5469H199.211V105H197.258L197.133 102.992ZM197.398 101.242L198.039 101.227C198.039 101.794 197.977 102.318 197.852 102.797C197.727 103.276 197.531 103.693 197.266 104.047C197.005 104.396 196.674 104.669 196.273 104.867C195.872 105.06 195.398 105.156 194.852 105.156C194.435 105.156 194.055 105.099 193.711 104.984C193.367 104.865 193.07 104.68 192.82 104.43C192.576 104.174 192.385 103.849 192.25 103.453C192.115 103.052 192.047 102.57 192.047 102.008V96.5469H194.109V102.023C194.109 102.305 194.141 102.539 194.203 102.727C194.271 102.914 194.362 103.068 194.477 103.188C194.596 103.302 194.734 103.385 194.891 103.438C195.052 103.484 195.224 103.508 195.406 103.508C195.906 103.508 196.299 103.409 196.586 103.211C196.878 103.008 197.086 102.737 197.211 102.398C197.336 102.055 197.398 101.669 197.398 101.242ZM203.094 98.2812V105H201.031V96.5469H202.977L203.094 98.2812ZM202.789 100.469H202.156C202.156 99.8802 202.227 99.3385 202.367 98.8438C202.513 98.349 202.727 97.9193 203.008 97.5547C203.289 97.1849 203.635 96.8984 204.047 96.6953C204.464 96.4922 204.945 96.3906 205.492 96.3906C205.872 96.3906 206.221 96.4479 206.539 96.5625C206.857 96.6719 207.13 96.8464 207.359 97.0859C207.594 97.3203 207.773 97.6276 207.898 98.0078C208.023 98.3828 208.086 98.8333 208.086 99.3594V105H206.023V99.5703C206.023 99.1745 205.966 98.8646 205.852 98.6406C205.742 98.4167 205.583 98.2604 205.375 98.1719C205.167 98.0781 204.917 98.0312 204.625 98.0312C204.302 98.0312 204.023 98.0964 203.789 98.2266C203.56 98.3516 203.37 98.526 203.219 98.75C203.073 98.974 202.964 99.2318 202.891 99.5234C202.823 99.8151 202.789 100.13 202.789 100.469ZM207.93 100.086L207.078 100.242C207.083 99.7109 207.156 99.2135 207.297 98.75C207.438 98.2812 207.643 97.8724 207.914 97.5234C208.19 97.1693 208.531 96.8932 208.938 96.6953C209.349 96.4922 209.823 96.3906 210.359 96.3906C210.776 96.3906 211.151 96.4505 211.484 96.5703C211.823 96.6849 212.112 96.8698 212.352 97.125C212.591 97.375 212.773 97.7005 212.898 98.1016C213.029 98.5026 213.094 98.9922 213.094 99.5703V105H211.016V99.5625C211.016 99.151 210.958 98.8359 210.844 98.6172C210.734 98.3984 210.576 98.2474 210.367 98.1641C210.159 98.0755 209.914 98.0312 209.633 98.0312C209.346 98.0312 209.096 98.0859 208.883 98.1953C208.674 98.2995 208.497 98.4453 208.352 98.6328C208.211 98.8203 208.104 99.0391 208.031 99.2891C207.964 99.5339 207.93 99.7995 207.93 100.086ZM218.742 105.156C218.102 105.156 217.526 105.052 217.016 104.844C216.505 104.635 216.07 104.346 215.711 103.977C215.357 103.602 215.083 103.167 214.891 102.672C214.703 102.172 214.609 101.635 214.609 101.062V100.75C214.609 100.099 214.703 99.5078 214.891 98.9766C215.078 98.4401 215.344 97.9792 215.688 97.5938C216.031 97.2083 216.443 96.9115 216.922 96.7031C217.401 96.4948 217.93 96.3906 218.508 96.3906C219.107 96.3906 219.635 96.4922 220.094 96.6953C220.552 96.8932 220.935 97.1745 221.242 97.5391C221.549 97.9036 221.781 98.3411 221.938 98.8516C222.094 99.3568 222.172 99.9167 222.172 100.531V101.398H215.547V99.9766H220.141V99.8203C220.13 99.4922 220.068 99.1927 219.953 98.9219C219.839 98.6458 219.661 98.4271 219.422 98.2656C219.182 98.099 218.872 98.0156 218.492 98.0156C218.185 98.0156 217.917 98.0833 217.688 98.2188C217.464 98.349 217.276 98.5365 217.125 98.7812C216.979 99.0208 216.87 99.3073 216.797 99.6406C216.724 99.974 216.688 100.344 216.688 100.75V101.062C216.688 101.417 216.734 101.745 216.828 102.047C216.927 102.349 217.07 102.612 217.258 102.836C217.451 103.055 217.68 103.227 217.945 103.352C218.216 103.471 218.523 103.531 218.867 103.531C219.299 103.531 219.69 103.448 220.039 103.281C220.393 103.109 220.701 102.857 220.961 102.523L222 103.602C221.823 103.862 221.583 104.112 221.281 104.352C220.984 104.591 220.625 104.786 220.203 104.938C219.781 105.083 219.294 105.156 218.742 105.156ZM225.578 98.3516V105H223.516V96.5469H225.453L225.578 98.3516ZM225.25 100.469H224.641C224.646 99.8542 224.729 99.2969 224.891 98.7969C225.052 98.2969 225.279 97.8672 225.57 97.5078C225.867 97.1484 226.219 96.8724 226.625 96.6797C227.031 96.487 227.484 96.3906 227.984 96.3906C228.391 96.3906 228.758 96.4479 229.086 96.5625C229.414 96.6771 229.695 96.8594 229.93 97.1094C230.169 97.3594 230.352 97.6875 230.477 98.0938C230.607 98.4948 230.672 98.9896 230.672 99.5781V105H228.594V99.5625C228.594 99.1771 228.536 98.8724 228.422 98.6484C228.312 98.4245 228.151 98.2656 227.938 98.1719C227.729 98.0781 227.471 98.0312 227.164 98.0312C226.846 98.0312 226.568 98.0964 226.328 98.2266C226.094 98.3516 225.896 98.526 225.734 98.75C225.578 98.974 225.458 99.2318 225.375 99.5234C225.292 99.8151 225.25 100.13 225.25 100.469ZM236.492 96.5469V98.0312H231.648V96.5469H236.492ZM232.945 94.4688H235.016V102.562C235.016 102.812 235.049 103.005 235.117 103.141C235.185 103.276 235.286 103.367 235.422 103.414C235.557 103.461 235.719 103.484 235.906 103.484C236.042 103.484 236.167 103.477 236.281 103.461C236.396 103.445 236.492 103.43 236.57 103.414L236.578 104.961C236.406 105.018 236.211 105.065 235.992 105.102C235.779 105.138 235.536 105.156 235.266 105.156C234.802 105.156 234.396 105.078 234.047 104.922C233.698 104.76 233.427 104.503 233.234 104.148C233.042 103.789 232.945 103.315 232.945 102.727V94.4688ZM237.297 100.859V100.695C237.297 100.076 237.385 99.5052 237.562 98.9844C237.74 98.4583 237.997 98.0026 238.336 97.6172C238.674 97.2318 239.089 96.9323 239.578 96.7188C240.068 96.5 240.625 96.3906 241.25 96.3906C241.885 96.3906 242.448 96.5 242.938 96.7188C243.432 96.9323 243.849 97.2318 244.188 97.6172C244.526 98.0026 244.784 98.4583 244.961 98.9844C245.138 99.5052 245.227 100.076 245.227 100.695V100.859C245.227 101.474 245.138 102.044 244.961 102.57C244.784 103.091 244.526 103.547 244.188 103.938C243.849 104.323 243.435 104.622 242.945 104.836C242.456 105.049 241.896 105.156 241.266 105.156C240.641 105.156 240.081 105.049 239.586 104.836C239.091 104.622 238.674 104.323 238.336 103.938C237.997 103.547 237.74 103.091 237.562 102.57C237.385 102.044 237.297 101.474 237.297 100.859ZM239.359 100.695V100.859C239.359 101.229 239.396 101.576 239.469 101.898C239.542 102.221 239.654 102.505 239.805 102.75C239.956 102.995 240.151 103.188 240.391 103.328C240.635 103.464 240.927 103.531 241.266 103.531C241.599 103.531 241.885 103.464 242.125 103.328C242.365 103.188 242.56 102.995 242.711 102.75C242.867 102.505 242.982 102.221 243.055 101.898C243.128 101.576 243.164 101.229 243.164 100.859V100.695C243.164 100.331 243.128 99.9896 243.055 99.6719C242.982 99.349 242.867 99.0651 242.711 98.8203C242.56 98.5703 242.362 98.375 242.117 98.2344C241.878 98.0885 241.589 98.0156 241.25 98.0156C240.917 98.0156 240.63 98.0885 240.391 98.2344C240.151 98.375 239.956 98.5703 239.805 98.8203C239.654 99.0651 239.542 99.349 239.469 99.6719C239.396 99.9896 239.359 100.331 239.359 100.695ZM255.781 103.203V93H257.859V105H255.984L255.781 103.203ZM250.352 100.875V100.711C250.352 100.065 250.424 99.4792 250.57 98.9531C250.721 98.4219 250.94 97.9661 251.227 97.5859C251.513 97.2057 251.859 96.9115 252.266 96.7031C252.677 96.4948 253.143 96.3906 253.664 96.3906C254.169 96.3906 254.609 96.4922 254.984 96.6953C255.365 96.8984 255.688 97.1875 255.953 97.5625C256.224 97.9375 256.44 98.3828 256.602 98.8984C256.763 99.4089 256.88 99.9714 256.953 100.586V101.031C256.88 101.63 256.763 102.18 256.602 102.68C256.44 103.18 256.224 103.617 255.953 103.992C255.688 104.362 255.365 104.648 254.984 104.852C254.604 105.055 254.159 105.156 253.648 105.156C253.133 105.156 252.669 105.049 252.258 104.836C251.852 104.622 251.505 104.323 251.219 103.938C250.938 103.552 250.721 103.099 250.57 102.578C250.424 102.057 250.352 101.49 250.352 100.875ZM252.422 100.711V100.875C252.422 101.24 252.453 101.581 252.516 101.898C252.578 102.216 252.68 102.497 252.82 102.742C252.961 102.982 253.141 103.169 253.359 103.305C253.583 103.44 253.854 103.508 254.172 103.508C254.578 103.508 254.911 103.419 255.172 103.242C255.438 103.06 255.643 102.812 255.789 102.5C255.935 102.182 256.029 101.826 256.07 101.43V100.203C256.049 99.8906 255.995 99.6016 255.906 99.3359C255.823 99.0703 255.703 98.8411 255.547 98.6484C255.396 98.4557 255.208 98.3047 254.984 98.1953C254.76 98.0859 254.495 98.0312 254.188 98.0312C253.87 98.0312 253.599 98.1016 253.375 98.2422C253.151 98.3776 252.969 98.5677 252.828 98.8125C252.688 99.0573 252.583 99.3411 252.516 99.6641C252.453 99.987 252.422 100.336 252.422 100.711ZM263.523 105.156C262.883 105.156 262.307 105.052 261.797 104.844C261.286 104.635 260.852 104.346 260.492 103.977C260.138 103.602 259.865 103.167 259.672 102.672C259.484 102.172 259.391 101.635 259.391 101.062V100.75C259.391 100.099 259.484 99.5078 259.672 98.9766C259.859 98.4401 260.125 97.9792 260.469 97.5938C260.812 97.2083 261.224 96.9115 261.703 96.7031C262.182 96.4948 262.711 96.3906 263.289 96.3906C263.888 96.3906 264.417 96.4922 264.875 96.6953C265.333 96.8932 265.716 97.1745 266.023 97.5391C266.331 97.9036 266.562 98.3411 266.719 98.8516C266.875 99.3568 266.953 99.9167 266.953 100.531V101.398H260.328V99.9766H264.922V99.8203C264.911 99.4922 264.849 99.1927 264.734 98.9219C264.62 98.6458 264.443 98.4271 264.203 98.2656C263.964 98.099 263.654 98.0156 263.273 98.0156C262.966 98.0156 262.698 98.0833 262.469 98.2188C262.245 98.349 262.057 98.5365 261.906 98.7812C261.76 99.0208 261.651 99.3073 261.578 99.6406C261.505 99.974 261.469 100.344 261.469 100.75V101.062C261.469 101.417 261.516 101.745 261.609 102.047C261.708 102.349 261.852 102.612 262.039 102.836C262.232 103.055 262.461 103.227 262.727 103.352C262.997 103.471 263.305 103.531 263.648 103.531C264.081 103.531 264.471 103.448 264.82 103.281C265.174 103.109 265.482 102.857 265.742 102.523L266.781 103.602C266.604 103.862 266.365 104.112 266.062 104.352C265.766 104.591 265.406 104.786 264.984 104.938C264.562 105.083 264.076 105.156 263.523 105.156ZM270.359 98.3516V105H268.297V96.5469H270.234L270.359 98.3516ZM270.031 100.469H269.422C269.427 99.8542 269.51 99.2969 269.672 98.7969C269.833 98.2969 270.06 97.8672 270.352 97.5078C270.648 97.1484 271 96.8724 271.406 96.6797C271.812 96.487 272.266 96.3906 272.766 96.3906C273.172 96.3906 273.539 96.4479 273.867 96.5625C274.195 96.6771 274.477 96.8594 274.711 97.1094C274.951 97.3594 275.133 97.6875 275.258 98.0938C275.388 98.4948 275.453 98.9896 275.453 99.5781V105H273.375V99.5625C273.375 99.1771 273.318 98.8724 273.203 98.6484C273.094 98.4245 272.932 98.2656 272.719 98.1719C272.51 98.0781 272.253 98.0312 271.945 98.0312C271.628 98.0312 271.349 98.0964 271.109 98.2266C270.875 98.3516 270.677 98.526 270.516 98.75C270.359 98.974 270.24 99.2318 270.156 99.5234C270.073 99.8151 270.031 100.13 270.031 100.469ZM281.273 96.5469V98.0312H276.43V96.5469H281.273ZM277.727 94.4688H279.797V102.562C279.797 102.812 279.831 103.005 279.898 103.141C279.966 103.276 280.068 103.367 280.203 103.414C280.339 103.461 280.5 103.484 280.688 103.484C280.823 103.484 280.948 103.477 281.062 103.461C281.177 103.445 281.273 103.43 281.352 103.414L281.359 104.961C281.188 105.018 280.992 105.065 280.773 105.102C280.56 105.138 280.318 105.156 280.047 105.156C279.583 105.156 279.177 105.078 278.828 104.922C278.479 104.76 278.208 104.503 278.016 104.148C277.823 103.789 277.727 103.315 277.727 102.727V94.4688ZM284.711 98.2734V105H282.648V96.5469H284.602L284.711 98.2734ZM287.281 96.4922L287.25 98.4141C287.135 98.3932 287.005 98.3776 286.859 98.3672C286.719 98.3568 286.586 98.3516 286.461 98.3516C286.143 98.3516 285.865 98.3958 285.625 98.4844C285.385 98.5677 285.185 98.6901 285.023 98.8516C284.867 99.013 284.747 99.2109 284.664 99.4453C284.581 99.6745 284.534 99.9349 284.523 100.227L284.078 100.172C284.078 99.6354 284.133 99.138 284.242 98.6797C284.352 98.2214 284.51 97.8203 284.719 97.4766C284.927 97.1328 285.188 96.8672 285.5 96.6797C285.818 96.487 286.182 96.3906 286.594 96.3906C286.708 96.3906 286.831 96.401 286.961 96.4219C287.096 96.4375 287.203 96.4609 287.281 96.4922ZM287.828 100.859V100.695C287.828 100.076 287.917 99.5052 288.094 98.9844C288.271 98.4583 288.529 98.0026 288.867 97.6172C289.206 97.2318 289.62 96.9323 290.109 96.7188C290.599 96.5 291.156 96.3906 291.781 96.3906C292.417 96.3906 292.979 96.5 293.469 96.7188C293.964 96.9323 294.38 97.2318 294.719 97.6172C295.057 98.0026 295.315 98.4583 295.492 98.9844C295.669 99.5052 295.758 100.076 295.758 100.695V100.859C295.758 101.474 295.669 102.044 295.492 102.57C295.315 103.091 295.057 103.547 294.719 103.938C294.38 104.323 293.966 104.622 293.477 104.836C292.987 105.049 292.427 105.156 291.797 105.156C291.172 105.156 290.612 105.049 290.117 104.836C289.622 104.622 289.206 104.323 288.867 103.938C288.529 103.547 288.271 103.091 288.094 102.57C287.917 102.044 287.828 101.474 287.828 100.859ZM289.891 100.695V100.859C289.891 101.229 289.927 101.576 290 101.898C290.073 102.221 290.185 102.505 290.336 102.75C290.487 102.995 290.682 103.188 290.922 103.328C291.167 103.464 291.458 103.531 291.797 103.531C292.13 103.531 292.417 103.464 292.656 103.328C292.896 103.188 293.091 102.995 293.242 102.75C293.398 102.505 293.513 102.221 293.586 101.898C293.659 101.576 293.695 101.229 293.695 100.859V100.695C293.695 100.331 293.659 99.9896 293.586 99.6719C293.513 99.349 293.398 99.0651 293.242 98.8203C293.091 98.5703 292.893 98.375 292.648 98.2344C292.409 98.0885 292.12 98.0156 291.781 98.0156C291.448 98.0156 291.161 98.0885 290.922 98.2344C290.682 98.375 290.487 98.5703 290.336 98.8203C290.185 99.0651 290.073 99.349 290 99.6719C289.927 99.9896 289.891 100.331 289.891 100.695ZM306.312 103.203V93H308.391V105H306.516L306.312 103.203ZM300.883 100.875V100.711C300.883 100.065 300.956 99.4792 301.102 98.9531C301.253 98.4219 301.471 97.9661 301.758 97.5859C302.044 97.2057 302.391 96.9115 302.797 96.7031C303.208 96.4948 303.674 96.3906 304.195 96.3906C304.701 96.3906 305.141 96.4922 305.516 96.6953C305.896 96.8984 306.219 97.1875 306.484 97.5625C306.755 97.9375 306.971 98.3828 307.133 98.8984C307.294 99.4089 307.411 99.9714 307.484 100.586V101.031C307.411 101.63 307.294 102.18 307.133 102.68C306.971 103.18 306.755 103.617 306.484 103.992C306.219 104.362 305.896 104.648 305.516 104.852C305.135 105.055 304.69 105.156 304.18 105.156C303.664 105.156 303.201 105.049 302.789 104.836C302.383 104.622 302.036 104.323 301.75 103.938C301.469 103.552 301.253 103.099 301.102 102.578C300.956 102.057 300.883 101.49 300.883 100.875ZM302.953 100.711V100.875C302.953 101.24 302.984 101.581 303.047 101.898C303.109 102.216 303.211 102.497 303.352 102.742C303.492 102.982 303.672 103.169 303.891 103.305C304.115 103.44 304.385 103.508 304.703 103.508C305.109 103.508 305.443 103.419 305.703 103.242C305.969 103.06 306.174 102.812 306.32 102.5C306.466 102.182 306.56 101.826 306.602 101.43V100.203C306.581 99.8906 306.526 99.6016 306.438 99.3359C306.354 99.0703 306.234 98.8411 306.078 98.6484C305.927 98.4557 305.74 98.3047 305.516 98.1953C305.292 98.0859 305.026 98.0312 304.719 98.0312C304.401 98.0312 304.13 98.1016 303.906 98.2422C303.682 98.3776 303.5 98.5677 303.359 98.8125C303.219 99.0573 303.115 99.3411 303.047 99.6641C302.984 99.987 302.953 100.336 302.953 100.711ZM314.914 103.203V99.3047C314.914 99.0182 314.865 98.7708 314.766 98.5625C314.667 98.3542 314.516 98.1927 314.312 98.0781C314.109 97.9635 313.852 97.9062 313.539 97.9062C313.263 97.9062 313.021 97.9531 312.812 98.0469C312.609 98.1406 312.453 98.2734 312.344 98.4453C312.234 98.612 312.18 98.8047 312.18 99.0234H310.109C310.109 98.6745 310.193 98.3438 310.359 98.0312C310.526 97.7135 310.763 97.4323 311.07 97.1875C311.383 96.9375 311.755 96.7422 312.188 96.6016C312.625 96.4609 313.115 96.3906 313.656 96.3906C314.297 96.3906 314.867 96.5 315.367 96.7188C315.872 96.9323 316.268 97.2552 316.555 97.6875C316.846 98.1198 316.992 98.6641 316.992 99.3203V103.008C316.992 103.43 317.018 103.792 317.07 104.094C317.128 104.391 317.211 104.648 317.32 104.867V105H315.219C315.12 104.786 315.044 104.516 314.992 104.188C314.94 103.854 314.914 103.526 314.914 103.203ZM315.203 99.8516L315.219 101.078H313.914C313.591 101.078 313.307 101.112 313.062 101.18C312.818 101.242 312.617 101.336 312.461 101.461C312.305 101.581 312.188 101.727 312.109 101.898C312.031 102.065 311.992 102.255 311.992 102.469C311.992 102.677 312.039 102.865 312.133 103.031C312.232 103.198 312.372 103.331 312.555 103.43C312.742 103.523 312.961 103.57 313.211 103.57C313.576 103.57 313.893 103.497 314.164 103.352C314.435 103.201 314.646 103.018 314.797 102.805C314.948 102.591 315.029 102.388 315.039 102.195L315.633 103.086C315.56 103.299 315.451 103.526 315.305 103.766C315.159 104.005 314.971 104.229 314.742 104.438C314.513 104.646 314.237 104.818 313.914 104.953C313.591 105.089 313.216 105.156 312.789 105.156C312.242 105.156 311.753 105.047 311.32 104.828C310.888 104.609 310.547 104.31 310.297 103.93C310.047 103.549 309.922 103.117 309.922 102.633C309.922 102.185 310.005 101.789 310.172 101.445C310.339 101.102 310.586 100.812 310.914 100.578C311.242 100.339 311.648 100.159 312.133 100.039C312.622 99.9141 313.182 99.8516 313.812 99.8516H315.203ZM324.891 98.2812V105H322.828V96.5469H324.773L324.891 98.2812ZM324.586 100.469H323.953C323.953 99.8802 324.023 99.3385 324.164 98.8438C324.31 98.349 324.523 97.9193 324.805 97.5547C325.086 97.1849 325.432 96.8984 325.844 96.6953C326.26 96.4922 326.742 96.3906 327.289 96.3906C327.669 96.3906 328.018 96.4479 328.336 96.5625C328.654 96.6719 328.927 96.8464 329.156 97.0859C329.391 97.3203 329.57 97.6276 329.695 98.0078C329.82 98.3828 329.883 98.8333 329.883 99.3594V105H327.82V99.5703C327.82 99.1745 327.763 98.8646 327.648 98.6406C327.539 98.4167 327.38 98.2604 327.172 98.1719C326.964 98.0781 326.714 98.0312 326.422 98.0312C326.099 98.0312 325.82 98.0964 325.586 98.2266C325.357 98.3516 325.167 98.526 325.016 98.75C324.87 98.974 324.76 99.2318 324.688 99.5234C324.62 99.8151 324.586 100.13 324.586 100.469ZM329.727 100.086L328.875 100.242C328.88 99.7109 328.953 99.2135 329.094 98.75C329.234 98.2812 329.44 97.8724 329.711 97.5234C329.987 97.1693 330.328 96.8932 330.734 96.6953C331.146 96.4922 331.62 96.3906 332.156 96.3906C332.573 96.3906 332.948 96.4505 333.281 96.5703C333.62 96.6849 333.909 96.8698 334.148 97.125C334.388 97.375 334.57 97.7005 334.695 98.1016C334.826 98.5026 334.891 98.9922 334.891 99.5703V105H332.812V99.5625C332.812 99.151 332.755 98.8359 332.641 98.6172C332.531 98.3984 332.372 98.2474 332.164 98.1641C331.956 98.0755 331.711 98.0312 331.43 98.0312C331.143 98.0312 330.893 98.0859 330.68 98.1953C330.471 98.2995 330.294 98.4453 330.148 98.6328C330.008 98.8203 329.901 99.0391 329.828 99.2891C329.76 99.5339 329.727 99.7995 329.727 100.086ZM341.398 103.203V99.3047C341.398 99.0182 341.349 98.7708 341.25 98.5625C341.151 98.3542 341 98.1927 340.797 98.0781C340.594 97.9635 340.336 97.9062 340.023 97.9062C339.747 97.9062 339.505 97.9531 339.297 98.0469C339.094 98.1406 338.938 98.2734 338.828 98.4453C338.719 98.612 338.664 98.8047 338.664 99.0234H336.594C336.594 98.6745 336.677 98.3438 336.844 98.0312C337.01 97.7135 337.247 97.4323 337.555 97.1875C337.867 96.9375 338.24 96.7422 338.672 96.6016C339.109 96.4609 339.599 96.3906 340.141 96.3906C340.781 96.3906 341.352 96.5 341.852 96.7188C342.357 96.9323 342.753 97.2552 343.039 97.6875C343.331 98.1198 343.477 98.6641 343.477 99.3203V103.008C343.477 103.43 343.503 103.792 343.555 104.094C343.612 104.391 343.695 104.648 343.805 104.867V105H341.703C341.604 104.786 341.529 104.516 341.477 104.188C341.424 103.854 341.398 103.526 341.398 103.203ZM341.688 99.8516L341.703 101.078H340.398C340.076 101.078 339.792 101.112 339.547 101.18C339.302 101.242 339.102 101.336 338.945 101.461C338.789 101.581 338.672 101.727 338.594 101.898C338.516 102.065 338.477 102.255 338.477 102.469C338.477 102.677 338.523 102.865 338.617 103.031C338.716 103.198 338.857 103.331 339.039 103.43C339.227 103.523 339.445 103.57 339.695 103.57C340.06 103.57 340.378 103.497 340.648 103.352C340.919 103.201 341.13 103.018 341.281 102.805C341.432 102.591 341.513 102.388 341.523 102.195L342.117 103.086C342.044 103.299 341.935 103.526 341.789 103.766C341.643 104.005 341.456 104.229 341.227 104.438C340.997 104.646 340.721 104.818 340.398 104.953C340.076 105.089 339.701 105.156 339.273 105.156C338.727 105.156 338.237 105.047 337.805 104.828C337.372 104.609 337.031 104.31 336.781 103.93C336.531 103.549 336.406 103.117 336.406 102.633C336.406 102.185 336.49 101.789 336.656 101.445C336.823 101.102 337.07 100.812 337.398 100.578C337.727 100.339 338.133 100.159 338.617 100.039C339.107 99.9141 339.667 99.8516 340.297 99.8516H341.688ZM347.398 98.2734V105H345.336V96.5469H347.289L347.398 98.2734ZM349.969 96.4922L349.938 98.4141C349.823 98.3932 349.693 98.3776 349.547 98.3672C349.406 98.3568 349.273 98.3516 349.148 98.3516C348.831 98.3516 348.552 98.3958 348.312 98.4844C348.073 98.5677 347.872 98.6901 347.711 98.8516C347.555 99.013 347.435 99.2109 347.352 99.4453C347.268 99.6745 347.221 99.9349 347.211 100.227L346.766 100.172C346.766 99.6354 346.82 99.138 346.93 98.6797C347.039 98.2214 347.198 97.8203 347.406 97.4766C347.615 97.1328 347.875 96.8672 348.188 96.6797C348.505 96.487 348.87 96.3906 349.281 96.3906C349.396 96.3906 349.518 96.401 349.648 96.4219C349.784 96.4375 349.891 96.4609 349.969 96.4922ZM354.414 103.531C354.706 103.531 354.966 103.474 355.195 103.359C355.424 103.245 355.607 103.083 355.742 102.875C355.883 102.667 355.958 102.424 355.969 102.148H357.914C357.904 102.721 357.742 103.234 357.43 103.688C357.117 104.141 356.701 104.5 356.18 104.766C355.664 105.026 355.086 105.156 354.445 105.156C353.794 105.156 353.227 105.047 352.742 104.828C352.258 104.609 351.854 104.305 351.531 103.914C351.214 103.523 350.974 103.07 350.812 102.555C350.656 102.039 350.578 101.487 350.578 100.898V100.648C350.578 100.06 350.656 99.5078 350.812 98.9922C350.974 98.4766 351.214 98.0234 351.531 97.6328C351.854 97.2422 352.258 96.9375 352.742 96.7188C353.227 96.5 353.792 96.3906 354.438 96.3906C355.12 96.3906 355.719 96.5234 356.234 96.7891C356.755 97.0547 357.161 97.4297 357.453 97.9141C357.75 98.3984 357.904 98.9688 357.914 99.625H355.969C355.958 99.3229 355.891 99.0521 355.766 98.8125C355.641 98.5729 355.464 98.3802 355.234 98.2344C355.005 98.0885 354.727 98.0156 354.398 98.0156C354.049 98.0156 353.758 98.0885 353.523 98.2344C353.294 98.3802 353.115 98.5807 352.984 98.8359C352.859 99.0859 352.771 99.3672 352.719 99.6797C352.672 99.987 352.648 100.31 352.648 100.648V100.898C352.648 101.242 352.672 101.57 352.719 101.883C352.771 102.195 352.859 102.477 352.984 102.727C353.115 102.971 353.294 103.167 353.523 103.312C353.758 103.458 354.055 103.531 354.414 103.531ZM363.945 103.203V99.3047C363.945 99.0182 363.896 98.7708 363.797 98.5625C363.698 98.3542 363.547 98.1927 363.344 98.0781C363.141 97.9635 362.883 97.9062 362.57 97.9062C362.294 97.9062 362.052 97.9531 361.844 98.0469C361.641 98.1406 361.484 98.2734 361.375 98.4453C361.266 98.612 361.211 98.8047 361.211 99.0234H359.141C359.141 98.6745 359.224 98.3438 359.391 98.0312C359.557 97.7135 359.794 97.4323 360.102 97.1875C360.414 96.9375 360.786 96.7422 361.219 96.6016C361.656 96.4609 362.146 96.3906 362.688 96.3906C363.328 96.3906 363.898 96.5 364.398 96.7188C364.904 96.9323 365.299 97.2552 365.586 97.6875C365.878 98.1198 366.023 98.6641 366.023 99.3203V103.008C366.023 103.43 366.049 103.792 366.102 104.094C366.159 104.391 366.242 104.648 366.352 104.867V105H364.25C364.151 104.786 364.076 104.516 364.023 104.188C363.971 103.854 363.945 103.526 363.945 103.203ZM364.234 99.8516L364.25 101.078H362.945C362.622 101.078 362.339 101.112 362.094 101.18C361.849 101.242 361.648 101.336 361.492 101.461C361.336 101.581 361.219 101.727 361.141 101.898C361.062 102.065 361.023 102.255 361.023 102.469C361.023 102.677 361.07 102.865 361.164 103.031C361.263 103.198 361.404 103.331 361.586 103.43C361.773 103.523 361.992 103.57 362.242 103.57C362.607 103.57 362.924 103.497 363.195 103.352C363.466 103.201 363.677 103.018 363.828 102.805C363.979 102.591 364.06 102.388 364.07 102.195L364.664 103.086C364.591 103.299 364.482 103.526 364.336 103.766C364.19 104.005 364.003 104.229 363.773 104.438C363.544 104.646 363.268 104.818 362.945 104.953C362.622 105.089 362.247 105.156 361.82 105.156C361.273 105.156 360.784 105.047 360.352 104.828C359.919 104.609 359.578 104.31 359.328 103.93C359.078 103.549 358.953 103.117 358.953 102.633C358.953 102.185 359.036 101.789 359.203 101.445C359.37 101.102 359.617 100.812 359.945 100.578C360.273 100.339 360.68 100.159 361.164 100.039C361.654 99.9141 362.214 99.8516 362.844 99.8516H364.234ZM371.352 103.531C371.643 103.531 371.904 103.474 372.133 103.359C372.362 103.245 372.544 103.083 372.68 102.875C372.82 102.667 372.896 102.424 372.906 102.148H374.852C374.841 102.721 374.68 103.234 374.367 103.688C374.055 104.141 373.638 104.5 373.117 104.766C372.602 105.026 372.023 105.156 371.383 105.156C370.732 105.156 370.164 105.047 369.68 104.828C369.195 104.609 368.792 104.305 368.469 103.914C368.151 103.523 367.911 103.07 367.75 102.555C367.594 102.039 367.516 101.487 367.516 100.898V100.648C367.516 100.06 367.594 99.5078 367.75 98.9922C367.911 98.4766 368.151 98.0234 368.469 97.6328C368.792 97.2422 369.195 96.9375 369.68 96.7188C370.164 96.5 370.729 96.3906 371.375 96.3906C372.057 96.3906 372.656 96.5234 373.172 96.7891C373.693 97.0547 374.099 97.4297 374.391 97.9141C374.688 98.3984 374.841 98.9688 374.852 99.625H372.906C372.896 99.3229 372.828 99.0521 372.703 98.8125C372.578 98.5729 372.401 98.3802 372.172 98.2344C371.943 98.0885 371.664 98.0156 371.336 98.0156C370.987 98.0156 370.695 98.0885 370.461 98.2344C370.232 98.3802 370.052 98.5807 369.922 98.8359C369.797 99.0859 369.708 99.3672 369.656 99.6797C369.609 99.987 369.586 100.31 369.586 100.648V100.898C369.586 101.242 369.609 101.57 369.656 101.883C369.708 102.195 369.797 102.477 369.922 102.727C370.052 102.971 370.232 103.167 370.461 103.312C370.695 103.458 370.992 103.531 371.352 103.531ZM370.516 105H372.055L371.969 105.445C372.266 105.497 372.536 105.622 372.781 105.82C373.026 106.018 373.148 106.344 373.148 106.797C373.148 107.068 373.091 107.312 372.977 107.531C372.867 107.75 372.701 107.938 372.477 108.094C372.253 108.255 371.974 108.378 371.641 108.461C371.312 108.544 370.93 108.586 370.492 108.586L370.438 107.43C370.625 107.43 370.792 107.406 370.938 107.359C371.089 107.312 371.206 107.237 371.289 107.133C371.378 107.034 371.422 106.906 371.422 106.75C371.422 106.594 371.383 106.471 371.305 106.383C371.227 106.299 371.102 106.234 370.93 106.188C370.763 106.146 370.544 106.117 370.273 106.102L370.516 105ZM380.883 103.203V99.3047C380.883 99.0182 380.833 98.7708 380.734 98.5625C380.635 98.3542 380.484 98.1927 380.281 98.0781C380.078 97.9635 379.82 97.9062 379.508 97.9062C379.232 97.9062 378.99 97.9531 378.781 98.0469C378.578 98.1406 378.422 98.2734 378.312 98.4453C378.203 98.612 378.148 98.8047 378.148 99.0234H376.078C376.078 98.6745 376.161 98.3438 376.328 98.0312C376.495 97.7135 376.732 97.4323 377.039 97.1875C377.352 96.9375 377.724 96.7422 378.156 96.6016C378.594 96.4609 379.083 96.3906 379.625 96.3906C380.266 96.3906 380.836 96.5 381.336 96.7188C381.841 96.9323 382.237 97.2552 382.523 97.6875C382.815 98.1198 382.961 98.6641 382.961 99.3203V103.008C382.961 103.43 382.987 103.792 383.039 104.094C383.096 104.391 383.18 104.648 383.289 104.867V105H381.188C381.089 104.786 381.013 104.516 380.961 104.188C380.909 103.854 380.883 103.526 380.883 103.203ZM381.172 99.8516L381.188 101.078H379.883C379.56 101.078 379.276 101.112 379.031 101.18C378.786 101.242 378.586 101.336 378.43 101.461C378.273 101.581 378.156 101.727 378.078 101.898C378 102.065 377.961 102.255 377.961 102.469C377.961 102.677 378.008 102.865 378.102 103.031C378.201 103.198 378.341 103.331 378.523 103.43C378.711 103.523 378.93 103.57 379.18 103.57C379.544 103.57 379.862 103.497 380.133 103.352C380.404 103.201 380.615 103.018 380.766 102.805C380.917 102.591 380.997 102.388 381.008 102.195L381.602 103.086C381.529 103.299 381.419 103.526 381.273 103.766C381.128 104.005 380.94 104.229 380.711 104.438C380.482 104.646 380.206 104.818 379.883 104.953C379.56 105.089 379.185 105.156 378.758 105.156C378.211 105.156 377.721 105.047 377.289 104.828C376.857 104.609 376.516 104.31 376.266 103.93C376.016 103.549 375.891 103.117 375.891 102.633C375.891 102.185 375.974 101.789 376.141 101.445C376.307 101.102 376.555 100.812 376.883 100.578C377.211 100.339 377.617 100.159 378.102 100.039C378.591 99.9141 379.151 99.8516 379.781 99.8516H381.172ZM381.328 93.0703L382.555 93.1562C382.555 93.5365 382.477 93.8802 382.32 94.1875C382.169 94.4896 381.964 94.7292 381.703 94.9062C381.443 95.0833 381.143 95.1719 380.805 95.1719C380.555 95.1719 380.339 95.138 380.156 95.0703C379.979 95.0026 379.815 94.9219 379.664 94.8281C379.518 94.7344 379.367 94.6536 379.211 94.5859C379.055 94.513 378.872 94.4766 378.664 94.4766C378.477 94.4766 378.315 94.5469 378.18 94.6875C378.049 94.8281 377.984 95.0182 377.984 95.2578L376.75 95.1953C376.75 94.8203 376.826 94.4792 376.977 94.1719C377.128 93.8646 377.333 93.6198 377.594 93.4375C377.859 93.2552 378.161 93.1641 378.5 93.1641C378.714 93.1641 378.906 93.1979 379.078 93.2656C379.255 93.3333 379.424 93.4141 379.586 93.5078C379.747 93.5964 379.911 93.6771 380.078 93.75C380.25 93.8177 380.435 93.8516 380.633 93.8516C380.826 93.8516 380.99 93.7812 381.125 93.6406C381.26 93.5 381.328 93.3099 381.328 93.0703ZM384.453 100.859V100.695C384.453 100.076 384.542 99.5052 384.719 98.9844C384.896 98.4583 385.154 98.0026 385.492 97.6172C385.831 97.2318 386.245 96.9323 386.734 96.7188C387.224 96.5 387.781 96.3906 388.406 96.3906C389.042 96.3906 389.604 96.5 390.094 96.7188C390.589 96.9323 391.005 97.2318 391.344 97.6172C391.682 98.0026 391.94 98.4583 392.117 98.9844C392.294 99.5052 392.383 100.076 392.383 100.695V100.859C392.383 101.474 392.294 102.044 392.117 102.57C391.94 103.091 391.682 103.547 391.344 103.938C391.005 104.323 390.591 104.622 390.102 104.836C389.612 105.049 389.052 105.156 388.422 105.156C387.797 105.156 387.237 105.049 386.742 104.836C386.247 104.622 385.831 104.323 385.492 103.938C385.154 103.547 384.896 103.091 384.719 102.57C384.542 102.044 384.453 101.474 384.453 100.859ZM386.516 100.695V100.859C386.516 101.229 386.552 101.576 386.625 101.898C386.698 102.221 386.81 102.505 386.961 102.75C387.112 102.995 387.307 103.188 387.547 103.328C387.792 103.464 388.083 103.531 388.422 103.531C388.755 103.531 389.042 103.464 389.281 103.328C389.521 103.188 389.716 102.995 389.867 102.75C390.023 102.505 390.138 102.221 390.211 101.898C390.284 101.576 390.32 101.229 390.32 100.859V100.695C390.32 100.331 390.284 99.9896 390.211 99.6719C390.138 99.349 390.023 99.0651 389.867 98.8203C389.716 98.5703 389.518 98.375 389.273 98.2344C389.034 98.0885 388.745 98.0156 388.406 98.0156C388.073 98.0156 387.786 98.0885 387.547 98.2344C387.307 98.375 387.112 98.5703 386.961 98.8203C386.81 99.0651 386.698 99.349 386.625 99.6719C386.552 99.9896 386.516 100.331 386.516 100.695ZM393.969 103.992C393.969 103.68 394.076 103.417 394.289 103.203C394.503 102.99 394.792 102.883 395.156 102.883C395.521 102.883 395.81 102.99 396.023 103.203C396.237 103.417 396.344 103.68 396.344 103.992C396.344 104.299 396.237 104.56 396.023 104.773C395.81 104.982 395.521 105.086 395.156 105.086C394.792 105.086 394.503 104.982 394.289 104.773C394.076 104.56 393.969 104.299 393.969 103.992Z" fill="white"/>
</svg>
