<svg width="475" height="812" viewBox="0 0 475 812" fill="none" xmlns="http://www.w3.org/2000/svg">
<path opacity="0.95" fill-rule="evenodd" clip-rule="evenodd" d="M475 0H0V812H475V0ZM119 230C116.791 230 115 231.791 115 234V577C115 579.209 116.791 581 119 581H356C358.209 581 360 579.209 360 577V234C360 231.791 358.209 230 356 230H119Z" fill="#4A4A4A" fill-opacity="0.85"/>
<path d="M82.4609 160.852H79.5312V159.164H82.4609C82.9401 159.164 83.3281 159.086 83.625 158.93C83.9271 158.768 84.1484 158.549 84.2891 158.273C84.4297 157.992 84.5 157.672 84.5 157.312C84.5 156.964 84.4297 156.638 84.2891 156.336C84.1484 156.034 83.9271 155.789 83.625 155.602C83.3281 155.414 82.9401 155.32 82.4609 155.32H80.2344V165H78.0859V153.625H82.4609C83.3464 153.625 84.1016 153.784 84.7266 154.102C85.3568 154.414 85.8359 154.849 86.1641 155.406C86.4974 155.958 86.6641 156.589 86.6641 157.297C86.6641 158.031 86.4974 158.664 86.1641 159.195C85.8359 159.727 85.3568 160.135 84.7266 160.422C84.1016 160.708 83.3464 160.852 82.4609 160.852ZM87.7188 160.859V160.695C87.7188 160.076 87.8073 159.505 87.9844 158.984C88.1615 158.458 88.4193 158.003 88.7578 157.617C89.0964 157.232 89.5104 156.932 90 156.719C90.4896 156.5 91.0469 156.391 91.6719 156.391C92.3073 156.391 92.8698 156.5 93.3594 156.719C93.8542 156.932 94.2708 157.232 94.6094 157.617C94.9479 158.003 95.2057 158.458 95.3828 158.984C95.5599 159.505 95.6484 160.076 95.6484 160.695V160.859C95.6484 161.474 95.5599 162.044 95.3828 162.57C95.2057 163.091 94.9479 163.547 94.6094 163.938C94.2708 164.323 93.8568 164.622 93.3672 164.836C92.8776 165.049 92.3177 165.156 91.6875 165.156C91.0625 165.156 90.5026 165.049 90.0078 164.836C89.513 164.622 89.0964 164.323 88.7578 163.938C88.4193 163.547 88.1615 163.091 87.9844 162.57C87.8073 162.044 87.7188 161.474 87.7188 160.859ZM89.7812 160.695V160.859C89.7812 161.229 89.8177 161.576 89.8906 161.898C89.9635 162.221 90.0755 162.505 90.2266 162.75C90.3776 162.995 90.5729 163.188 90.8125 163.328C91.0573 163.464 91.349 163.531 91.6875 163.531C92.0208 163.531 92.3073 163.464 92.5469 163.328C92.7865 163.188 92.9818 162.995 93.1328 162.75C93.2891 162.505 93.4036 162.221 93.4766 161.898C93.5495 161.576 93.5859 161.229 93.5859 160.859V160.695C93.5859 160.331 93.5495 159.99 93.4766 159.672C93.4036 159.349 93.2891 159.065 93.1328 158.82C92.9818 158.57 92.7839 158.375 92.5391 158.234C92.2995 158.089 92.0104 158.016 91.6719 158.016C91.3385 158.016 91.0521 158.089 90.8125 158.234C90.5729 158.375 90.3776 158.57 90.2266 158.82C90.0755 159.065 89.9635 159.349 89.8906 159.672C89.8177 159.99 89.7812 160.331 89.7812 160.695ZM101.797 162.688C101.797 162.51 101.75 162.352 101.656 162.211C101.562 162.07 101.385 161.943 101.125 161.828C100.87 161.708 100.495 161.596 100 161.492C99.5625 161.398 99.1589 161.281 98.7891 161.141C98.4193 161 98.1016 160.831 97.8359 160.633C97.5703 160.43 97.362 160.193 97.2109 159.922C97.0651 159.646 96.9922 159.328 96.9922 158.969C96.9922 158.62 97.0677 158.292 97.2188 157.984C97.3698 157.672 97.5885 157.398 97.875 157.164C98.1615 156.924 98.5104 156.737 98.9219 156.602C99.3333 156.461 99.7969 156.391 100.312 156.391C101.031 156.391 101.648 156.508 102.164 156.742C102.685 156.977 103.083 157.299 103.359 157.711C103.635 158.117 103.773 158.576 103.773 159.086H101.711C101.711 158.862 101.659 158.659 101.555 158.477C101.456 158.294 101.302 158.148 101.094 158.039C100.885 157.924 100.622 157.867 100.305 157.867C100.018 157.867 99.776 157.914 99.5781 158.008C99.3854 158.102 99.2396 158.224 99.1406 158.375C99.0417 158.526 98.9922 158.693 98.9922 158.875C98.9922 159.01 99.0182 159.133 99.0703 159.242C99.1276 159.346 99.2188 159.443 99.3438 159.531C99.4688 159.62 99.638 159.701 99.8516 159.773C100.07 159.846 100.339 159.917 100.656 159.984C101.286 160.109 101.836 160.276 102.305 160.484C102.779 160.688 103.148 160.958 103.414 161.297C103.68 161.635 103.812 162.068 103.812 162.594C103.812 162.969 103.732 163.312 103.57 163.625C103.409 163.932 103.174 164.201 102.867 164.43C102.56 164.659 102.193 164.839 101.766 164.969C101.339 165.094 100.857 165.156 100.32 165.156C99.5443 165.156 98.888 165.018 98.3516 164.742C97.8151 164.461 97.4089 164.107 97.1328 163.68C96.8568 163.247 96.7188 162.799 96.7188 162.336H98.6953C98.7109 162.664 98.7995 162.927 98.9609 163.125C99.1224 163.323 99.3255 163.466 99.5703 163.555C99.8203 163.638 100.083 163.68 100.359 163.68C100.672 163.68 100.935 163.638 101.148 163.555C101.362 163.466 101.523 163.349 101.633 163.203C101.742 163.052 101.797 162.88 101.797 162.688ZM107.57 156.547V165H105.5V156.547H107.57ZM105.359 154.336C105.359 154.029 105.464 153.773 105.672 153.57C105.885 153.367 106.172 153.266 106.531 153.266C106.891 153.266 107.174 153.367 107.383 153.57C107.596 153.773 107.703 154.029 107.703 154.336C107.703 154.638 107.596 154.891 107.383 155.094C107.174 155.297 106.891 155.398 106.531 155.398C106.172 155.398 105.885 155.297 105.672 155.094C105.464 154.891 105.359 154.638 105.359 154.336ZM113.008 163.531C113.299 163.531 113.56 163.474 113.789 163.359C114.018 163.245 114.201 163.083 114.336 162.875C114.477 162.667 114.552 162.424 114.562 162.148H116.508C116.497 162.721 116.336 163.234 116.023 163.688C115.711 164.141 115.294 164.5 114.773 164.766C114.258 165.026 113.68 165.156 113.039 165.156C112.388 165.156 111.82 165.047 111.336 164.828C110.852 164.609 110.448 164.305 110.125 163.914C109.807 163.523 109.568 163.07 109.406 162.555C109.25 162.039 109.172 161.487 109.172 160.898V160.648C109.172 160.06 109.25 159.508 109.406 158.992C109.568 158.477 109.807 158.023 110.125 157.633C110.448 157.242 110.852 156.938 111.336 156.719C111.82 156.5 112.385 156.391 113.031 156.391C113.714 156.391 114.312 156.523 114.828 156.789C115.349 157.055 115.755 157.43 116.047 157.914C116.344 158.398 116.497 158.969 116.508 159.625H114.562C114.552 159.323 114.484 159.052 114.359 158.812C114.234 158.573 114.057 158.38 113.828 158.234C113.599 158.089 113.32 158.016 112.992 158.016C112.643 158.016 112.352 158.089 112.117 158.234C111.888 158.38 111.708 158.581 111.578 158.836C111.453 159.086 111.365 159.367 111.312 159.68C111.266 159.987 111.242 160.31 111.242 160.648V160.898C111.242 161.242 111.266 161.57 111.312 161.883C111.365 162.195 111.453 162.477 111.578 162.727C111.708 162.971 111.888 163.167 112.117 163.312C112.352 163.458 112.648 163.531 113.008 163.531ZM120.07 156.547V165H118V156.547H120.07ZM117.859 154.336C117.859 154.029 117.964 153.773 118.172 153.57C118.385 153.367 118.672 153.266 119.031 153.266C119.391 153.266 119.674 153.367 119.883 153.57C120.096 153.773 120.203 154.029 120.203 154.336C120.203 154.638 120.096 154.891 119.883 155.094C119.674 155.297 119.391 155.398 119.031 155.398C118.672 155.398 118.385 155.297 118.172 155.094C117.964 154.891 117.859 154.638 117.859 154.336ZM121.672 160.859V160.695C121.672 160.076 121.76 159.505 121.938 158.984C122.115 158.458 122.372 158.003 122.711 157.617C123.049 157.232 123.464 156.932 123.953 156.719C124.443 156.5 125 156.391 125.625 156.391C126.26 156.391 126.823 156.5 127.312 156.719C127.807 156.932 128.224 157.232 128.562 157.617C128.901 158.003 129.159 158.458 129.336 158.984C129.513 159.505 129.602 160.076 129.602 160.695V160.859C129.602 161.474 129.513 162.044 129.336 162.57C129.159 163.091 128.901 163.547 128.562 163.938C128.224 164.323 127.81 164.622 127.32 164.836C126.831 165.049 126.271 165.156 125.641 165.156C125.016 165.156 124.456 165.049 123.961 164.836C123.466 164.622 123.049 164.323 122.711 163.938C122.372 163.547 122.115 163.091 121.938 162.57C121.76 162.044 121.672 161.474 121.672 160.859ZM123.734 160.695V160.859C123.734 161.229 123.771 161.576 123.844 161.898C123.917 162.221 124.029 162.505 124.18 162.75C124.331 162.995 124.526 163.188 124.766 163.328C125.01 163.464 125.302 163.531 125.641 163.531C125.974 163.531 126.26 163.464 126.5 163.328C126.74 163.188 126.935 162.995 127.086 162.75C127.242 162.505 127.357 162.221 127.43 161.898C127.503 161.576 127.539 161.229 127.539 160.859V160.695C127.539 160.331 127.503 159.99 127.43 159.672C127.357 159.349 127.242 159.065 127.086 158.82C126.935 158.57 126.737 158.375 126.492 158.234C126.253 158.089 125.964 158.016 125.625 158.016C125.292 158.016 125.005 158.089 124.766 158.234C124.526 158.375 124.331 158.57 124.18 158.82C124.029 159.065 123.917 159.349 123.844 159.672C123.771 159.99 123.734 160.331 123.734 160.695ZM133.125 158.352V165H131.062V156.547H133L133.125 158.352ZM132.797 160.469H132.188C132.193 159.854 132.276 159.297 132.438 158.797C132.599 158.297 132.826 157.867 133.117 157.508C133.414 157.148 133.766 156.872 134.172 156.68C134.578 156.487 135.031 156.391 135.531 156.391C135.938 156.391 136.305 156.448 136.633 156.562C136.961 156.677 137.242 156.859 137.477 157.109C137.716 157.359 137.898 157.688 138.023 158.094C138.154 158.495 138.219 158.99 138.219 159.578V165H136.141V159.562C136.141 159.177 136.083 158.872 135.969 158.648C135.859 158.424 135.698 158.266 135.484 158.172C135.276 158.078 135.018 158.031 134.711 158.031C134.393 158.031 134.115 158.096 133.875 158.227C133.641 158.352 133.443 158.526 133.281 158.75C133.125 158.974 133.005 159.232 132.922 159.523C132.839 159.815 132.797 160.13 132.797 160.469ZM143.836 165.156C143.195 165.156 142.62 165.052 142.109 164.844C141.599 164.635 141.164 164.346 140.805 163.977C140.451 163.602 140.177 163.167 139.984 162.672C139.797 162.172 139.703 161.635 139.703 161.062V160.75C139.703 160.099 139.797 159.508 139.984 158.977C140.172 158.44 140.438 157.979 140.781 157.594C141.125 157.208 141.536 156.911 142.016 156.703C142.495 156.495 143.023 156.391 143.602 156.391C144.201 156.391 144.729 156.492 145.188 156.695C145.646 156.893 146.029 157.174 146.336 157.539C146.643 157.904 146.875 158.341 147.031 158.852C147.188 159.357 147.266 159.917 147.266 160.531V161.398H140.641V159.977H145.234V159.82C145.224 159.492 145.161 159.193 145.047 158.922C144.932 158.646 144.755 158.427 144.516 158.266C144.276 158.099 143.966 158.016 143.586 158.016C143.279 158.016 143.01 158.083 142.781 158.219C142.557 158.349 142.37 158.536 142.219 158.781C142.073 159.021 141.964 159.307 141.891 159.641C141.818 159.974 141.781 160.344 141.781 160.75V161.062C141.781 161.417 141.828 161.745 141.922 162.047C142.021 162.349 142.164 162.612 142.352 162.836C142.544 163.055 142.773 163.227 143.039 163.352C143.31 163.471 143.617 163.531 143.961 163.531C144.393 163.531 144.784 163.448 145.133 163.281C145.487 163.109 145.794 162.857 146.055 162.523L147.094 163.602C146.917 163.862 146.677 164.112 146.375 164.352C146.078 164.591 145.719 164.786 145.297 164.938C144.875 165.083 144.388 165.156 143.836 165.156ZM152.266 160.859V160.695C152.266 160.076 152.354 159.505 152.531 158.984C152.708 158.458 152.966 158.003 153.305 157.617C153.643 157.232 154.057 156.932 154.547 156.719C155.036 156.5 155.594 156.391 156.219 156.391C156.854 156.391 157.417 156.5 157.906 156.719C158.401 156.932 158.818 157.232 159.156 157.617C159.495 158.003 159.753 158.458 159.93 158.984C160.107 159.505 160.195 160.076 160.195 160.695V160.859C160.195 161.474 160.107 162.044 159.93 162.57C159.753 163.091 159.495 163.547 159.156 163.938C158.818 164.323 158.404 164.622 157.914 164.836C157.424 165.049 156.865 165.156 156.234 165.156C155.609 165.156 155.049 165.049 154.555 164.836C154.06 164.622 153.643 164.323 153.305 163.938C152.966 163.547 152.708 163.091 152.531 162.57C152.354 162.044 152.266 161.474 152.266 160.859ZM154.328 160.695V160.859C154.328 161.229 154.365 161.576 154.438 161.898C154.51 162.221 154.622 162.505 154.773 162.75C154.924 162.995 155.12 163.188 155.359 163.328C155.604 163.464 155.896 163.531 156.234 163.531C156.568 163.531 156.854 163.464 157.094 163.328C157.333 163.188 157.529 162.995 157.68 162.75C157.836 162.505 157.951 162.221 158.023 161.898C158.096 161.576 158.133 161.229 158.133 160.859V160.695C158.133 160.331 158.096 159.99 158.023 159.672C157.951 159.349 157.836 159.065 157.68 158.82C157.529 158.57 157.331 158.375 157.086 158.234C156.846 158.089 156.557 158.016 156.219 158.016C155.885 158.016 155.599 158.089 155.359 158.234C155.12 158.375 154.924 158.57 154.773 158.82C154.622 159.065 154.51 159.349 154.438 159.672C154.365 159.99 154.328 160.331 154.328 160.695ZM170.75 163.203V153H172.828V165H170.953L170.75 163.203ZM165.32 160.875V160.711C165.32 160.065 165.393 159.479 165.539 158.953C165.69 158.422 165.909 157.966 166.195 157.586C166.482 157.206 166.828 156.911 167.234 156.703C167.646 156.495 168.112 156.391 168.633 156.391C169.138 156.391 169.578 156.492 169.953 156.695C170.333 156.898 170.656 157.188 170.922 157.562C171.193 157.938 171.409 158.383 171.57 158.898C171.732 159.409 171.849 159.971 171.922 160.586V161.031C171.849 161.63 171.732 162.18 171.57 162.68C171.409 163.18 171.193 163.617 170.922 163.992C170.656 164.362 170.333 164.648 169.953 164.852C169.573 165.055 169.128 165.156 168.617 165.156C168.102 165.156 167.638 165.049 167.227 164.836C166.82 164.622 166.474 164.323 166.188 163.938C165.906 163.552 165.69 163.099 165.539 162.578C165.393 162.057 165.32 161.49 165.32 160.875ZM167.391 160.711V160.875C167.391 161.24 167.422 161.581 167.484 161.898C167.547 162.216 167.648 162.497 167.789 162.742C167.93 162.982 168.109 163.169 168.328 163.305C168.552 163.44 168.823 163.508 169.141 163.508C169.547 163.508 169.88 163.419 170.141 163.242C170.406 163.06 170.612 162.812 170.758 162.5C170.904 162.182 170.997 161.826 171.039 161.43V160.203C171.018 159.891 170.964 159.602 170.875 159.336C170.792 159.07 170.672 158.841 170.516 158.648C170.365 158.456 170.177 158.305 169.953 158.195C169.729 158.086 169.464 158.031 169.156 158.031C168.839 158.031 168.568 158.102 168.344 158.242C168.12 158.378 167.938 158.568 167.797 158.812C167.656 159.057 167.552 159.341 167.484 159.664C167.422 159.987 167.391 160.336 167.391 160.711ZM174.328 160.859V160.695C174.328 160.076 174.417 159.505 174.594 158.984C174.771 158.458 175.029 158.003 175.367 157.617C175.706 157.232 176.12 156.932 176.609 156.719C177.099 156.5 177.656 156.391 178.281 156.391C178.917 156.391 179.479 156.5 179.969 156.719C180.464 156.932 180.88 157.232 181.219 157.617C181.557 158.003 181.815 158.458 181.992 158.984C182.169 159.505 182.258 160.076 182.258 160.695V160.859C182.258 161.474 182.169 162.044 181.992 162.57C181.815 163.091 181.557 163.547 181.219 163.938C180.88 164.323 180.466 164.622 179.977 164.836C179.487 165.049 178.927 165.156 178.297 165.156C177.672 165.156 177.112 165.049 176.617 164.836C176.122 164.622 175.706 164.323 175.367 163.938C175.029 163.547 174.771 163.091 174.594 162.57C174.417 162.044 174.328 161.474 174.328 160.859ZM176.391 160.695V160.859C176.391 161.229 176.427 161.576 176.5 161.898C176.573 162.221 176.685 162.505 176.836 162.75C176.987 162.995 177.182 163.188 177.422 163.328C177.667 163.464 177.958 163.531 178.297 163.531C178.63 163.531 178.917 163.464 179.156 163.328C179.396 163.188 179.591 162.995 179.742 162.75C179.898 162.505 180.013 162.221 180.086 161.898C180.159 161.576 180.195 161.229 180.195 160.859V160.695C180.195 160.331 180.159 159.99 180.086 159.672C180.013 159.349 179.898 159.065 179.742 158.82C179.591 158.57 179.393 158.375 179.148 158.234C178.909 158.089 178.62 158.016 178.281 158.016C177.948 158.016 177.661 158.089 177.422 158.234C177.182 158.375 176.987 158.57 176.836 158.82C176.685 159.065 176.573 159.349 176.5 159.672C176.427 159.99 176.391 160.331 176.391 160.695ZM187.227 163.531C187.518 163.531 187.779 163.474 188.008 163.359C188.237 163.245 188.419 163.083 188.555 162.875C188.695 162.667 188.771 162.424 188.781 162.148H190.727C190.716 162.721 190.555 163.234 190.242 163.688C189.93 164.141 189.513 164.5 188.992 164.766C188.477 165.026 187.898 165.156 187.258 165.156C186.607 165.156 186.039 165.047 185.555 164.828C185.07 164.609 184.667 164.305 184.344 163.914C184.026 163.523 183.786 163.07 183.625 162.555C183.469 162.039 183.391 161.487 183.391 160.898V160.648C183.391 160.06 183.469 159.508 183.625 158.992C183.786 158.477 184.026 158.023 184.344 157.633C184.667 157.242 185.07 156.938 185.555 156.719C186.039 156.5 186.604 156.391 187.25 156.391C187.932 156.391 188.531 156.523 189.047 156.789C189.568 157.055 189.974 157.43 190.266 157.914C190.562 158.398 190.716 158.969 190.727 159.625H188.781C188.771 159.323 188.703 159.052 188.578 158.812C188.453 158.573 188.276 158.38 188.047 158.234C187.818 158.089 187.539 158.016 187.211 158.016C186.862 158.016 186.57 158.089 186.336 158.234C186.107 158.38 185.927 158.581 185.797 158.836C185.672 159.086 185.583 159.367 185.531 159.68C185.484 159.987 185.461 160.31 185.461 160.648V160.898C185.461 161.242 185.484 161.57 185.531 161.883C185.583 162.195 185.672 162.477 185.797 162.727C185.927 162.971 186.107 163.167 186.336 163.312C186.57 163.458 186.867 163.531 187.227 163.531ZM197.133 162.992V156.547H199.211V165H197.258L197.133 162.992ZM197.398 161.242L198.039 161.227C198.039 161.794 197.977 162.318 197.852 162.797C197.727 163.276 197.531 163.693 197.266 164.047C197.005 164.396 196.674 164.669 196.273 164.867C195.872 165.06 195.398 165.156 194.852 165.156C194.435 165.156 194.055 165.099 193.711 164.984C193.367 164.865 193.07 164.68 192.82 164.43C192.576 164.174 192.385 163.849 192.25 163.453C192.115 163.052 192.047 162.57 192.047 162.008V156.547H194.109V162.023C194.109 162.305 194.141 162.539 194.203 162.727C194.271 162.914 194.362 163.068 194.477 163.188C194.596 163.302 194.734 163.385 194.891 163.438C195.052 163.484 195.224 163.508 195.406 163.508C195.906 163.508 196.299 163.409 196.586 163.211C196.878 163.008 197.086 162.737 197.211 162.398C197.336 162.055 197.398 161.669 197.398 161.242ZM203.094 158.281V165H201.031V156.547H202.977L203.094 158.281ZM202.789 160.469H202.156C202.156 159.88 202.227 159.339 202.367 158.844C202.513 158.349 202.727 157.919 203.008 157.555C203.289 157.185 203.635 156.898 204.047 156.695C204.464 156.492 204.945 156.391 205.492 156.391C205.872 156.391 206.221 156.448 206.539 156.562C206.857 156.672 207.13 156.846 207.359 157.086C207.594 157.32 207.773 157.628 207.898 158.008C208.023 158.383 208.086 158.833 208.086 159.359V165H206.023V159.57C206.023 159.174 205.966 158.865 205.852 158.641C205.742 158.417 205.583 158.26 205.375 158.172C205.167 158.078 204.917 158.031 204.625 158.031C204.302 158.031 204.023 158.096 203.789 158.227C203.56 158.352 203.37 158.526 203.219 158.75C203.073 158.974 202.964 159.232 202.891 159.523C202.823 159.815 202.789 160.13 202.789 160.469ZM207.93 160.086L207.078 160.242C207.083 159.711 207.156 159.214 207.297 158.75C207.438 158.281 207.643 157.872 207.914 157.523C208.19 157.169 208.531 156.893 208.938 156.695C209.349 156.492 209.823 156.391 210.359 156.391C210.776 156.391 211.151 156.451 211.484 156.57C211.823 156.685 212.112 156.87 212.352 157.125C212.591 157.375 212.773 157.701 212.898 158.102C213.029 158.503 213.094 158.992 213.094 159.57V165H211.016V159.562C211.016 159.151 210.958 158.836 210.844 158.617C210.734 158.398 210.576 158.247 210.367 158.164C210.159 158.076 209.914 158.031 209.633 158.031C209.346 158.031 209.096 158.086 208.883 158.195C208.674 158.299 208.497 158.445 208.352 158.633C208.211 158.82 208.104 159.039 208.031 159.289C207.964 159.534 207.93 159.799 207.93 160.086ZM218.742 165.156C218.102 165.156 217.526 165.052 217.016 164.844C216.505 164.635 216.07 164.346 215.711 163.977C215.357 163.602 215.083 163.167 214.891 162.672C214.703 162.172 214.609 161.635 214.609 161.062V160.75C214.609 160.099 214.703 159.508 214.891 158.977C215.078 158.44 215.344 157.979 215.688 157.594C216.031 157.208 216.443 156.911 216.922 156.703C217.401 156.495 217.93 156.391 218.508 156.391C219.107 156.391 219.635 156.492 220.094 156.695C220.552 156.893 220.935 157.174 221.242 157.539C221.549 157.904 221.781 158.341 221.938 158.852C222.094 159.357 222.172 159.917 222.172 160.531V161.398H215.547V159.977H220.141V159.82C220.13 159.492 220.068 159.193 219.953 158.922C219.839 158.646 219.661 158.427 219.422 158.266C219.182 158.099 218.872 158.016 218.492 158.016C218.185 158.016 217.917 158.083 217.688 158.219C217.464 158.349 217.276 158.536 217.125 158.781C216.979 159.021 216.87 159.307 216.797 159.641C216.724 159.974 216.688 160.344 216.688 160.75V161.062C216.688 161.417 216.734 161.745 216.828 162.047C216.927 162.349 217.07 162.612 217.258 162.836C217.451 163.055 217.68 163.227 217.945 163.352C218.216 163.471 218.523 163.531 218.867 163.531C219.299 163.531 219.69 163.448 220.039 163.281C220.393 163.109 220.701 162.857 220.961 162.523L222 163.602C221.823 163.862 221.583 164.112 221.281 164.352C220.984 164.591 220.625 164.786 220.203 164.938C219.781 165.083 219.294 165.156 218.742 165.156ZM225.578 158.352V165H223.516V156.547H225.453L225.578 158.352ZM225.25 160.469H224.641C224.646 159.854 224.729 159.297 224.891 158.797C225.052 158.297 225.279 157.867 225.57 157.508C225.867 157.148 226.219 156.872 226.625 156.68C227.031 156.487 227.484 156.391 227.984 156.391C228.391 156.391 228.758 156.448 229.086 156.562C229.414 156.677 229.695 156.859 229.93 157.109C230.169 157.359 230.352 157.688 230.477 158.094C230.607 158.495 230.672 158.99 230.672 159.578V165H228.594V159.562C228.594 159.177 228.536 158.872 228.422 158.648C228.312 158.424 228.151 158.266 227.938 158.172C227.729 158.078 227.471 158.031 227.164 158.031C226.846 158.031 226.568 158.096 226.328 158.227C226.094 158.352 225.896 158.526 225.734 158.75C225.578 158.974 225.458 159.232 225.375 159.523C225.292 159.815 225.25 160.13 225.25 160.469ZM236.492 156.547V158.031H231.648V156.547H236.492ZM232.945 154.469H235.016V162.562C235.016 162.812 235.049 163.005 235.117 163.141C235.185 163.276 235.286 163.367 235.422 163.414C235.557 163.461 235.719 163.484 235.906 163.484C236.042 163.484 236.167 163.477 236.281 163.461C236.396 163.445 236.492 163.43 236.57 163.414L236.578 164.961C236.406 165.018 236.211 165.065 235.992 165.102C235.779 165.138 235.536 165.156 235.266 165.156C234.802 165.156 234.396 165.078 234.047 164.922C233.698 164.76 233.427 164.503 233.234 164.148C233.042 163.789 232.945 163.315 232.945 162.727V154.469ZM237.297 160.859V160.695C237.297 160.076 237.385 159.505 237.562 158.984C237.74 158.458 237.997 158.003 238.336 157.617C238.674 157.232 239.089 156.932 239.578 156.719C240.068 156.5 240.625 156.391 241.25 156.391C241.885 156.391 242.448 156.5 242.938 156.719C243.432 156.932 243.849 157.232 244.188 157.617C244.526 158.003 244.784 158.458 244.961 158.984C245.138 159.505 245.227 160.076 245.227 160.695V160.859C245.227 161.474 245.138 162.044 244.961 162.57C244.784 163.091 244.526 163.547 244.188 163.938C243.849 164.323 243.435 164.622 242.945 164.836C242.456 165.049 241.896 165.156 241.266 165.156C240.641 165.156 240.081 165.049 239.586 164.836C239.091 164.622 238.674 164.323 238.336 163.938C237.997 163.547 237.74 163.091 237.562 162.57C237.385 162.044 237.297 161.474 237.297 160.859ZM239.359 160.695V160.859C239.359 161.229 239.396 161.576 239.469 161.898C239.542 162.221 239.654 162.505 239.805 162.75C239.956 162.995 240.151 163.188 240.391 163.328C240.635 163.464 240.927 163.531 241.266 163.531C241.599 163.531 241.885 163.464 242.125 163.328C242.365 163.188 242.56 162.995 242.711 162.75C242.867 162.505 242.982 162.221 243.055 161.898C243.128 161.576 243.164 161.229 243.164 160.859V160.695C243.164 160.331 243.128 159.99 243.055 159.672C242.982 159.349 242.867 159.065 242.711 158.82C242.56 158.57 242.362 158.375 242.117 158.234C241.878 158.089 241.589 158.016 241.25 158.016C240.917 158.016 240.63 158.089 240.391 158.234C240.151 158.375 239.956 158.57 239.805 158.82C239.654 159.065 239.542 159.349 239.469 159.672C239.396 159.99 239.359 160.331 239.359 160.695ZM255.781 163.203V153H257.859V165H255.984L255.781 163.203ZM250.352 160.875V160.711C250.352 160.065 250.424 159.479 250.57 158.953C250.721 158.422 250.94 157.966 251.227 157.586C251.513 157.206 251.859 156.911 252.266 156.703C252.677 156.495 253.143 156.391 253.664 156.391C254.169 156.391 254.609 156.492 254.984 156.695C255.365 156.898 255.688 157.188 255.953 157.562C256.224 157.938 256.44 158.383 256.602 158.898C256.763 159.409 256.88 159.971 256.953 160.586V161.031C256.88 161.63 256.763 162.18 256.602 162.68C256.44 163.18 256.224 163.617 255.953 163.992C255.688 164.362 255.365 164.648 254.984 164.852C254.604 165.055 254.159 165.156 253.648 165.156C253.133 165.156 252.669 165.049 252.258 164.836C251.852 164.622 251.505 164.323 251.219 163.938C250.938 163.552 250.721 163.099 250.57 162.578C250.424 162.057 250.352 161.49 250.352 160.875ZM252.422 160.711V160.875C252.422 161.24 252.453 161.581 252.516 161.898C252.578 162.216 252.68 162.497 252.82 162.742C252.961 162.982 253.141 163.169 253.359 163.305C253.583 163.44 253.854 163.508 254.172 163.508C254.578 163.508 254.911 163.419 255.172 163.242C255.438 163.06 255.643 162.812 255.789 162.5C255.935 162.182 256.029 161.826 256.07 161.43V160.203C256.049 159.891 255.995 159.602 255.906 159.336C255.823 159.07 255.703 158.841 255.547 158.648C255.396 158.456 255.208 158.305 254.984 158.195C254.76 158.086 254.495 158.031 254.188 158.031C253.87 158.031 253.599 158.102 253.375 158.242C253.151 158.378 252.969 158.568 252.828 158.812C252.688 159.057 252.583 159.341 252.516 159.664C252.453 159.987 252.422 160.336 252.422 160.711ZM263.523 165.156C262.883 165.156 262.307 165.052 261.797 164.844C261.286 164.635 260.852 164.346 260.492 163.977C260.138 163.602 259.865 163.167 259.672 162.672C259.484 162.172 259.391 161.635 259.391 161.062V160.75C259.391 160.099 259.484 159.508 259.672 158.977C259.859 158.44 260.125 157.979 260.469 157.594C260.812 157.208 261.224 156.911 261.703 156.703C262.182 156.495 262.711 156.391 263.289 156.391C263.888 156.391 264.417 156.492 264.875 156.695C265.333 156.893 265.716 157.174 266.023 157.539C266.331 157.904 266.562 158.341 266.719 158.852C266.875 159.357 266.953 159.917 266.953 160.531V161.398H260.328V159.977H264.922V159.82C264.911 159.492 264.849 159.193 264.734 158.922C264.62 158.646 264.443 158.427 264.203 158.266C263.964 158.099 263.654 158.016 263.273 158.016C262.966 158.016 262.698 158.083 262.469 158.219C262.245 158.349 262.057 158.536 261.906 158.781C261.76 159.021 261.651 159.307 261.578 159.641C261.505 159.974 261.469 160.344 261.469 160.75V161.062C261.469 161.417 261.516 161.745 261.609 162.047C261.708 162.349 261.852 162.612 262.039 162.836C262.232 163.055 262.461 163.227 262.727 163.352C262.997 163.471 263.305 163.531 263.648 163.531C264.081 163.531 264.471 163.448 264.82 163.281C265.174 163.109 265.482 162.857 265.742 162.523L266.781 163.602C266.604 163.862 266.365 164.112 266.062 164.352C265.766 164.591 265.406 164.786 264.984 164.938C264.562 165.083 264.076 165.156 263.523 165.156ZM270.359 158.352V165H268.297V156.547H270.234L270.359 158.352ZM270.031 160.469H269.422C269.427 159.854 269.51 159.297 269.672 158.797C269.833 158.297 270.06 157.867 270.352 157.508C270.648 157.148 271 156.872 271.406 156.68C271.812 156.487 272.266 156.391 272.766 156.391C273.172 156.391 273.539 156.448 273.867 156.562C274.195 156.677 274.477 156.859 274.711 157.109C274.951 157.359 275.133 157.688 275.258 158.094C275.388 158.495 275.453 158.99 275.453 159.578V165H273.375V159.562C273.375 159.177 273.318 158.872 273.203 158.648C273.094 158.424 272.932 158.266 272.719 158.172C272.51 158.078 272.253 158.031 271.945 158.031C271.628 158.031 271.349 158.096 271.109 158.227C270.875 158.352 270.677 158.526 270.516 158.75C270.359 158.974 270.24 159.232 270.156 159.523C270.073 159.815 270.031 160.13 270.031 160.469ZM281.273 156.547V158.031H276.43V156.547H281.273ZM277.727 154.469H279.797V162.562C279.797 162.812 279.831 163.005 279.898 163.141C279.966 163.276 280.068 163.367 280.203 163.414C280.339 163.461 280.5 163.484 280.688 163.484C280.823 163.484 280.948 163.477 281.062 163.461C281.177 163.445 281.273 163.43 281.352 163.414L281.359 164.961C281.188 165.018 280.992 165.065 280.773 165.102C280.56 165.138 280.318 165.156 280.047 165.156C279.583 165.156 279.177 165.078 278.828 164.922C278.479 164.76 278.208 164.503 278.016 164.148C277.823 163.789 277.727 163.315 277.727 162.727V154.469ZM284.711 158.273V165H282.648V156.547H284.602L284.711 158.273ZM287.281 156.492L287.25 158.414C287.135 158.393 287.005 158.378 286.859 158.367C286.719 158.357 286.586 158.352 286.461 158.352C286.143 158.352 285.865 158.396 285.625 158.484C285.385 158.568 285.185 158.69 285.023 158.852C284.867 159.013 284.747 159.211 284.664 159.445C284.581 159.674 284.534 159.935 284.523 160.227L284.078 160.172C284.078 159.635 284.133 159.138 284.242 158.68C284.352 158.221 284.51 157.82 284.719 157.477C284.927 157.133 285.188 156.867 285.5 156.68C285.818 156.487 286.182 156.391 286.594 156.391C286.708 156.391 286.831 156.401 286.961 156.422C287.096 156.438 287.203 156.461 287.281 156.492ZM287.828 160.859V160.695C287.828 160.076 287.917 159.505 288.094 158.984C288.271 158.458 288.529 158.003 288.867 157.617C289.206 157.232 289.62 156.932 290.109 156.719C290.599 156.5 291.156 156.391 291.781 156.391C292.417 156.391 292.979 156.5 293.469 156.719C293.964 156.932 294.38 157.232 294.719 157.617C295.057 158.003 295.315 158.458 295.492 158.984C295.669 159.505 295.758 160.076 295.758 160.695V160.859C295.758 161.474 295.669 162.044 295.492 162.57C295.315 163.091 295.057 163.547 294.719 163.938C294.38 164.323 293.966 164.622 293.477 164.836C292.987 165.049 292.427 165.156 291.797 165.156C291.172 165.156 290.612 165.049 290.117 164.836C289.622 164.622 289.206 164.323 288.867 163.938C288.529 163.547 288.271 163.091 288.094 162.57C287.917 162.044 287.828 161.474 287.828 160.859ZM289.891 160.695V160.859C289.891 161.229 289.927 161.576 290 161.898C290.073 162.221 290.185 162.505 290.336 162.75C290.487 162.995 290.682 163.188 290.922 163.328C291.167 163.464 291.458 163.531 291.797 163.531C292.13 163.531 292.417 163.464 292.656 163.328C292.896 163.188 293.091 162.995 293.242 162.75C293.398 162.505 293.513 162.221 293.586 161.898C293.659 161.576 293.695 161.229 293.695 160.859V160.695C293.695 160.331 293.659 159.99 293.586 159.672C293.513 159.349 293.398 159.065 293.242 158.82C293.091 158.57 292.893 158.375 292.648 158.234C292.409 158.089 292.12 158.016 291.781 158.016C291.448 158.016 291.161 158.089 290.922 158.234C290.682 158.375 290.487 158.57 290.336 158.82C290.185 159.065 290.073 159.349 290 159.672C289.927 159.99 289.891 160.331 289.891 160.695ZM306.312 163.203V153H308.391V165H306.516L306.312 163.203ZM300.883 160.875V160.711C300.883 160.065 300.956 159.479 301.102 158.953C301.253 158.422 301.471 157.966 301.758 157.586C302.044 157.206 302.391 156.911 302.797 156.703C303.208 156.495 303.674 156.391 304.195 156.391C304.701 156.391 305.141 156.492 305.516 156.695C305.896 156.898 306.219 157.188 306.484 157.562C306.755 157.938 306.971 158.383 307.133 158.898C307.294 159.409 307.411 159.971 307.484 160.586V161.031C307.411 161.63 307.294 162.18 307.133 162.68C306.971 163.18 306.755 163.617 306.484 163.992C306.219 164.362 305.896 164.648 305.516 164.852C305.135 165.055 304.69 165.156 304.18 165.156C303.664 165.156 303.201 165.049 302.789 164.836C302.383 164.622 302.036 164.323 301.75 163.938C301.469 163.552 301.253 163.099 301.102 162.578C300.956 162.057 300.883 161.49 300.883 160.875ZM302.953 160.711V160.875C302.953 161.24 302.984 161.581 303.047 161.898C303.109 162.216 303.211 162.497 303.352 162.742C303.492 162.982 303.672 163.169 303.891 163.305C304.115 163.44 304.385 163.508 304.703 163.508C305.109 163.508 305.443 163.419 305.703 163.242C305.969 163.06 306.174 162.812 306.32 162.5C306.466 162.182 306.56 161.826 306.602 161.43V160.203C306.581 159.891 306.526 159.602 306.438 159.336C306.354 159.07 306.234 158.841 306.078 158.648C305.927 158.456 305.74 158.305 305.516 158.195C305.292 158.086 305.026 158.031 304.719 158.031C304.401 158.031 304.13 158.102 303.906 158.242C303.682 158.378 303.5 158.568 303.359 158.812C303.219 159.057 303.115 159.341 303.047 159.664C302.984 159.987 302.953 160.336 302.953 160.711ZM314.914 163.203V159.305C314.914 159.018 314.865 158.771 314.766 158.562C314.667 158.354 314.516 158.193 314.312 158.078C314.109 157.964 313.852 157.906 313.539 157.906C313.263 157.906 313.021 157.953 312.812 158.047C312.609 158.141 312.453 158.273 312.344 158.445C312.234 158.612 312.18 158.805 312.18 159.023H310.109C310.109 158.674 310.193 158.344 310.359 158.031C310.526 157.714 310.763 157.432 311.07 157.188C311.383 156.938 311.755 156.742 312.188 156.602C312.625 156.461 313.115 156.391 313.656 156.391C314.297 156.391 314.867 156.5 315.367 156.719C315.872 156.932 316.268 157.255 316.555 157.688C316.846 158.12 316.992 158.664 316.992 159.32V163.008C316.992 163.43 317.018 163.792 317.07 164.094C317.128 164.391 317.211 164.648 317.32 164.867V165H315.219C315.12 164.786 315.044 164.516 314.992 164.188C314.94 163.854 314.914 163.526 314.914 163.203ZM315.203 159.852L315.219 161.078H313.914C313.591 161.078 313.307 161.112 313.062 161.18C312.818 161.242 312.617 161.336 312.461 161.461C312.305 161.581 312.188 161.727 312.109 161.898C312.031 162.065 311.992 162.255 311.992 162.469C311.992 162.677 312.039 162.865 312.133 163.031C312.232 163.198 312.372 163.331 312.555 163.43C312.742 163.523 312.961 163.57 313.211 163.57C313.576 163.57 313.893 163.497 314.164 163.352C314.435 163.201 314.646 163.018 314.797 162.805C314.948 162.591 315.029 162.388 315.039 162.195L315.633 163.086C315.56 163.299 315.451 163.526 315.305 163.766C315.159 164.005 314.971 164.229 314.742 164.438C314.513 164.646 314.237 164.818 313.914 164.953C313.591 165.089 313.216 165.156 312.789 165.156C312.242 165.156 311.753 165.047 311.32 164.828C310.888 164.609 310.547 164.31 310.297 163.93C310.047 163.549 309.922 163.117 309.922 162.633C309.922 162.185 310.005 161.789 310.172 161.445C310.339 161.102 310.586 160.812 310.914 160.578C311.242 160.339 311.648 160.159 312.133 160.039C312.622 159.914 313.182 159.852 313.812 159.852H315.203ZM324.891 158.281V165H322.828V156.547H324.773L324.891 158.281ZM324.586 160.469H323.953C323.953 159.88 324.023 159.339 324.164 158.844C324.31 158.349 324.523 157.919 324.805 157.555C325.086 157.185 325.432 156.898 325.844 156.695C326.26 156.492 326.742 156.391 327.289 156.391C327.669 156.391 328.018 156.448 328.336 156.562C328.654 156.672 328.927 156.846 329.156 157.086C329.391 157.32 329.57 157.628 329.695 158.008C329.82 158.383 329.883 158.833 329.883 159.359V165H327.82V159.57C327.82 159.174 327.763 158.865 327.648 158.641C327.539 158.417 327.38 158.26 327.172 158.172C326.964 158.078 326.714 158.031 326.422 158.031C326.099 158.031 325.82 158.096 325.586 158.227C325.357 158.352 325.167 158.526 325.016 158.75C324.87 158.974 324.76 159.232 324.688 159.523C324.62 159.815 324.586 160.13 324.586 160.469ZM329.727 160.086L328.875 160.242C328.88 159.711 328.953 159.214 329.094 158.75C329.234 158.281 329.44 157.872 329.711 157.523C329.987 157.169 330.328 156.893 330.734 156.695C331.146 156.492 331.62 156.391 332.156 156.391C332.573 156.391 332.948 156.451 333.281 156.57C333.62 156.685 333.909 156.87 334.148 157.125C334.388 157.375 334.57 157.701 334.695 158.102C334.826 158.503 334.891 158.992 334.891 159.57V165H332.812V159.562C332.812 159.151 332.755 158.836 332.641 158.617C332.531 158.398 332.372 158.247 332.164 158.164C331.956 158.076 331.711 158.031 331.43 158.031C331.143 158.031 330.893 158.086 330.68 158.195C330.471 158.299 330.294 158.445 330.148 158.633C330.008 158.82 329.901 159.039 329.828 159.289C329.76 159.534 329.727 159.799 329.727 160.086ZM341.398 163.203V159.305C341.398 159.018 341.349 158.771 341.25 158.562C341.151 158.354 341 158.193 340.797 158.078C340.594 157.964 340.336 157.906 340.023 157.906C339.747 157.906 339.505 157.953 339.297 158.047C339.094 158.141 338.938 158.273 338.828 158.445C338.719 158.612 338.664 158.805 338.664 159.023H336.594C336.594 158.674 336.677 158.344 336.844 158.031C337.01 157.714 337.247 157.432 337.555 157.188C337.867 156.938 338.24 156.742 338.672 156.602C339.109 156.461 339.599 156.391 340.141 156.391C340.781 156.391 341.352 156.5 341.852 156.719C342.357 156.932 342.753 157.255 343.039 157.688C343.331 158.12 343.477 158.664 343.477 159.32V163.008C343.477 163.43 343.503 163.792 343.555 164.094C343.612 164.391 343.695 164.648 343.805 164.867V165H341.703C341.604 164.786 341.529 164.516 341.477 164.188C341.424 163.854 341.398 163.526 341.398 163.203ZM341.688 159.852L341.703 161.078H340.398C340.076 161.078 339.792 161.112 339.547 161.18C339.302 161.242 339.102 161.336 338.945 161.461C338.789 161.581 338.672 161.727 338.594 161.898C338.516 162.065 338.477 162.255 338.477 162.469C338.477 162.677 338.523 162.865 338.617 163.031C338.716 163.198 338.857 163.331 339.039 163.43C339.227 163.523 339.445 163.57 339.695 163.57C340.06 163.57 340.378 163.497 340.648 163.352C340.919 163.201 341.13 163.018 341.281 162.805C341.432 162.591 341.513 162.388 341.523 162.195L342.117 163.086C342.044 163.299 341.935 163.526 341.789 163.766C341.643 164.005 341.456 164.229 341.227 164.438C340.997 164.646 340.721 164.818 340.398 164.953C340.076 165.089 339.701 165.156 339.273 165.156C338.727 165.156 338.237 165.047 337.805 164.828C337.372 164.609 337.031 164.31 336.781 163.93C336.531 163.549 336.406 163.117 336.406 162.633C336.406 162.185 336.49 161.789 336.656 161.445C336.823 161.102 337.07 160.812 337.398 160.578C337.727 160.339 338.133 160.159 338.617 160.039C339.107 159.914 339.667 159.852 340.297 159.852H341.688ZM347.398 158.273V165H345.336V156.547H347.289L347.398 158.273ZM349.969 156.492L349.938 158.414C349.823 158.393 349.693 158.378 349.547 158.367C349.406 158.357 349.273 158.352 349.148 158.352C348.831 158.352 348.552 158.396 348.312 158.484C348.073 158.568 347.872 158.69 347.711 158.852C347.555 159.013 347.435 159.211 347.352 159.445C347.268 159.674 347.221 159.935 347.211 160.227L346.766 160.172C346.766 159.635 346.82 159.138 346.93 158.68C347.039 158.221 347.198 157.82 347.406 157.477C347.615 157.133 347.875 156.867 348.188 156.68C348.505 156.487 348.87 156.391 349.281 156.391C349.396 156.391 349.518 156.401 349.648 156.422C349.784 156.438 349.891 156.461 349.969 156.492ZM354.414 163.531C354.706 163.531 354.966 163.474 355.195 163.359C355.424 163.245 355.607 163.083 355.742 162.875C355.883 162.667 355.958 162.424 355.969 162.148H357.914C357.904 162.721 357.742 163.234 357.43 163.688C357.117 164.141 356.701 164.5 356.18 164.766C355.664 165.026 355.086 165.156 354.445 165.156C353.794 165.156 353.227 165.047 352.742 164.828C352.258 164.609 351.854 164.305 351.531 163.914C351.214 163.523 350.974 163.07 350.812 162.555C350.656 162.039 350.578 161.487 350.578 160.898V160.648C350.578 160.06 350.656 159.508 350.812 158.992C350.974 158.477 351.214 158.023 351.531 157.633C351.854 157.242 352.258 156.938 352.742 156.719C353.227 156.5 353.792 156.391 354.438 156.391C355.12 156.391 355.719 156.523 356.234 156.789C356.755 157.055 357.161 157.43 357.453 157.914C357.75 158.398 357.904 158.969 357.914 159.625H355.969C355.958 159.323 355.891 159.052 355.766 158.812C355.641 158.573 355.464 158.38 355.234 158.234C355.005 158.089 354.727 158.016 354.398 158.016C354.049 158.016 353.758 158.089 353.523 158.234C353.294 158.38 353.115 158.581 352.984 158.836C352.859 159.086 352.771 159.367 352.719 159.68C352.672 159.987 352.648 160.31 352.648 160.648V160.898C352.648 161.242 352.672 161.57 352.719 161.883C352.771 162.195 352.859 162.477 352.984 162.727C353.115 162.971 353.294 163.167 353.523 163.312C353.758 163.458 354.055 163.531 354.414 163.531ZM363.945 163.203V159.305C363.945 159.018 363.896 158.771 363.797 158.562C363.698 158.354 363.547 158.193 363.344 158.078C363.141 157.964 362.883 157.906 362.57 157.906C362.294 157.906 362.052 157.953 361.844 158.047C361.641 158.141 361.484 158.273 361.375 158.445C361.266 158.612 361.211 158.805 361.211 159.023H359.141C359.141 158.674 359.224 158.344 359.391 158.031C359.557 157.714 359.794 157.432 360.102 157.188C360.414 156.938 360.786 156.742 361.219 156.602C361.656 156.461 362.146 156.391 362.688 156.391C363.328 156.391 363.898 156.5 364.398 156.719C364.904 156.932 365.299 157.255 365.586 157.688C365.878 158.12 366.023 158.664 366.023 159.32V163.008C366.023 163.43 366.049 163.792 366.102 164.094C366.159 164.391 366.242 164.648 366.352 164.867V165H364.25C364.151 164.786 364.076 164.516 364.023 164.188C363.971 163.854 363.945 163.526 363.945 163.203ZM364.234 159.852L364.25 161.078H362.945C362.622 161.078 362.339 161.112 362.094 161.18C361.849 161.242 361.648 161.336 361.492 161.461C361.336 161.581 361.219 161.727 361.141 161.898C361.062 162.065 361.023 162.255 361.023 162.469C361.023 162.677 361.07 162.865 361.164 163.031C361.263 163.198 361.404 163.331 361.586 163.43C361.773 163.523 361.992 163.57 362.242 163.57C362.607 163.57 362.924 163.497 363.195 163.352C363.466 163.201 363.677 163.018 363.828 162.805C363.979 162.591 364.06 162.388 364.07 162.195L364.664 163.086C364.591 163.299 364.482 163.526 364.336 163.766C364.19 164.005 364.003 164.229 363.773 164.438C363.544 164.646 363.268 164.818 362.945 164.953C362.622 165.089 362.247 165.156 361.82 165.156C361.273 165.156 360.784 165.047 360.352 164.828C359.919 164.609 359.578 164.31 359.328 163.93C359.078 163.549 358.953 163.117 358.953 162.633C358.953 162.185 359.036 161.789 359.203 161.445C359.37 161.102 359.617 160.812 359.945 160.578C360.273 160.339 360.68 160.159 361.164 160.039C361.654 159.914 362.214 159.852 362.844 159.852H364.234ZM371.352 163.531C371.643 163.531 371.904 163.474 372.133 163.359C372.362 163.245 372.544 163.083 372.68 162.875C372.82 162.667 372.896 162.424 372.906 162.148H374.852C374.841 162.721 374.68 163.234 374.367 163.688C374.055 164.141 373.638 164.5 373.117 164.766C372.602 165.026 372.023 165.156 371.383 165.156C370.732 165.156 370.164 165.047 369.68 164.828C369.195 164.609 368.792 164.305 368.469 163.914C368.151 163.523 367.911 163.07 367.75 162.555C367.594 162.039 367.516 161.487 367.516 160.898V160.648C367.516 160.06 367.594 159.508 367.75 158.992C367.911 158.477 368.151 158.023 368.469 157.633C368.792 157.242 369.195 156.938 369.68 156.719C370.164 156.5 370.729 156.391 371.375 156.391C372.057 156.391 372.656 156.523 373.172 156.789C373.693 157.055 374.099 157.43 374.391 157.914C374.688 158.398 374.841 158.969 374.852 159.625H372.906C372.896 159.323 372.828 159.052 372.703 158.812C372.578 158.573 372.401 158.38 372.172 158.234C371.943 158.089 371.664 158.016 371.336 158.016C370.987 158.016 370.695 158.089 370.461 158.234C370.232 158.38 370.052 158.581 369.922 158.836C369.797 159.086 369.708 159.367 369.656 159.68C369.609 159.987 369.586 160.31 369.586 160.648V160.898C369.586 161.242 369.609 161.57 369.656 161.883C369.708 162.195 369.797 162.477 369.922 162.727C370.052 162.971 370.232 163.167 370.461 163.312C370.695 163.458 370.992 163.531 371.352 163.531ZM370.516 165H372.055L371.969 165.445C372.266 165.497 372.536 165.622 372.781 165.82C373.026 166.018 373.148 166.344 373.148 166.797C373.148 167.068 373.091 167.312 372.977 167.531C372.867 167.75 372.701 167.938 372.477 168.094C372.253 168.255 371.974 168.378 371.641 168.461C371.312 168.544 370.93 168.586 370.492 168.586L370.438 167.43C370.625 167.43 370.792 167.406 370.938 167.359C371.089 167.312 371.206 167.237 371.289 167.133C371.378 167.034 371.422 166.906 371.422 166.75C371.422 166.594 371.383 166.471 371.305 166.383C371.227 166.299 371.102 166.234 370.93 166.188C370.763 166.146 370.544 166.117 370.273 166.102L370.516 165ZM380.883 163.203V159.305C380.883 159.018 380.833 158.771 380.734 158.562C380.635 158.354 380.484 158.193 380.281 158.078C380.078 157.964 379.82 157.906 379.508 157.906C379.232 157.906 378.99 157.953 378.781 158.047C378.578 158.141 378.422 158.273 378.312 158.445C378.203 158.612 378.148 158.805 378.148 159.023H376.078C376.078 158.674 376.161 158.344 376.328 158.031C376.495 157.714 376.732 157.432 377.039 157.188C377.352 156.938 377.724 156.742 378.156 156.602C378.594 156.461 379.083 156.391 379.625 156.391C380.266 156.391 380.836 156.5 381.336 156.719C381.841 156.932 382.237 157.255 382.523 157.688C382.815 158.12 382.961 158.664 382.961 159.32V163.008C382.961 163.43 382.987 163.792 383.039 164.094C383.096 164.391 383.18 164.648 383.289 164.867V165H381.188C381.089 164.786 381.013 164.516 380.961 164.188C380.909 163.854 380.883 163.526 380.883 163.203ZM381.172 159.852L381.188 161.078H379.883C379.56 161.078 379.276 161.112 379.031 161.18C378.786 161.242 378.586 161.336 378.43 161.461C378.273 161.581 378.156 161.727 378.078 161.898C378 162.065 377.961 162.255 377.961 162.469C377.961 162.677 378.008 162.865 378.102 163.031C378.201 163.198 378.341 163.331 378.523 163.43C378.711 163.523 378.93 163.57 379.18 163.57C379.544 163.57 379.862 163.497 380.133 163.352C380.404 163.201 380.615 163.018 380.766 162.805C380.917 162.591 380.997 162.388 381.008 162.195L381.602 163.086C381.529 163.299 381.419 163.526 381.273 163.766C381.128 164.005 380.94 164.229 380.711 164.438C380.482 164.646 380.206 164.818 379.883 164.953C379.56 165.089 379.185 165.156 378.758 165.156C378.211 165.156 377.721 165.047 377.289 164.828C376.857 164.609 376.516 164.31 376.266 163.93C376.016 163.549 375.891 163.117 375.891 162.633C375.891 162.185 375.974 161.789 376.141 161.445C376.307 161.102 376.555 160.812 376.883 160.578C377.211 160.339 377.617 160.159 378.102 160.039C378.591 159.914 379.151 159.852 379.781 159.852H381.172ZM381.328 153.07L382.555 153.156C382.555 153.536 382.477 153.88 382.32 154.188C382.169 154.49 381.964 154.729 381.703 154.906C381.443 155.083 381.143 155.172 380.805 155.172C380.555 155.172 380.339 155.138 380.156 155.07C379.979 155.003 379.815 154.922 379.664 154.828C379.518 154.734 379.367 154.654 379.211 154.586C379.055 154.513 378.872 154.477 378.664 154.477C378.477 154.477 378.315 154.547 378.18 154.688C378.049 154.828 377.984 155.018 377.984 155.258L376.75 155.195C376.75 154.82 376.826 154.479 376.977 154.172C377.128 153.865 377.333 153.62 377.594 153.438C377.859 153.255 378.161 153.164 378.5 153.164C378.714 153.164 378.906 153.198 379.078 153.266C379.255 153.333 379.424 153.414 379.586 153.508C379.747 153.596 379.911 153.677 380.078 153.75C380.25 153.818 380.435 153.852 380.633 153.852C380.826 153.852 380.99 153.781 381.125 153.641C381.26 153.5 381.328 153.31 381.328 153.07ZM384.453 160.859V160.695C384.453 160.076 384.542 159.505 384.719 158.984C384.896 158.458 385.154 158.003 385.492 157.617C385.831 157.232 386.245 156.932 386.734 156.719C387.224 156.5 387.781 156.391 388.406 156.391C389.042 156.391 389.604 156.5 390.094 156.719C390.589 156.932 391.005 157.232 391.344 157.617C391.682 158.003 391.94 158.458 392.117 158.984C392.294 159.505 392.383 160.076 392.383 160.695V160.859C392.383 161.474 392.294 162.044 392.117 162.57C391.94 163.091 391.682 163.547 391.344 163.938C391.005 164.323 390.591 164.622 390.102 164.836C389.612 165.049 389.052 165.156 388.422 165.156C387.797 165.156 387.237 165.049 386.742 164.836C386.247 164.622 385.831 164.323 385.492 163.938C385.154 163.547 384.896 163.091 384.719 162.57C384.542 162.044 384.453 161.474 384.453 160.859ZM386.516 160.695V160.859C386.516 161.229 386.552 161.576 386.625 161.898C386.698 162.221 386.81 162.505 386.961 162.75C387.112 162.995 387.307 163.188 387.547 163.328C387.792 163.464 388.083 163.531 388.422 163.531C388.755 163.531 389.042 163.464 389.281 163.328C389.521 163.188 389.716 162.995 389.867 162.75C390.023 162.505 390.138 162.221 390.211 161.898C390.284 161.576 390.32 161.229 390.32 160.859V160.695C390.32 160.331 390.284 159.99 390.211 159.672C390.138 159.349 390.023 159.065 389.867 158.82C389.716 158.57 389.518 158.375 389.273 158.234C389.034 158.089 388.745 158.016 388.406 158.016C388.073 158.016 387.786 158.089 387.547 158.234C387.307 158.375 387.112 158.57 386.961 158.82C386.81 159.065 386.698 159.349 386.625 159.672C386.552 159.99 386.516 160.331 386.516 160.695ZM393.969 163.992C393.969 163.68 394.076 163.417 394.289 163.203C394.503 162.99 394.792 162.883 395.156 162.883C395.521 162.883 395.81 162.99 396.023 163.203C396.237 163.417 396.344 163.68 396.344 163.992C396.344 164.299 396.237 164.56 396.023 164.773C395.81 164.982 395.521 165.086 395.156 165.086C394.792 165.086 394.503 164.982 394.289 164.773C394.076 164.56 393.969 164.299 393.969 163.992Z" fill="white"/>
</svg>
