<svg width="475" height="812" viewBox="0 0 475 812" fill="none" xmlns="http://www.w3.org/2000/svg">
<path opacity="0.95" fill-rule="evenodd" clip-rule="evenodd" d="M475 0H0V812H475V0ZM238 224C163.442 224 103 284.442 103 359V453C103 527.558 163.442 588 238 588C312.558 588 373 527.558 373 453V359C373 284.442 312.558 224 238 224Z" fill="#4A4A4A" fill-opacity="0.85"/>
<path d="M96.4609 160.852H93.5312V159.164H96.4609C96.9401 159.164 97.3281 159.086 97.625 158.93C97.9271 158.768 98.1484 158.549 98.2891 158.273C98.4297 157.992 98.5 157.672 98.5 157.312C98.5 156.964 98.4297 156.638 98.2891 156.336C98.1484 156.034 97.9271 155.789 97.625 155.602C97.3281 155.414 96.9401 155.32 96.4609 155.32H94.2344V165H92.0859V153.625H96.4609C97.3464 153.625 98.1016 153.784 98.7266 154.102C99.3568 154.414 99.8359 154.849 100.164 155.406C100.497 155.958 100.664 156.589 100.664 157.297C100.664 158.031 100.497 158.664 100.164 159.195C99.8359 159.727 99.3568 160.135 98.7266 160.422C98.1016 160.708 97.3464 160.852 96.4609 160.852ZM101.719 160.859V160.695C101.719 160.076 101.807 159.505 101.984 158.984C102.161 158.458 102.419 158.003 102.758 157.617C103.096 157.232 103.51 156.932 104 156.719C104.49 156.5 105.047 156.391 105.672 156.391C106.307 156.391 106.87 156.5 107.359 156.719C107.854 156.932 108.271 157.232 108.609 157.617C108.948 158.003 109.206 158.458 109.383 158.984C109.56 159.505 109.648 160.076 109.648 160.695V160.859C109.648 161.474 109.56 162.044 109.383 162.57C109.206 163.091 108.948 163.547 108.609 163.938C108.271 164.323 107.857 164.622 107.367 164.836C106.878 165.049 106.318 165.156 105.688 165.156C105.062 165.156 104.503 165.049 104.008 164.836C103.513 164.622 103.096 164.323 102.758 163.938C102.419 163.547 102.161 163.091 101.984 162.57C101.807 162.044 101.719 161.474 101.719 160.859ZM103.781 160.695V160.859C103.781 161.229 103.818 161.576 103.891 161.898C103.964 162.221 104.076 162.505 104.227 162.75C104.378 162.995 104.573 163.188 104.812 163.328C105.057 163.464 105.349 163.531 105.688 163.531C106.021 163.531 106.307 163.464 106.547 163.328C106.786 163.188 106.982 162.995 107.133 162.75C107.289 162.505 107.404 162.221 107.477 161.898C107.549 161.576 107.586 161.229 107.586 160.859V160.695C107.586 160.331 107.549 159.99 107.477 159.672C107.404 159.349 107.289 159.065 107.133 158.82C106.982 158.57 106.784 158.375 106.539 158.234C106.299 158.089 106.01 158.016 105.672 158.016C105.339 158.016 105.052 158.089 104.812 158.234C104.573 158.375 104.378 158.57 104.227 158.82C104.076 159.065 103.964 159.349 103.891 159.672C103.818 159.99 103.781 160.331 103.781 160.695ZM115.797 162.688C115.797 162.51 115.75 162.352 115.656 162.211C115.562 162.07 115.385 161.943 115.125 161.828C114.87 161.708 114.495 161.596 114 161.492C113.562 161.398 113.159 161.281 112.789 161.141C112.419 161 112.102 160.831 111.836 160.633C111.57 160.43 111.362 160.193 111.211 159.922C111.065 159.646 110.992 159.328 110.992 158.969C110.992 158.62 111.068 158.292 111.219 157.984C111.37 157.672 111.589 157.398 111.875 157.164C112.161 156.924 112.51 156.737 112.922 156.602C113.333 156.461 113.797 156.391 114.312 156.391C115.031 156.391 115.648 156.508 116.164 156.742C116.685 156.977 117.083 157.299 117.359 157.711C117.635 158.117 117.773 158.576 117.773 159.086H115.711C115.711 158.862 115.659 158.659 115.555 158.477C115.456 158.294 115.302 158.148 115.094 158.039C114.885 157.924 114.622 157.867 114.305 157.867C114.018 157.867 113.776 157.914 113.578 158.008C113.385 158.102 113.24 158.224 113.141 158.375C113.042 158.526 112.992 158.693 112.992 158.875C112.992 159.01 113.018 159.133 113.07 159.242C113.128 159.346 113.219 159.443 113.344 159.531C113.469 159.62 113.638 159.701 113.852 159.773C114.07 159.846 114.339 159.917 114.656 159.984C115.286 160.109 115.836 160.276 116.305 160.484C116.779 160.688 117.148 160.958 117.414 161.297C117.68 161.635 117.812 162.068 117.812 162.594C117.812 162.969 117.732 163.312 117.57 163.625C117.409 163.932 117.174 164.201 116.867 164.43C116.56 164.659 116.193 164.839 115.766 164.969C115.339 165.094 114.857 165.156 114.32 165.156C113.544 165.156 112.888 165.018 112.352 164.742C111.815 164.461 111.409 164.107 111.133 163.68C110.857 163.247 110.719 162.799 110.719 162.336H112.695C112.711 162.664 112.799 162.927 112.961 163.125C113.122 163.323 113.326 163.466 113.57 163.555C113.82 163.638 114.083 163.68 114.359 163.68C114.672 163.68 114.935 163.638 115.148 163.555C115.362 163.466 115.523 163.349 115.633 163.203C115.742 163.052 115.797 162.88 115.797 162.688ZM121.57 156.547V165H119.5V156.547H121.57ZM119.359 154.336C119.359 154.029 119.464 153.773 119.672 153.57C119.885 153.367 120.172 153.266 120.531 153.266C120.891 153.266 121.174 153.367 121.383 153.57C121.596 153.773 121.703 154.029 121.703 154.336C121.703 154.638 121.596 154.891 121.383 155.094C121.174 155.297 120.891 155.398 120.531 155.398C120.172 155.398 119.885 155.297 119.672 155.094C119.464 154.891 119.359 154.638 119.359 154.336ZM127.008 163.531C127.299 163.531 127.56 163.474 127.789 163.359C128.018 163.245 128.201 163.083 128.336 162.875C128.477 162.667 128.552 162.424 128.562 162.148H130.508C130.497 162.721 130.336 163.234 130.023 163.688C129.711 164.141 129.294 164.5 128.773 164.766C128.258 165.026 127.68 165.156 127.039 165.156C126.388 165.156 125.82 165.047 125.336 164.828C124.852 164.609 124.448 164.305 124.125 163.914C123.807 163.523 123.568 163.07 123.406 162.555C123.25 162.039 123.172 161.487 123.172 160.898V160.648C123.172 160.06 123.25 159.508 123.406 158.992C123.568 158.477 123.807 158.023 124.125 157.633C124.448 157.242 124.852 156.938 125.336 156.719C125.82 156.5 126.385 156.391 127.031 156.391C127.714 156.391 128.312 156.523 128.828 156.789C129.349 157.055 129.755 157.43 130.047 157.914C130.344 158.398 130.497 158.969 130.508 159.625H128.562C128.552 159.323 128.484 159.052 128.359 158.812C128.234 158.573 128.057 158.38 127.828 158.234C127.599 158.089 127.32 158.016 126.992 158.016C126.643 158.016 126.352 158.089 126.117 158.234C125.888 158.38 125.708 158.581 125.578 158.836C125.453 159.086 125.365 159.367 125.312 159.68C125.266 159.987 125.242 160.31 125.242 160.648V160.898C125.242 161.242 125.266 161.57 125.312 161.883C125.365 162.195 125.453 162.477 125.578 162.727C125.708 162.971 125.888 163.167 126.117 163.312C126.352 163.458 126.648 163.531 127.008 163.531ZM134.07 156.547V165H132V156.547H134.07ZM131.859 154.336C131.859 154.029 131.964 153.773 132.172 153.57C132.385 153.367 132.672 153.266 133.031 153.266C133.391 153.266 133.674 153.367 133.883 153.57C134.096 153.773 134.203 154.029 134.203 154.336C134.203 154.638 134.096 154.891 133.883 155.094C133.674 155.297 133.391 155.398 133.031 155.398C132.672 155.398 132.385 155.297 132.172 155.094C131.964 154.891 131.859 154.638 131.859 154.336ZM135.672 160.859V160.695C135.672 160.076 135.76 159.505 135.938 158.984C136.115 158.458 136.372 158.003 136.711 157.617C137.049 157.232 137.464 156.932 137.953 156.719C138.443 156.5 139 156.391 139.625 156.391C140.26 156.391 140.823 156.5 141.312 156.719C141.807 156.932 142.224 157.232 142.562 157.617C142.901 158.003 143.159 158.458 143.336 158.984C143.513 159.505 143.602 160.076 143.602 160.695V160.859C143.602 161.474 143.513 162.044 143.336 162.57C143.159 163.091 142.901 163.547 142.562 163.938C142.224 164.323 141.81 164.622 141.32 164.836C140.831 165.049 140.271 165.156 139.641 165.156C139.016 165.156 138.456 165.049 137.961 164.836C137.466 164.622 137.049 164.323 136.711 163.938C136.372 163.547 136.115 163.091 135.938 162.57C135.76 162.044 135.672 161.474 135.672 160.859ZM137.734 160.695V160.859C137.734 161.229 137.771 161.576 137.844 161.898C137.917 162.221 138.029 162.505 138.18 162.75C138.331 162.995 138.526 163.188 138.766 163.328C139.01 163.464 139.302 163.531 139.641 163.531C139.974 163.531 140.26 163.464 140.5 163.328C140.74 163.188 140.935 162.995 141.086 162.75C141.242 162.505 141.357 162.221 141.43 161.898C141.503 161.576 141.539 161.229 141.539 160.859V160.695C141.539 160.331 141.503 159.99 141.43 159.672C141.357 159.349 141.242 159.065 141.086 158.82C140.935 158.57 140.737 158.375 140.492 158.234C140.253 158.089 139.964 158.016 139.625 158.016C139.292 158.016 139.005 158.089 138.766 158.234C138.526 158.375 138.331 158.57 138.18 158.82C138.029 159.065 137.917 159.349 137.844 159.672C137.771 159.99 137.734 160.331 137.734 160.695ZM147.125 158.352V165H145.062V156.547H147L147.125 158.352ZM146.797 160.469H146.188C146.193 159.854 146.276 159.297 146.438 158.797C146.599 158.297 146.826 157.867 147.117 157.508C147.414 157.148 147.766 156.872 148.172 156.68C148.578 156.487 149.031 156.391 149.531 156.391C149.938 156.391 150.305 156.448 150.633 156.562C150.961 156.677 151.242 156.859 151.477 157.109C151.716 157.359 151.898 157.688 152.023 158.094C152.154 158.495 152.219 158.99 152.219 159.578V165H150.141V159.562C150.141 159.177 150.083 158.872 149.969 158.648C149.859 158.424 149.698 158.266 149.484 158.172C149.276 158.078 149.018 158.031 148.711 158.031C148.393 158.031 148.115 158.096 147.875 158.227C147.641 158.352 147.443 158.526 147.281 158.75C147.125 158.974 147.005 159.232 146.922 159.523C146.839 159.815 146.797 160.13 146.797 160.469ZM157.836 165.156C157.195 165.156 156.62 165.052 156.109 164.844C155.599 164.635 155.164 164.346 154.805 163.977C154.451 163.602 154.177 163.167 153.984 162.672C153.797 162.172 153.703 161.635 153.703 161.062V160.75C153.703 160.099 153.797 159.508 153.984 158.977C154.172 158.44 154.438 157.979 154.781 157.594C155.125 157.208 155.536 156.911 156.016 156.703C156.495 156.495 157.023 156.391 157.602 156.391C158.201 156.391 158.729 156.492 159.188 156.695C159.646 156.893 160.029 157.174 160.336 157.539C160.643 157.904 160.875 158.341 161.031 158.852C161.188 159.357 161.266 159.917 161.266 160.531V161.398H154.641V159.977H159.234V159.82C159.224 159.492 159.161 159.193 159.047 158.922C158.932 158.646 158.755 158.427 158.516 158.266C158.276 158.099 157.966 158.016 157.586 158.016C157.279 158.016 157.01 158.083 156.781 158.219C156.557 158.349 156.37 158.536 156.219 158.781C156.073 159.021 155.964 159.307 155.891 159.641C155.818 159.974 155.781 160.344 155.781 160.75V161.062C155.781 161.417 155.828 161.745 155.922 162.047C156.021 162.349 156.164 162.612 156.352 162.836C156.544 163.055 156.773 163.227 157.039 163.352C157.31 163.471 157.617 163.531 157.961 163.531C158.393 163.531 158.784 163.448 159.133 163.281C159.487 163.109 159.794 162.857 160.055 162.523L161.094 163.602C160.917 163.862 160.677 164.112 160.375 164.352C160.078 164.591 159.719 164.786 159.297 164.938C158.875 165.083 158.388 165.156 157.836 165.156ZM171.281 162.688C171.281 162.51 171.234 162.352 171.141 162.211C171.047 162.07 170.87 161.943 170.609 161.828C170.354 161.708 169.979 161.596 169.484 161.492C169.047 161.398 168.643 161.281 168.273 161.141C167.904 161 167.586 160.831 167.32 160.633C167.055 160.43 166.846 160.193 166.695 159.922C166.549 159.646 166.477 159.328 166.477 158.969C166.477 158.62 166.552 158.292 166.703 157.984C166.854 157.672 167.073 157.398 167.359 157.164C167.646 156.924 167.995 156.737 168.406 156.602C168.818 156.461 169.281 156.391 169.797 156.391C170.516 156.391 171.133 156.508 171.648 156.742C172.169 156.977 172.568 157.299 172.844 157.711C173.12 158.117 173.258 158.576 173.258 159.086H171.195C171.195 158.862 171.143 158.659 171.039 158.477C170.94 158.294 170.786 158.148 170.578 158.039C170.37 157.924 170.107 157.867 169.789 157.867C169.503 157.867 169.26 157.914 169.062 158.008C168.87 158.102 168.724 158.224 168.625 158.375C168.526 158.526 168.477 158.693 168.477 158.875C168.477 159.01 168.503 159.133 168.555 159.242C168.612 159.346 168.703 159.443 168.828 159.531C168.953 159.62 169.122 159.701 169.336 159.773C169.555 159.846 169.823 159.917 170.141 159.984C170.771 160.109 171.32 160.276 171.789 160.484C172.263 160.688 172.633 160.958 172.898 161.297C173.164 161.635 173.297 162.068 173.297 162.594C173.297 162.969 173.216 163.312 173.055 163.625C172.893 163.932 172.659 164.201 172.352 164.43C172.044 164.659 171.677 164.839 171.25 164.969C170.823 165.094 170.341 165.156 169.805 165.156C169.029 165.156 168.372 165.018 167.836 164.742C167.299 164.461 166.893 164.107 166.617 163.68C166.341 163.247 166.203 162.799 166.203 162.336H168.18C168.195 162.664 168.284 162.927 168.445 163.125C168.607 163.323 168.81 163.466 169.055 163.555C169.305 163.638 169.568 163.68 169.844 163.68C170.156 163.68 170.419 163.638 170.633 163.555C170.846 163.466 171.008 163.349 171.117 163.203C171.227 163.052 171.281 162.88 171.281 162.688ZM178.664 165.156C178.023 165.156 177.448 165.052 176.938 164.844C176.427 164.635 175.992 164.346 175.633 163.977C175.279 163.602 175.005 163.167 174.812 162.672C174.625 162.172 174.531 161.635 174.531 161.062V160.75C174.531 160.099 174.625 159.508 174.812 158.977C175 158.44 175.266 157.979 175.609 157.594C175.953 157.208 176.365 156.911 176.844 156.703C177.323 156.495 177.852 156.391 178.43 156.391C179.029 156.391 179.557 156.492 180.016 156.695C180.474 156.893 180.857 157.174 181.164 157.539C181.471 157.904 181.703 158.341 181.859 158.852C182.016 159.357 182.094 159.917 182.094 160.531V161.398H175.469V159.977H180.062V159.82C180.052 159.492 179.99 159.193 179.875 158.922C179.76 158.646 179.583 158.427 179.344 158.266C179.104 158.099 178.794 158.016 178.414 158.016C178.107 158.016 177.839 158.083 177.609 158.219C177.385 158.349 177.198 158.536 177.047 158.781C176.901 159.021 176.792 159.307 176.719 159.641C176.646 159.974 176.609 160.344 176.609 160.75V161.062C176.609 161.417 176.656 161.745 176.75 162.047C176.849 162.349 176.992 162.612 177.18 162.836C177.372 163.055 177.602 163.227 177.867 163.352C178.138 163.471 178.445 163.531 178.789 163.531C179.221 163.531 179.612 163.448 179.961 163.281C180.315 163.109 180.622 162.857 180.883 162.523L181.922 163.602C181.745 163.862 181.505 164.112 181.203 164.352C180.906 164.591 180.547 164.786 180.125 164.938C179.703 165.083 179.216 165.156 178.664 165.156ZM188.508 162.992V156.547H190.586V165H188.633L188.508 162.992ZM188.773 161.242L189.414 161.227C189.414 161.794 189.352 162.318 189.227 162.797C189.102 163.276 188.906 163.693 188.641 164.047C188.38 164.396 188.049 164.669 187.648 164.867C187.247 165.06 186.773 165.156 186.227 165.156C185.81 165.156 185.43 165.099 185.086 164.984C184.742 164.865 184.445 164.68 184.195 164.43C183.951 164.174 183.76 163.849 183.625 163.453C183.49 163.052 183.422 162.57 183.422 162.008V156.547H185.484V162.023C185.484 162.305 185.516 162.539 185.578 162.727C185.646 162.914 185.737 163.068 185.852 163.188C185.971 163.302 186.109 163.385 186.266 163.438C186.427 163.484 186.599 163.508 186.781 163.508C187.281 163.508 187.674 163.409 187.961 163.211C188.253 163.008 188.461 162.737 188.586 162.398C188.711 162.055 188.773 161.669 188.773 161.242ZM198.461 158.273V165H196.398V156.547H198.352L198.461 158.273ZM201.031 156.492L201 158.414C200.885 158.393 200.755 158.378 200.609 158.367C200.469 158.357 200.336 158.352 200.211 158.352C199.893 158.352 199.615 158.396 199.375 158.484C199.135 158.568 198.935 158.69 198.773 158.852C198.617 159.013 198.497 159.211 198.414 159.445C198.331 159.674 198.284 159.935 198.273 160.227L197.828 160.172C197.828 159.635 197.883 159.138 197.992 158.68C198.102 158.221 198.26 157.82 198.469 157.477C198.677 157.133 198.938 156.867 199.25 156.68C199.568 156.487 199.932 156.391 200.344 156.391C200.458 156.391 200.581 156.401 200.711 156.422C200.846 156.438 200.953 156.461 201.031 156.492ZM201.578 160.859V160.695C201.578 160.076 201.667 159.505 201.844 158.984C202.021 158.458 202.279 158.003 202.617 157.617C202.956 157.232 203.37 156.932 203.859 156.719C204.349 156.5 204.906 156.391 205.531 156.391C206.167 156.391 206.729 156.5 207.219 156.719C207.714 156.932 208.13 157.232 208.469 157.617C208.807 158.003 209.065 158.458 209.242 158.984C209.419 159.505 209.508 160.076 209.508 160.695V160.859C209.508 161.474 209.419 162.044 209.242 162.57C209.065 163.091 208.807 163.547 208.469 163.938C208.13 164.323 207.716 164.622 207.227 164.836C206.737 165.049 206.177 165.156 205.547 165.156C204.922 165.156 204.362 165.049 203.867 164.836C203.372 164.622 202.956 164.323 202.617 163.938C202.279 163.547 202.021 163.091 201.844 162.57C201.667 162.044 201.578 161.474 201.578 160.859ZM203.641 160.695V160.859C203.641 161.229 203.677 161.576 203.75 161.898C203.823 162.221 203.935 162.505 204.086 162.75C204.237 162.995 204.432 163.188 204.672 163.328C204.917 163.464 205.208 163.531 205.547 163.531C205.88 163.531 206.167 163.464 206.406 163.328C206.646 163.188 206.841 162.995 206.992 162.75C207.148 162.505 207.263 162.221 207.336 161.898C207.409 161.576 207.445 161.229 207.445 160.859V160.695C207.445 160.331 207.409 159.99 207.336 159.672C207.263 159.349 207.148 159.065 206.992 158.82C206.841 158.57 206.643 158.375 206.398 158.234C206.159 158.089 205.87 158.016 205.531 158.016C205.198 158.016 204.911 158.089 204.672 158.234C204.432 158.375 204.237 158.57 204.086 158.82C203.935 159.065 203.823 159.349 203.75 159.672C203.677 159.99 203.641 160.331 203.641 160.695ZM215.656 162.688C215.656 162.51 215.609 162.352 215.516 162.211C215.422 162.07 215.245 161.943 214.984 161.828C214.729 161.708 214.354 161.596 213.859 161.492C213.422 161.398 213.018 161.281 212.648 161.141C212.279 161 211.961 160.831 211.695 160.633C211.43 160.43 211.221 160.193 211.07 159.922C210.924 159.646 210.852 159.328 210.852 158.969C210.852 158.62 210.927 158.292 211.078 157.984C211.229 157.672 211.448 157.398 211.734 157.164C212.021 156.924 212.37 156.737 212.781 156.602C213.193 156.461 213.656 156.391 214.172 156.391C214.891 156.391 215.508 156.508 216.023 156.742C216.544 156.977 216.943 157.299 217.219 157.711C217.495 158.117 217.633 158.576 217.633 159.086H215.57C215.57 158.862 215.518 158.659 215.414 158.477C215.315 158.294 215.161 158.148 214.953 158.039C214.745 157.924 214.482 157.867 214.164 157.867C213.878 157.867 213.635 157.914 213.438 158.008C213.245 158.102 213.099 158.224 213 158.375C212.901 158.526 212.852 158.693 212.852 158.875C212.852 159.01 212.878 159.133 212.93 159.242C212.987 159.346 213.078 159.443 213.203 159.531C213.328 159.62 213.497 159.701 213.711 159.773C213.93 159.846 214.198 159.917 214.516 159.984C215.146 160.109 215.695 160.276 216.164 160.484C216.638 160.688 217.008 160.958 217.273 161.297C217.539 161.635 217.672 162.068 217.672 162.594C217.672 162.969 217.591 163.312 217.43 163.625C217.268 163.932 217.034 164.201 216.727 164.43C216.419 164.659 216.052 164.839 215.625 164.969C215.198 165.094 214.716 165.156 214.18 165.156C213.404 165.156 212.747 165.018 212.211 164.742C211.674 164.461 211.268 164.107 210.992 163.68C210.716 163.247 210.578 162.799 210.578 162.336H212.555C212.57 162.664 212.659 162.927 212.82 163.125C212.982 163.323 213.185 163.466 213.43 163.555C213.68 163.638 213.943 163.68 214.219 163.68C214.531 163.68 214.794 163.638 215.008 163.555C215.221 163.466 215.383 163.349 215.492 163.203C215.602 163.052 215.656 162.88 215.656 162.688ZM223.242 156.547V158.031H218.398V156.547H223.242ZM219.695 154.469H221.766V162.562C221.766 162.812 221.799 163.005 221.867 163.141C221.935 163.276 222.036 163.367 222.172 163.414C222.307 163.461 222.469 163.484 222.656 163.484C222.792 163.484 222.917 163.477 223.031 163.461C223.146 163.445 223.242 163.43 223.32 163.414L223.328 164.961C223.156 165.018 222.961 165.065 222.742 165.102C222.529 165.138 222.286 165.156 222.016 165.156C221.552 165.156 221.146 165.078 220.797 164.922C220.448 164.76 220.177 164.503 219.984 164.148C219.792 163.789 219.695 163.315 219.695 162.727V154.469ZM224.047 160.859V160.695C224.047 160.076 224.135 159.505 224.312 158.984C224.49 158.458 224.747 158.003 225.086 157.617C225.424 157.232 225.839 156.932 226.328 156.719C226.818 156.5 227.375 156.391 228 156.391C228.635 156.391 229.198 156.5 229.688 156.719C230.182 156.932 230.599 157.232 230.938 157.617C231.276 158.003 231.534 158.458 231.711 158.984C231.888 159.505 231.977 160.076 231.977 160.695V160.859C231.977 161.474 231.888 162.044 231.711 162.57C231.534 163.091 231.276 163.547 230.938 163.938C230.599 164.323 230.185 164.622 229.695 164.836C229.206 165.049 228.646 165.156 228.016 165.156C227.391 165.156 226.831 165.049 226.336 164.836C225.841 164.622 225.424 164.323 225.086 163.938C224.747 163.547 224.49 163.091 224.312 162.57C224.135 162.044 224.047 161.474 224.047 160.859ZM226.109 160.695V160.859C226.109 161.229 226.146 161.576 226.219 161.898C226.292 162.221 226.404 162.505 226.555 162.75C226.706 162.995 226.901 163.188 227.141 163.328C227.385 163.464 227.677 163.531 228.016 163.531C228.349 163.531 228.635 163.464 228.875 163.328C229.115 163.188 229.31 162.995 229.461 162.75C229.617 162.505 229.732 162.221 229.805 161.898C229.878 161.576 229.914 161.229 229.914 160.859V160.695C229.914 160.331 229.878 159.99 229.805 159.672C229.732 159.349 229.617 159.065 229.461 158.82C229.31 158.57 229.112 158.375 228.867 158.234C228.628 158.089 228.339 158.016 228 158.016C227.667 158.016 227.38 158.089 227.141 158.234C226.901 158.375 226.706 158.57 226.555 158.82C226.404 159.065 226.292 159.349 226.219 159.672C226.146 159.99 226.109 160.331 226.109 160.695ZM242.531 163.203V153H244.609V165H242.734L242.531 163.203ZM237.102 160.875V160.711C237.102 160.065 237.174 159.479 237.32 158.953C237.471 158.422 237.69 157.966 237.977 157.586C238.263 157.206 238.609 156.911 239.016 156.703C239.427 156.495 239.893 156.391 240.414 156.391C240.919 156.391 241.359 156.492 241.734 156.695C242.115 156.898 242.438 157.188 242.703 157.562C242.974 157.938 243.19 158.383 243.352 158.898C243.513 159.409 243.63 159.971 243.703 160.586V161.031C243.63 161.63 243.513 162.18 243.352 162.68C243.19 163.18 242.974 163.617 242.703 163.992C242.438 164.362 242.115 164.648 241.734 164.852C241.354 165.055 240.909 165.156 240.398 165.156C239.883 165.156 239.419 165.049 239.008 164.836C238.602 164.622 238.255 164.323 237.969 163.938C237.688 163.552 237.471 163.099 237.32 162.578C237.174 162.057 237.102 161.49 237.102 160.875ZM239.172 160.711V160.875C239.172 161.24 239.203 161.581 239.266 161.898C239.328 162.216 239.43 162.497 239.57 162.742C239.711 162.982 239.891 163.169 240.109 163.305C240.333 163.44 240.604 163.508 240.922 163.508C241.328 163.508 241.661 163.419 241.922 163.242C242.188 163.06 242.393 162.812 242.539 162.5C242.685 162.182 242.779 161.826 242.82 161.43V160.203C242.799 159.891 242.745 159.602 242.656 159.336C242.573 159.07 242.453 158.841 242.297 158.648C242.146 158.456 241.958 158.305 241.734 158.195C241.51 158.086 241.245 158.031 240.938 158.031C240.62 158.031 240.349 158.102 240.125 158.242C239.901 158.378 239.719 158.568 239.578 158.812C239.438 159.057 239.333 159.341 239.266 159.664C239.203 159.987 239.172 160.336 239.172 160.711ZM250.273 165.156C249.633 165.156 249.057 165.052 248.547 164.844C248.036 164.635 247.602 164.346 247.242 163.977C246.888 163.602 246.615 163.167 246.422 162.672C246.234 162.172 246.141 161.635 246.141 161.062V160.75C246.141 160.099 246.234 159.508 246.422 158.977C246.609 158.44 246.875 157.979 247.219 157.594C247.562 157.208 247.974 156.911 248.453 156.703C248.932 156.495 249.461 156.391 250.039 156.391C250.638 156.391 251.167 156.492 251.625 156.695C252.083 156.893 252.466 157.174 252.773 157.539C253.081 157.904 253.312 158.341 253.469 158.852C253.625 159.357 253.703 159.917 253.703 160.531V161.398H247.078V159.977H251.672V159.82C251.661 159.492 251.599 159.193 251.484 158.922C251.37 158.646 251.193 158.427 250.953 158.266C250.714 158.099 250.404 158.016 250.023 158.016C249.716 158.016 249.448 158.083 249.219 158.219C248.995 158.349 248.807 158.536 248.656 158.781C248.51 159.021 248.401 159.307 248.328 159.641C248.255 159.974 248.219 160.344 248.219 160.75V161.062C248.219 161.417 248.266 161.745 248.359 162.047C248.458 162.349 248.602 162.612 248.789 162.836C248.982 163.055 249.211 163.227 249.477 163.352C249.747 163.471 250.055 163.531 250.398 163.531C250.831 163.531 251.221 163.448 251.57 163.281C251.924 163.109 252.232 162.857 252.492 162.523L253.531 163.602C253.354 163.862 253.115 164.112 252.812 164.352C252.516 164.591 252.156 164.786 251.734 164.938C251.312 165.083 250.826 165.156 250.273 165.156ZM257.109 158.352V165H255.047V156.547H256.984L257.109 158.352ZM256.781 160.469H256.172C256.177 159.854 256.26 159.297 256.422 158.797C256.583 158.297 256.81 157.867 257.102 157.508C257.398 157.148 257.75 156.872 258.156 156.68C258.562 156.487 259.016 156.391 259.516 156.391C259.922 156.391 260.289 156.448 260.617 156.562C260.945 156.677 261.227 156.859 261.461 157.109C261.701 157.359 261.883 157.688 262.008 158.094C262.138 158.495 262.203 158.99 262.203 159.578V165H260.125V159.562C260.125 159.177 260.068 158.872 259.953 158.648C259.844 158.424 259.682 158.266 259.469 158.172C259.26 158.078 259.003 158.031 258.695 158.031C258.378 158.031 258.099 158.096 257.859 158.227C257.625 158.352 257.427 158.526 257.266 158.75C257.109 158.974 256.99 159.232 256.906 159.523C256.823 159.815 256.781 160.13 256.781 160.469ZM268.023 156.547V158.031H263.18V156.547H268.023ZM264.477 154.469H266.547V162.562C266.547 162.812 266.581 163.005 266.648 163.141C266.716 163.276 266.818 163.367 266.953 163.414C267.089 163.461 267.25 163.484 267.438 163.484C267.573 163.484 267.698 163.477 267.812 163.461C267.927 163.445 268.023 163.43 268.102 163.414L268.109 164.961C267.938 165.018 267.742 165.065 267.523 165.102C267.31 165.138 267.068 165.156 266.797 165.156C266.333 165.156 265.927 165.078 265.578 164.922C265.229 164.76 264.958 164.503 264.766 164.148C264.573 163.789 264.477 163.315 264.477 162.727V154.469ZM271.461 158.273V165H269.398V156.547H271.352L271.461 158.273ZM274.031 156.492L274 158.414C273.885 158.393 273.755 158.378 273.609 158.367C273.469 158.357 273.336 158.352 273.211 158.352C272.893 158.352 272.615 158.396 272.375 158.484C272.135 158.568 271.935 158.69 271.773 158.852C271.617 159.013 271.497 159.211 271.414 159.445C271.331 159.674 271.284 159.935 271.273 160.227L270.828 160.172C270.828 159.635 270.883 159.138 270.992 158.68C271.102 158.221 271.26 157.82 271.469 157.477C271.677 157.133 271.938 156.867 272.25 156.68C272.568 156.487 272.932 156.391 273.344 156.391C273.458 156.391 273.581 156.401 273.711 156.422C273.846 156.438 273.953 156.461 274.031 156.492ZM274.578 160.859V160.695C274.578 160.076 274.667 159.505 274.844 158.984C275.021 158.458 275.279 158.003 275.617 157.617C275.956 157.232 276.37 156.932 276.859 156.719C277.349 156.5 277.906 156.391 278.531 156.391C279.167 156.391 279.729 156.5 280.219 156.719C280.714 156.932 281.13 157.232 281.469 157.617C281.807 158.003 282.065 158.458 282.242 158.984C282.419 159.505 282.508 160.076 282.508 160.695V160.859C282.508 161.474 282.419 162.044 282.242 162.57C282.065 163.091 281.807 163.547 281.469 163.938C281.13 164.323 280.716 164.622 280.227 164.836C279.737 165.049 279.177 165.156 278.547 165.156C277.922 165.156 277.362 165.049 276.867 164.836C276.372 164.622 275.956 164.323 275.617 163.938C275.279 163.547 275.021 163.091 274.844 162.57C274.667 162.044 274.578 161.474 274.578 160.859ZM276.641 160.695V160.859C276.641 161.229 276.677 161.576 276.75 161.898C276.823 162.221 276.935 162.505 277.086 162.75C277.237 162.995 277.432 163.188 277.672 163.328C277.917 163.464 278.208 163.531 278.547 163.531C278.88 163.531 279.167 163.464 279.406 163.328C279.646 163.188 279.841 162.995 279.992 162.75C280.148 162.505 280.263 162.221 280.336 161.898C280.409 161.576 280.445 161.229 280.445 160.859V160.695C280.445 160.331 280.409 159.99 280.336 159.672C280.263 159.349 280.148 159.065 279.992 158.82C279.841 158.57 279.643 158.375 279.398 158.234C279.159 158.089 278.87 158.016 278.531 158.016C278.198 158.016 277.911 158.089 277.672 158.234C277.432 158.375 277.237 158.57 277.086 158.82C276.935 159.065 276.823 159.349 276.75 159.672C276.677 159.99 276.641 160.331 276.641 160.695ZM293.062 163.203V153H295.141V165H293.266L293.062 163.203ZM287.633 160.875V160.711C287.633 160.065 287.706 159.479 287.852 158.953C288.003 158.422 288.221 157.966 288.508 157.586C288.794 157.206 289.141 156.911 289.547 156.703C289.958 156.495 290.424 156.391 290.945 156.391C291.451 156.391 291.891 156.492 292.266 156.695C292.646 156.898 292.969 157.188 293.234 157.562C293.505 157.938 293.721 158.383 293.883 158.898C294.044 159.409 294.161 159.971 294.234 160.586V161.031C294.161 161.63 294.044 162.18 293.883 162.68C293.721 163.18 293.505 163.617 293.234 163.992C292.969 164.362 292.646 164.648 292.266 164.852C291.885 165.055 291.44 165.156 290.93 165.156C290.414 165.156 289.951 165.049 289.539 164.836C289.133 164.622 288.786 164.323 288.5 163.938C288.219 163.552 288.003 163.099 287.852 162.578C287.706 162.057 287.633 161.49 287.633 160.875ZM289.703 160.711V160.875C289.703 161.24 289.734 161.581 289.797 161.898C289.859 162.216 289.961 162.497 290.102 162.742C290.242 162.982 290.422 163.169 290.641 163.305C290.865 163.44 291.135 163.508 291.453 163.508C291.859 163.508 292.193 163.419 292.453 163.242C292.719 163.06 292.924 162.812 293.07 162.5C293.216 162.182 293.31 161.826 293.352 161.43V160.203C293.331 159.891 293.276 159.602 293.188 159.336C293.104 159.07 292.984 158.841 292.828 158.648C292.677 158.456 292.49 158.305 292.266 158.195C292.042 158.086 291.776 158.031 291.469 158.031C291.151 158.031 290.88 158.102 290.656 158.242C290.432 158.378 290.25 158.568 290.109 158.812C289.969 159.057 289.865 159.341 289.797 159.664C289.734 159.987 289.703 160.336 289.703 160.711ZM301.664 163.203V159.305C301.664 159.018 301.615 158.771 301.516 158.562C301.417 158.354 301.266 158.193 301.062 158.078C300.859 157.964 300.602 157.906 300.289 157.906C300.013 157.906 299.771 157.953 299.562 158.047C299.359 158.141 299.203 158.273 299.094 158.445C298.984 158.612 298.93 158.805 298.93 159.023H296.859C296.859 158.674 296.943 158.344 297.109 158.031C297.276 157.714 297.513 157.432 297.82 157.188C298.133 156.938 298.505 156.742 298.938 156.602C299.375 156.461 299.865 156.391 300.406 156.391C301.047 156.391 301.617 156.5 302.117 156.719C302.622 156.932 303.018 157.255 303.305 157.688C303.596 158.12 303.742 158.664 303.742 159.32V163.008C303.742 163.43 303.768 163.792 303.82 164.094C303.878 164.391 303.961 164.648 304.07 164.867V165H301.969C301.87 164.786 301.794 164.516 301.742 164.188C301.69 163.854 301.664 163.526 301.664 163.203ZM301.953 159.852L301.969 161.078H300.664C300.341 161.078 300.057 161.112 299.812 161.18C299.568 161.242 299.367 161.336 299.211 161.461C299.055 161.581 298.938 161.727 298.859 161.898C298.781 162.065 298.742 162.255 298.742 162.469C298.742 162.677 298.789 162.865 298.883 163.031C298.982 163.198 299.122 163.331 299.305 163.43C299.492 163.523 299.711 163.57 299.961 163.57C300.326 163.57 300.643 163.497 300.914 163.352C301.185 163.201 301.396 163.018 301.547 162.805C301.698 162.591 301.779 162.388 301.789 162.195L302.383 163.086C302.31 163.299 302.201 163.526 302.055 163.766C301.909 164.005 301.721 164.229 301.492 164.438C301.263 164.646 300.987 164.818 300.664 164.953C300.341 165.089 299.966 165.156 299.539 165.156C298.992 165.156 298.503 165.047 298.07 164.828C297.638 164.609 297.297 164.31 297.047 163.93C296.797 163.549 296.672 163.117 296.672 162.633C296.672 162.185 296.755 161.789 296.922 161.445C297.089 161.102 297.336 160.812 297.664 160.578C297.992 160.339 298.398 160.159 298.883 160.039C299.372 159.914 299.932 159.852 300.562 159.852H301.953ZM311.641 158.281V165H309.578V156.547H311.523L311.641 158.281ZM311.336 160.469H310.703C310.703 159.88 310.773 159.339 310.914 158.844C311.06 158.349 311.273 157.919 311.555 157.555C311.836 157.185 312.182 156.898 312.594 156.695C313.01 156.492 313.492 156.391 314.039 156.391C314.419 156.391 314.768 156.448 315.086 156.562C315.404 156.672 315.677 156.846 315.906 157.086C316.141 157.32 316.32 157.628 316.445 158.008C316.57 158.383 316.633 158.833 316.633 159.359V165H314.57V159.57C314.57 159.174 314.513 158.865 314.398 158.641C314.289 158.417 314.13 158.26 313.922 158.172C313.714 158.078 313.464 158.031 313.172 158.031C312.849 158.031 312.57 158.096 312.336 158.227C312.107 158.352 311.917 158.526 311.766 158.75C311.62 158.974 311.51 159.232 311.438 159.523C311.37 159.815 311.336 160.13 311.336 160.469ZM316.477 160.086L315.625 160.242C315.63 159.711 315.703 159.214 315.844 158.75C315.984 158.281 316.19 157.872 316.461 157.523C316.737 157.169 317.078 156.893 317.484 156.695C317.896 156.492 318.37 156.391 318.906 156.391C319.323 156.391 319.698 156.451 320.031 156.57C320.37 156.685 320.659 156.87 320.898 157.125C321.138 157.375 321.32 157.701 321.445 158.102C321.576 158.503 321.641 158.992 321.641 159.57V165H319.562V159.562C319.562 159.151 319.505 158.836 319.391 158.617C319.281 158.398 319.122 158.247 318.914 158.164C318.706 158.076 318.461 158.031 318.18 158.031C317.893 158.031 317.643 158.086 317.43 158.195C317.221 158.299 317.044 158.445 316.898 158.633C316.758 158.82 316.651 159.039 316.578 159.289C316.51 159.534 316.477 159.799 316.477 160.086ZM328.148 163.203V159.305C328.148 159.018 328.099 158.771 328 158.562C327.901 158.354 327.75 158.193 327.547 158.078C327.344 157.964 327.086 157.906 326.773 157.906C326.497 157.906 326.255 157.953 326.047 158.047C325.844 158.141 325.688 158.273 325.578 158.445C325.469 158.612 325.414 158.805 325.414 159.023H323.344C323.344 158.674 323.427 158.344 323.594 158.031C323.76 157.714 323.997 157.432 324.305 157.188C324.617 156.938 324.99 156.742 325.422 156.602C325.859 156.461 326.349 156.391 326.891 156.391C327.531 156.391 328.102 156.5 328.602 156.719C329.107 156.932 329.503 157.255 329.789 157.688C330.081 158.12 330.227 158.664 330.227 159.32V163.008C330.227 163.43 330.253 163.792 330.305 164.094C330.362 164.391 330.445 164.648 330.555 164.867V165H328.453C328.354 164.786 328.279 164.516 328.227 164.188C328.174 163.854 328.148 163.526 328.148 163.203ZM328.438 159.852L328.453 161.078H327.148C326.826 161.078 326.542 161.112 326.297 161.18C326.052 161.242 325.852 161.336 325.695 161.461C325.539 161.581 325.422 161.727 325.344 161.898C325.266 162.065 325.227 162.255 325.227 162.469C325.227 162.677 325.273 162.865 325.367 163.031C325.466 163.198 325.607 163.331 325.789 163.43C325.977 163.523 326.195 163.57 326.445 163.57C326.81 163.57 327.128 163.497 327.398 163.352C327.669 163.201 327.88 163.018 328.031 162.805C328.182 162.591 328.263 162.388 328.273 162.195L328.867 163.086C328.794 163.299 328.685 163.526 328.539 163.766C328.393 164.005 328.206 164.229 327.977 164.438C327.747 164.646 327.471 164.818 327.148 164.953C326.826 165.089 326.451 165.156 326.023 165.156C325.477 165.156 324.987 165.047 324.555 164.828C324.122 164.609 323.781 164.31 323.531 163.93C323.281 163.549 323.156 163.117 323.156 162.633C323.156 162.185 323.24 161.789 323.406 161.445C323.573 161.102 323.82 160.812 324.148 160.578C324.477 160.339 324.883 160.159 325.367 160.039C325.857 159.914 326.417 159.852 327.047 159.852H328.438ZM334.148 158.273V165H332.086V156.547H334.039L334.148 158.273ZM336.719 156.492L336.688 158.414C336.573 158.393 336.443 158.378 336.297 158.367C336.156 158.357 336.023 158.352 335.898 158.352C335.581 158.352 335.302 158.396 335.062 158.484C334.823 158.568 334.622 158.69 334.461 158.852C334.305 159.013 334.185 159.211 334.102 159.445C334.018 159.674 333.971 159.935 333.961 160.227L333.516 160.172C333.516 159.635 333.57 159.138 333.68 158.68C333.789 158.221 333.948 157.82 334.156 157.477C334.365 157.133 334.625 156.867 334.938 156.68C335.255 156.487 335.62 156.391 336.031 156.391C336.146 156.391 336.268 156.401 336.398 156.422C336.534 156.438 336.641 156.461 336.719 156.492ZM341.164 163.531C341.456 163.531 341.716 163.474 341.945 163.359C342.174 163.245 342.357 163.083 342.492 162.875C342.633 162.667 342.708 162.424 342.719 162.148H344.664C344.654 162.721 344.492 163.234 344.18 163.688C343.867 164.141 343.451 164.5 342.93 164.766C342.414 165.026 341.836 165.156 341.195 165.156C340.544 165.156 339.977 165.047 339.492 164.828C339.008 164.609 338.604 164.305 338.281 163.914C337.964 163.523 337.724 163.07 337.562 162.555C337.406 162.039 337.328 161.487 337.328 160.898V160.648C337.328 160.06 337.406 159.508 337.562 158.992C337.724 158.477 337.964 158.023 338.281 157.633C338.604 157.242 339.008 156.938 339.492 156.719C339.977 156.5 340.542 156.391 341.188 156.391C341.87 156.391 342.469 156.523 342.984 156.789C343.505 157.055 343.911 157.43 344.203 157.914C344.5 158.398 344.654 158.969 344.664 159.625H342.719C342.708 159.323 342.641 159.052 342.516 158.812C342.391 158.573 342.214 158.38 341.984 158.234C341.755 158.089 341.477 158.016 341.148 158.016C340.799 158.016 340.508 158.089 340.273 158.234C340.044 158.38 339.865 158.581 339.734 158.836C339.609 159.086 339.521 159.367 339.469 159.68C339.422 159.987 339.398 160.31 339.398 160.648V160.898C339.398 161.242 339.422 161.57 339.469 161.883C339.521 162.195 339.609 162.477 339.734 162.727C339.865 162.971 340.044 163.167 340.273 163.312C340.508 163.458 340.805 163.531 341.164 163.531ZM350.695 163.203V159.305C350.695 159.018 350.646 158.771 350.547 158.562C350.448 158.354 350.297 158.193 350.094 158.078C349.891 157.964 349.633 157.906 349.32 157.906C349.044 157.906 348.802 157.953 348.594 158.047C348.391 158.141 348.234 158.273 348.125 158.445C348.016 158.612 347.961 158.805 347.961 159.023H345.891C345.891 158.674 345.974 158.344 346.141 158.031C346.307 157.714 346.544 157.432 346.852 157.188C347.164 156.938 347.536 156.742 347.969 156.602C348.406 156.461 348.896 156.391 349.438 156.391C350.078 156.391 350.648 156.5 351.148 156.719C351.654 156.932 352.049 157.255 352.336 157.688C352.628 158.12 352.773 158.664 352.773 159.32V163.008C352.773 163.43 352.799 163.792 352.852 164.094C352.909 164.391 352.992 164.648 353.102 164.867V165H351C350.901 164.786 350.826 164.516 350.773 164.188C350.721 163.854 350.695 163.526 350.695 163.203ZM350.984 159.852L351 161.078H349.695C349.372 161.078 349.089 161.112 348.844 161.18C348.599 161.242 348.398 161.336 348.242 161.461C348.086 161.581 347.969 161.727 347.891 161.898C347.812 162.065 347.773 162.255 347.773 162.469C347.773 162.677 347.82 162.865 347.914 163.031C348.013 163.198 348.154 163.331 348.336 163.43C348.523 163.523 348.742 163.57 348.992 163.57C349.357 163.57 349.674 163.497 349.945 163.352C350.216 163.201 350.427 163.018 350.578 162.805C350.729 162.591 350.81 162.388 350.82 162.195L351.414 163.086C351.341 163.299 351.232 163.526 351.086 163.766C350.94 164.005 350.753 164.229 350.523 164.438C350.294 164.646 350.018 164.818 349.695 164.953C349.372 165.089 348.997 165.156 348.57 165.156C348.023 165.156 347.534 165.047 347.102 164.828C346.669 164.609 346.328 164.31 346.078 163.93C345.828 163.549 345.703 163.117 345.703 162.633C345.703 162.185 345.786 161.789 345.953 161.445C346.12 161.102 346.367 160.812 346.695 160.578C347.023 160.339 347.43 160.159 347.914 160.039C348.404 159.914 348.964 159.852 349.594 159.852H350.984ZM358.102 163.531C358.393 163.531 358.654 163.474 358.883 163.359C359.112 163.245 359.294 163.083 359.43 162.875C359.57 162.667 359.646 162.424 359.656 162.148H361.602C361.591 162.721 361.43 163.234 361.117 163.688C360.805 164.141 360.388 164.5 359.867 164.766C359.352 165.026 358.773 165.156 358.133 165.156C357.482 165.156 356.914 165.047 356.43 164.828C355.945 164.609 355.542 164.305 355.219 163.914C354.901 163.523 354.661 163.07 354.5 162.555C354.344 162.039 354.266 161.487 354.266 160.898V160.648C354.266 160.06 354.344 159.508 354.5 158.992C354.661 158.477 354.901 158.023 355.219 157.633C355.542 157.242 355.945 156.938 356.43 156.719C356.914 156.5 357.479 156.391 358.125 156.391C358.807 156.391 359.406 156.523 359.922 156.789C360.443 157.055 360.849 157.43 361.141 157.914C361.438 158.398 361.591 158.969 361.602 159.625H359.656C359.646 159.323 359.578 159.052 359.453 158.812C359.328 158.573 359.151 158.38 358.922 158.234C358.693 158.089 358.414 158.016 358.086 158.016C357.737 158.016 357.445 158.089 357.211 158.234C356.982 158.38 356.802 158.581 356.672 158.836C356.547 159.086 356.458 159.367 356.406 159.68C356.359 159.987 356.336 160.31 356.336 160.648V160.898C356.336 161.242 356.359 161.57 356.406 161.883C356.458 162.195 356.547 162.477 356.672 162.727C356.802 162.971 356.982 163.167 357.211 163.312C357.445 163.458 357.742 163.531 358.102 163.531ZM357.266 165H358.805L358.719 165.445C359.016 165.497 359.286 165.622 359.531 165.82C359.776 166.018 359.898 166.344 359.898 166.797C359.898 167.068 359.841 167.312 359.727 167.531C359.617 167.75 359.451 167.938 359.227 168.094C359.003 168.255 358.724 168.378 358.391 168.461C358.062 168.544 357.68 168.586 357.242 168.586L357.188 167.43C357.375 167.43 357.542 167.406 357.688 167.359C357.839 167.312 357.956 167.237 358.039 167.133C358.128 167.034 358.172 166.906 358.172 166.75C358.172 166.594 358.133 166.471 358.055 166.383C357.977 166.299 357.852 166.234 357.68 166.188C357.513 166.146 357.294 166.117 357.023 166.102L357.266 165ZM367.633 163.203V159.305C367.633 159.018 367.583 158.771 367.484 158.562C367.385 158.354 367.234 158.193 367.031 158.078C366.828 157.964 366.57 157.906 366.258 157.906C365.982 157.906 365.74 157.953 365.531 158.047C365.328 158.141 365.172 158.273 365.062 158.445C364.953 158.612 364.898 158.805 364.898 159.023H362.828C362.828 158.674 362.911 158.344 363.078 158.031C363.245 157.714 363.482 157.432 363.789 157.188C364.102 156.938 364.474 156.742 364.906 156.602C365.344 156.461 365.833 156.391 366.375 156.391C367.016 156.391 367.586 156.5 368.086 156.719C368.591 156.932 368.987 157.255 369.273 157.688C369.565 158.12 369.711 158.664 369.711 159.32V163.008C369.711 163.43 369.737 163.792 369.789 164.094C369.846 164.391 369.93 164.648 370.039 164.867V165H367.938C367.839 164.786 367.763 164.516 367.711 164.188C367.659 163.854 367.633 163.526 367.633 163.203ZM367.922 159.852L367.938 161.078H366.633C366.31 161.078 366.026 161.112 365.781 161.18C365.536 161.242 365.336 161.336 365.18 161.461C365.023 161.581 364.906 161.727 364.828 161.898C364.75 162.065 364.711 162.255 364.711 162.469C364.711 162.677 364.758 162.865 364.852 163.031C364.951 163.198 365.091 163.331 365.273 163.43C365.461 163.523 365.68 163.57 365.93 163.57C366.294 163.57 366.612 163.497 366.883 163.352C367.154 163.201 367.365 163.018 367.516 162.805C367.667 162.591 367.747 162.388 367.758 162.195L368.352 163.086C368.279 163.299 368.169 163.526 368.023 163.766C367.878 164.005 367.69 164.229 367.461 164.438C367.232 164.646 366.956 164.818 366.633 164.953C366.31 165.089 365.935 165.156 365.508 165.156C364.961 165.156 364.471 165.047 364.039 164.828C363.607 164.609 363.266 164.31 363.016 163.93C362.766 163.549 362.641 163.117 362.641 162.633C362.641 162.185 362.724 161.789 362.891 161.445C363.057 161.102 363.305 160.812 363.633 160.578C363.961 160.339 364.367 160.159 364.852 160.039C365.341 159.914 365.901 159.852 366.531 159.852H367.922ZM368.078 153.07L369.305 153.156C369.305 153.536 369.227 153.88 369.07 154.188C368.919 154.49 368.714 154.729 368.453 154.906C368.193 155.083 367.893 155.172 367.555 155.172C367.305 155.172 367.089 155.138 366.906 155.07C366.729 155.003 366.565 154.922 366.414 154.828C366.268 154.734 366.117 154.654 365.961 154.586C365.805 154.513 365.622 154.477 365.414 154.477C365.227 154.477 365.065 154.547 364.93 154.688C364.799 154.828 364.734 155.018 364.734 155.258L363.5 155.195C363.5 154.82 363.576 154.479 363.727 154.172C363.878 153.865 364.083 153.62 364.344 153.438C364.609 153.255 364.911 153.164 365.25 153.164C365.464 153.164 365.656 153.198 365.828 153.266C366.005 153.333 366.174 153.414 366.336 153.508C366.497 153.596 366.661 153.677 366.828 153.75C367 153.818 367.185 153.852 367.383 153.852C367.576 153.852 367.74 153.781 367.875 153.641C368.01 153.5 368.078 153.31 368.078 153.07ZM371.203 160.859V160.695C371.203 160.076 371.292 159.505 371.469 158.984C371.646 158.458 371.904 158.003 372.242 157.617C372.581 157.232 372.995 156.932 373.484 156.719C373.974 156.5 374.531 156.391 375.156 156.391C375.792 156.391 376.354 156.5 376.844 156.719C377.339 156.932 377.755 157.232 378.094 157.617C378.432 158.003 378.69 158.458 378.867 158.984C379.044 159.505 379.133 160.076 379.133 160.695V160.859C379.133 161.474 379.044 162.044 378.867 162.57C378.69 163.091 378.432 163.547 378.094 163.938C377.755 164.323 377.341 164.622 376.852 164.836C376.362 165.049 375.802 165.156 375.172 165.156C374.547 165.156 373.987 165.049 373.492 164.836C372.997 164.622 372.581 164.323 372.242 163.938C371.904 163.547 371.646 163.091 371.469 162.57C371.292 162.044 371.203 161.474 371.203 160.859ZM373.266 160.695V160.859C373.266 161.229 373.302 161.576 373.375 161.898C373.448 162.221 373.56 162.505 373.711 162.75C373.862 162.995 374.057 163.188 374.297 163.328C374.542 163.464 374.833 163.531 375.172 163.531C375.505 163.531 375.792 163.464 376.031 163.328C376.271 163.188 376.466 162.995 376.617 162.75C376.773 162.505 376.888 162.221 376.961 161.898C377.034 161.576 377.07 161.229 377.07 160.859V160.695C377.07 160.331 377.034 159.99 376.961 159.672C376.888 159.349 376.773 159.065 376.617 158.82C376.466 158.57 376.268 158.375 376.023 158.234C375.784 158.089 375.495 158.016 375.156 158.016C374.823 158.016 374.536 158.089 374.297 158.234C374.057 158.375 373.862 158.57 373.711 158.82C373.56 159.065 373.448 159.349 373.375 159.672C373.302 159.99 373.266 160.331 373.266 160.695ZM380.719 163.992C380.719 163.68 380.826 163.417 381.039 163.203C381.253 162.99 381.542 162.883 381.906 162.883C382.271 162.883 382.56 162.99 382.773 163.203C382.987 163.417 383.094 163.68 383.094 163.992C383.094 164.299 382.987 164.56 382.773 164.773C382.56 164.982 382.271 165.086 381.906 165.086C381.542 165.086 381.253 164.982 381.039 164.773C380.826 164.56 380.719 164.299 380.719 163.992Z" fill="white"/>
</svg>
