<svg width="475" height="812" viewBox="0 0 475 812" fill="none" xmlns="http://www.w3.org/2000/svg">
<path opacity="0.95" fill-rule="evenodd" clip-rule="evenodd" d="M475 0H0V812H475V0ZM237 189C162.442 189 102 249.442 102 324V418.5C102 493.058 162.442 553.5 237 553.5C311.558 553.5 372 493.058 372 418.5V324C372 249.442 311.558 189 237 189Z" fill="#4A4A4A" fill-opacity="0.8"/>
<path d="M96.4609 150.852H93.5312V149.164H96.4609C96.9401 149.164 97.3281 149.086 97.625 148.93C97.9271 148.768 98.1484 148.549 98.2891 148.273C98.4297 147.992 98.5 147.672 98.5 147.312C98.5 146.964 98.4297 146.638 98.2891 146.336C98.1484 146.034 97.9271 145.789 97.625 145.602C97.3281 145.414 96.9401 145.32 96.4609 145.32H94.2344V155H92.0859V143.625H96.4609C97.3464 143.625 98.1016 143.784 98.7266 144.102C99.3568 144.414 99.8359 144.849 100.164 145.406C100.497 145.958 100.664 146.589 100.664 147.297C100.664 148.031 100.497 148.664 100.164 149.195C99.8359 149.727 99.3568 150.135 98.7266 150.422C98.1016 150.708 97.3464 150.852 96.4609 150.852ZM101.719 150.859V150.695C101.719 150.076 101.807 149.505 101.984 148.984C102.161 148.458 102.419 148.003 102.758 147.617C103.096 147.232 103.51 146.932 104 146.719C104.49 146.5 105.047 146.391 105.672 146.391C106.307 146.391 106.87 146.5 107.359 146.719C107.854 146.932 108.271 147.232 108.609 147.617C108.948 148.003 109.206 148.458 109.383 148.984C109.56 149.505 109.648 150.076 109.648 150.695V150.859C109.648 151.474 109.56 152.044 109.383 152.57C109.206 153.091 108.948 153.547 108.609 153.938C108.271 154.323 107.857 154.622 107.367 154.836C106.878 155.049 106.318 155.156 105.688 155.156C105.062 155.156 104.503 155.049 104.008 154.836C103.513 154.622 103.096 154.323 102.758 153.938C102.419 153.547 102.161 153.091 101.984 152.57C101.807 152.044 101.719 151.474 101.719 150.859ZM103.781 150.695V150.859C103.781 151.229 103.818 151.576 103.891 151.898C103.964 152.221 104.076 152.505 104.227 152.75C104.378 152.995 104.573 153.188 104.812 153.328C105.057 153.464 105.349 153.531 105.688 153.531C106.021 153.531 106.307 153.464 106.547 153.328C106.786 153.188 106.982 152.995 107.133 152.75C107.289 152.505 107.404 152.221 107.477 151.898C107.549 151.576 107.586 151.229 107.586 150.859V150.695C107.586 150.331 107.549 149.99 107.477 149.672C107.404 149.349 107.289 149.065 107.133 148.82C106.982 148.57 106.784 148.375 106.539 148.234C106.299 148.089 106.01 148.016 105.672 148.016C105.339 148.016 105.052 148.089 104.812 148.234C104.573 148.375 104.378 148.57 104.227 148.82C104.076 149.065 103.964 149.349 103.891 149.672C103.818 149.99 103.781 150.331 103.781 150.695ZM115.797 152.688C115.797 152.51 115.75 152.352 115.656 152.211C115.562 152.07 115.385 151.943 115.125 151.828C114.87 151.708 114.495 151.596 114 151.492C113.562 151.398 113.159 151.281 112.789 151.141C112.419 151 112.102 150.831 111.836 150.633C111.57 150.43 111.362 150.193 111.211 149.922C111.065 149.646 110.992 149.328 110.992 148.969C110.992 148.62 111.068 148.292 111.219 147.984C111.37 147.672 111.589 147.398 111.875 147.164C112.161 146.924 112.51 146.737 112.922 146.602C113.333 146.461 113.797 146.391 114.312 146.391C115.031 146.391 115.648 146.508 116.164 146.742C116.685 146.977 117.083 147.299 117.359 147.711C117.635 148.117 117.773 148.576 117.773 149.086H115.711C115.711 148.862 115.659 148.659 115.555 148.477C115.456 148.294 115.302 148.148 115.094 148.039C114.885 147.924 114.622 147.867 114.305 147.867C114.018 147.867 113.776 147.914 113.578 148.008C113.385 148.102 113.24 148.224 113.141 148.375C113.042 148.526 112.992 148.693 112.992 148.875C112.992 149.01 113.018 149.133 113.07 149.242C113.128 149.346 113.219 149.443 113.344 149.531C113.469 149.62 113.638 149.701 113.852 149.773C114.07 149.846 114.339 149.917 114.656 149.984C115.286 150.109 115.836 150.276 116.305 150.484C116.779 150.688 117.148 150.958 117.414 151.297C117.68 151.635 117.812 152.068 117.812 152.594C117.812 152.969 117.732 153.312 117.57 153.625C117.409 153.932 117.174 154.201 116.867 154.43C116.56 154.659 116.193 154.839 115.766 154.969C115.339 155.094 114.857 155.156 114.32 155.156C113.544 155.156 112.888 155.018 112.352 154.742C111.815 154.461 111.409 154.107 111.133 153.68C110.857 153.247 110.719 152.799 110.719 152.336H112.695C112.711 152.664 112.799 152.927 112.961 153.125C113.122 153.323 113.326 153.466 113.57 153.555C113.82 153.638 114.083 153.68 114.359 153.68C114.672 153.68 114.935 153.638 115.148 153.555C115.362 153.466 115.523 153.349 115.633 153.203C115.742 153.052 115.797 152.88 115.797 152.688ZM121.57 146.547V155H119.5V146.547H121.57ZM119.359 144.336C119.359 144.029 119.464 143.773 119.672 143.57C119.885 143.367 120.172 143.266 120.531 143.266C120.891 143.266 121.174 143.367 121.383 143.57C121.596 143.773 121.703 144.029 121.703 144.336C121.703 144.638 121.596 144.891 121.383 145.094C121.174 145.297 120.891 145.398 120.531 145.398C120.172 145.398 119.885 145.297 119.672 145.094C119.464 144.891 119.359 144.638 119.359 144.336ZM127.008 153.531C127.299 153.531 127.56 153.474 127.789 153.359C128.018 153.245 128.201 153.083 128.336 152.875C128.477 152.667 128.552 152.424 128.562 152.148H130.508C130.497 152.721 130.336 153.234 130.023 153.688C129.711 154.141 129.294 154.5 128.773 154.766C128.258 155.026 127.68 155.156 127.039 155.156C126.388 155.156 125.82 155.047 125.336 154.828C124.852 154.609 124.448 154.305 124.125 153.914C123.807 153.523 123.568 153.07 123.406 152.555C123.25 152.039 123.172 151.487 123.172 150.898V150.648C123.172 150.06 123.25 149.508 123.406 148.992C123.568 148.477 123.807 148.023 124.125 147.633C124.448 147.242 124.852 146.938 125.336 146.719C125.82 146.5 126.385 146.391 127.031 146.391C127.714 146.391 128.312 146.523 128.828 146.789C129.349 147.055 129.755 147.43 130.047 147.914C130.344 148.398 130.497 148.969 130.508 149.625H128.562C128.552 149.323 128.484 149.052 128.359 148.812C128.234 148.573 128.057 148.38 127.828 148.234C127.599 148.089 127.32 148.016 126.992 148.016C126.643 148.016 126.352 148.089 126.117 148.234C125.888 148.38 125.708 148.581 125.578 148.836C125.453 149.086 125.365 149.367 125.312 149.68C125.266 149.987 125.242 150.31 125.242 150.648V150.898C125.242 151.242 125.266 151.57 125.312 151.883C125.365 152.195 125.453 152.477 125.578 152.727C125.708 152.971 125.888 153.167 126.117 153.312C126.352 153.458 126.648 153.531 127.008 153.531ZM134.07 146.547V155H132V146.547H134.07ZM131.859 144.336C131.859 144.029 131.964 143.773 132.172 143.57C132.385 143.367 132.672 143.266 133.031 143.266C133.391 143.266 133.674 143.367 133.883 143.57C134.096 143.773 134.203 144.029 134.203 144.336C134.203 144.638 134.096 144.891 133.883 145.094C133.674 145.297 133.391 145.398 133.031 145.398C132.672 145.398 132.385 145.297 132.172 145.094C131.964 144.891 131.859 144.638 131.859 144.336ZM135.672 150.859V150.695C135.672 150.076 135.76 149.505 135.938 148.984C136.115 148.458 136.372 148.003 136.711 147.617C137.049 147.232 137.464 146.932 137.953 146.719C138.443 146.5 139 146.391 139.625 146.391C140.26 146.391 140.823 146.5 141.312 146.719C141.807 146.932 142.224 147.232 142.562 147.617C142.901 148.003 143.159 148.458 143.336 148.984C143.513 149.505 143.602 150.076 143.602 150.695V150.859C143.602 151.474 143.513 152.044 143.336 152.57C143.159 153.091 142.901 153.547 142.562 153.938C142.224 154.323 141.81 154.622 141.32 154.836C140.831 155.049 140.271 155.156 139.641 155.156C139.016 155.156 138.456 155.049 137.961 154.836C137.466 154.622 137.049 154.323 136.711 153.938C136.372 153.547 136.115 153.091 135.938 152.57C135.76 152.044 135.672 151.474 135.672 150.859ZM137.734 150.695V150.859C137.734 151.229 137.771 151.576 137.844 151.898C137.917 152.221 138.029 152.505 138.18 152.75C138.331 152.995 138.526 153.188 138.766 153.328C139.01 153.464 139.302 153.531 139.641 153.531C139.974 153.531 140.26 153.464 140.5 153.328C140.74 153.188 140.935 152.995 141.086 152.75C141.242 152.505 141.357 152.221 141.43 151.898C141.503 151.576 141.539 151.229 141.539 150.859V150.695C141.539 150.331 141.503 149.99 141.43 149.672C141.357 149.349 141.242 149.065 141.086 148.82C140.935 148.57 140.737 148.375 140.492 148.234C140.253 148.089 139.964 148.016 139.625 148.016C139.292 148.016 139.005 148.089 138.766 148.234C138.526 148.375 138.331 148.57 138.18 148.82C138.029 149.065 137.917 149.349 137.844 149.672C137.771 149.99 137.734 150.331 137.734 150.695ZM147.125 148.352V155H145.062V146.547H147L147.125 148.352ZM146.797 150.469H146.188C146.193 149.854 146.276 149.297 146.438 148.797C146.599 148.297 146.826 147.867 147.117 147.508C147.414 147.148 147.766 146.872 148.172 146.68C148.578 146.487 149.031 146.391 149.531 146.391C149.938 146.391 150.305 146.448 150.633 146.562C150.961 146.677 151.242 146.859 151.477 147.109C151.716 147.359 151.898 147.688 152.023 148.094C152.154 148.495 152.219 148.99 152.219 149.578V155H150.141V149.562C150.141 149.177 150.083 148.872 149.969 148.648C149.859 148.424 149.698 148.266 149.484 148.172C149.276 148.078 149.018 148.031 148.711 148.031C148.393 148.031 148.115 148.096 147.875 148.227C147.641 148.352 147.443 148.526 147.281 148.75C147.125 148.974 147.005 149.232 146.922 149.523C146.839 149.815 146.797 150.13 146.797 150.469ZM157.836 155.156C157.195 155.156 156.62 155.052 156.109 154.844C155.599 154.635 155.164 154.346 154.805 153.977C154.451 153.602 154.177 153.167 153.984 152.672C153.797 152.172 153.703 151.635 153.703 151.062V150.75C153.703 150.099 153.797 149.508 153.984 148.977C154.172 148.44 154.438 147.979 154.781 147.594C155.125 147.208 155.536 146.911 156.016 146.703C156.495 146.495 157.023 146.391 157.602 146.391C158.201 146.391 158.729 146.492 159.188 146.695C159.646 146.893 160.029 147.174 160.336 147.539C160.643 147.904 160.875 148.341 161.031 148.852C161.188 149.357 161.266 149.917 161.266 150.531V151.398H154.641V149.977H159.234V149.82C159.224 149.492 159.161 149.193 159.047 148.922C158.932 148.646 158.755 148.427 158.516 148.266C158.276 148.099 157.966 148.016 157.586 148.016C157.279 148.016 157.01 148.083 156.781 148.219C156.557 148.349 156.37 148.536 156.219 148.781C156.073 149.021 155.964 149.307 155.891 149.641C155.818 149.974 155.781 150.344 155.781 150.75V151.062C155.781 151.417 155.828 151.745 155.922 152.047C156.021 152.349 156.164 152.612 156.352 152.836C156.544 153.055 156.773 153.227 157.039 153.352C157.31 153.471 157.617 153.531 157.961 153.531C158.393 153.531 158.784 153.448 159.133 153.281C159.487 153.109 159.794 152.857 160.055 152.523L161.094 153.602C160.917 153.862 160.677 154.112 160.375 154.352C160.078 154.591 159.719 154.786 159.297 154.938C158.875 155.083 158.388 155.156 157.836 155.156ZM171.281 152.688C171.281 152.51 171.234 152.352 171.141 152.211C171.047 152.07 170.87 151.943 170.609 151.828C170.354 151.708 169.979 151.596 169.484 151.492C169.047 151.398 168.643 151.281 168.273 151.141C167.904 151 167.586 150.831 167.32 150.633C167.055 150.43 166.846 150.193 166.695 149.922C166.549 149.646 166.477 149.328 166.477 148.969C166.477 148.62 166.552 148.292 166.703 147.984C166.854 147.672 167.073 147.398 167.359 147.164C167.646 146.924 167.995 146.737 168.406 146.602C168.818 146.461 169.281 146.391 169.797 146.391C170.516 146.391 171.133 146.508 171.648 146.742C172.169 146.977 172.568 147.299 172.844 147.711C173.12 148.117 173.258 148.576 173.258 149.086H171.195C171.195 148.862 171.143 148.659 171.039 148.477C170.94 148.294 170.786 148.148 170.578 148.039C170.37 147.924 170.107 147.867 169.789 147.867C169.503 147.867 169.26 147.914 169.062 148.008C168.87 148.102 168.724 148.224 168.625 148.375C168.526 148.526 168.477 148.693 168.477 148.875C168.477 149.01 168.503 149.133 168.555 149.242C168.612 149.346 168.703 149.443 168.828 149.531C168.953 149.62 169.122 149.701 169.336 149.773C169.555 149.846 169.823 149.917 170.141 149.984C170.771 150.109 171.32 150.276 171.789 150.484C172.263 150.688 172.633 150.958 172.898 151.297C173.164 151.635 173.297 152.068 173.297 152.594C173.297 152.969 173.216 153.312 173.055 153.625C172.893 153.932 172.659 154.201 172.352 154.43C172.044 154.659 171.677 154.839 171.25 154.969C170.823 155.094 170.341 155.156 169.805 155.156C169.029 155.156 168.372 155.018 167.836 154.742C167.299 154.461 166.893 154.107 166.617 153.68C166.341 153.247 166.203 152.799 166.203 152.336H168.18C168.195 152.664 168.284 152.927 168.445 153.125C168.607 153.323 168.81 153.466 169.055 153.555C169.305 153.638 169.568 153.68 169.844 153.68C170.156 153.68 170.419 153.638 170.633 153.555C170.846 153.466 171.008 153.349 171.117 153.203C171.227 153.052 171.281 152.88 171.281 152.688ZM178.664 155.156C178.023 155.156 177.448 155.052 176.938 154.844C176.427 154.635 175.992 154.346 175.633 153.977C175.279 153.602 175.005 153.167 174.812 152.672C174.625 152.172 174.531 151.635 174.531 151.062V150.75C174.531 150.099 174.625 149.508 174.812 148.977C175 148.44 175.266 147.979 175.609 147.594C175.953 147.208 176.365 146.911 176.844 146.703C177.323 146.495 177.852 146.391 178.43 146.391C179.029 146.391 179.557 146.492 180.016 146.695C180.474 146.893 180.857 147.174 181.164 147.539C181.471 147.904 181.703 148.341 181.859 148.852C182.016 149.357 182.094 149.917 182.094 150.531V151.398H175.469V149.977H180.062V149.82C180.052 149.492 179.99 149.193 179.875 148.922C179.76 148.646 179.583 148.427 179.344 148.266C179.104 148.099 178.794 148.016 178.414 148.016C178.107 148.016 177.839 148.083 177.609 148.219C177.385 148.349 177.198 148.536 177.047 148.781C176.901 149.021 176.792 149.307 176.719 149.641C176.646 149.974 176.609 150.344 176.609 150.75V151.062C176.609 151.417 176.656 151.745 176.75 152.047C176.849 152.349 176.992 152.612 177.18 152.836C177.372 153.055 177.602 153.227 177.867 153.352C178.138 153.471 178.445 153.531 178.789 153.531C179.221 153.531 179.612 153.448 179.961 153.281C180.315 153.109 180.622 152.857 180.883 152.523L181.922 153.602C181.745 153.862 181.505 154.112 181.203 154.352C180.906 154.591 180.547 154.786 180.125 154.938C179.703 155.083 179.216 155.156 178.664 155.156ZM188.508 152.992V146.547H190.586V155H188.633L188.508 152.992ZM188.773 151.242L189.414 151.227C189.414 151.794 189.352 152.318 189.227 152.797C189.102 153.276 188.906 153.693 188.641 154.047C188.38 154.396 188.049 154.669 187.648 154.867C187.247 155.06 186.773 155.156 186.227 155.156C185.81 155.156 185.43 155.099 185.086 154.984C184.742 154.865 184.445 154.68 184.195 154.43C183.951 154.174 183.76 153.849 183.625 153.453C183.49 153.052 183.422 152.57 183.422 152.008V146.547H185.484V152.023C185.484 152.305 185.516 152.539 185.578 152.727C185.646 152.914 185.737 153.068 185.852 153.188C185.971 153.302 186.109 153.385 186.266 153.438C186.427 153.484 186.599 153.508 186.781 153.508C187.281 153.508 187.674 153.409 187.961 153.211C188.253 153.008 188.461 152.737 188.586 152.398C188.711 152.055 188.773 151.669 188.773 151.242ZM198.461 148.273V155H196.398V146.547H198.352L198.461 148.273ZM201.031 146.492L201 148.414C200.885 148.393 200.755 148.378 200.609 148.367C200.469 148.357 200.336 148.352 200.211 148.352C199.893 148.352 199.615 148.396 199.375 148.484C199.135 148.568 198.935 148.69 198.773 148.852C198.617 149.013 198.497 149.211 198.414 149.445C198.331 149.674 198.284 149.935 198.273 150.227L197.828 150.172C197.828 149.635 197.883 149.138 197.992 148.68C198.102 148.221 198.26 147.82 198.469 147.477C198.677 147.133 198.938 146.867 199.25 146.68C199.568 146.487 199.932 146.391 200.344 146.391C200.458 146.391 200.581 146.401 200.711 146.422C200.846 146.438 200.953 146.461 201.031 146.492ZM201.578 150.859V150.695C201.578 150.076 201.667 149.505 201.844 148.984C202.021 148.458 202.279 148.003 202.617 147.617C202.956 147.232 203.37 146.932 203.859 146.719C204.349 146.5 204.906 146.391 205.531 146.391C206.167 146.391 206.729 146.5 207.219 146.719C207.714 146.932 208.13 147.232 208.469 147.617C208.807 148.003 209.065 148.458 209.242 148.984C209.419 149.505 209.508 150.076 209.508 150.695V150.859C209.508 151.474 209.419 152.044 209.242 152.57C209.065 153.091 208.807 153.547 208.469 153.938C208.13 154.323 207.716 154.622 207.227 154.836C206.737 155.049 206.177 155.156 205.547 155.156C204.922 155.156 204.362 155.049 203.867 154.836C203.372 154.622 202.956 154.323 202.617 153.938C202.279 153.547 202.021 153.091 201.844 152.57C201.667 152.044 201.578 151.474 201.578 150.859ZM203.641 150.695V150.859C203.641 151.229 203.677 151.576 203.75 151.898C203.823 152.221 203.935 152.505 204.086 152.75C204.237 152.995 204.432 153.188 204.672 153.328C204.917 153.464 205.208 153.531 205.547 153.531C205.88 153.531 206.167 153.464 206.406 153.328C206.646 153.188 206.841 152.995 206.992 152.75C207.148 152.505 207.263 152.221 207.336 151.898C207.409 151.576 207.445 151.229 207.445 150.859V150.695C207.445 150.331 207.409 149.99 207.336 149.672C207.263 149.349 207.148 149.065 206.992 148.82C206.841 148.57 206.643 148.375 206.398 148.234C206.159 148.089 205.87 148.016 205.531 148.016C205.198 148.016 204.911 148.089 204.672 148.234C204.432 148.375 204.237 148.57 204.086 148.82C203.935 149.065 203.823 149.349 203.75 149.672C203.677 149.99 203.641 150.331 203.641 150.695ZM215.656 152.688C215.656 152.51 215.609 152.352 215.516 152.211C215.422 152.07 215.245 151.943 214.984 151.828C214.729 151.708 214.354 151.596 213.859 151.492C213.422 151.398 213.018 151.281 212.648 151.141C212.279 151 211.961 150.831 211.695 150.633C211.43 150.43 211.221 150.193 211.07 149.922C210.924 149.646 210.852 149.328 210.852 148.969C210.852 148.62 210.927 148.292 211.078 147.984C211.229 147.672 211.448 147.398 211.734 147.164C212.021 146.924 212.37 146.737 212.781 146.602C213.193 146.461 213.656 146.391 214.172 146.391C214.891 146.391 215.508 146.508 216.023 146.742C216.544 146.977 216.943 147.299 217.219 147.711C217.495 148.117 217.633 148.576 217.633 149.086H215.57C215.57 148.862 215.518 148.659 215.414 148.477C215.315 148.294 215.161 148.148 214.953 148.039C214.745 147.924 214.482 147.867 214.164 147.867C213.878 147.867 213.635 147.914 213.438 148.008C213.245 148.102 213.099 148.224 213 148.375C212.901 148.526 212.852 148.693 212.852 148.875C212.852 149.01 212.878 149.133 212.93 149.242C212.987 149.346 213.078 149.443 213.203 149.531C213.328 149.62 213.497 149.701 213.711 149.773C213.93 149.846 214.198 149.917 214.516 149.984C215.146 150.109 215.695 150.276 216.164 150.484C216.638 150.688 217.008 150.958 217.273 151.297C217.539 151.635 217.672 152.068 217.672 152.594C217.672 152.969 217.591 153.312 217.43 153.625C217.268 153.932 217.034 154.201 216.727 154.43C216.419 154.659 216.052 154.839 215.625 154.969C215.198 155.094 214.716 155.156 214.18 155.156C213.404 155.156 212.747 155.018 212.211 154.742C211.674 154.461 211.268 154.107 210.992 153.68C210.716 153.247 210.578 152.799 210.578 152.336H212.555C212.57 152.664 212.659 152.927 212.82 153.125C212.982 153.323 213.185 153.466 213.43 153.555C213.68 153.638 213.943 153.68 214.219 153.68C214.531 153.68 214.794 153.638 215.008 153.555C215.221 153.466 215.383 153.349 215.492 153.203C215.602 153.052 215.656 152.88 215.656 152.688ZM223.242 146.547V148.031H218.398V146.547H223.242ZM219.695 144.469H221.766V152.562C221.766 152.812 221.799 153.005 221.867 153.141C221.935 153.276 222.036 153.367 222.172 153.414C222.307 153.461 222.469 153.484 222.656 153.484C222.792 153.484 222.917 153.477 223.031 153.461C223.146 153.445 223.242 153.43 223.32 153.414L223.328 154.961C223.156 155.018 222.961 155.065 222.742 155.102C222.529 155.138 222.286 155.156 222.016 155.156C221.552 155.156 221.146 155.078 220.797 154.922C220.448 154.76 220.177 154.503 219.984 154.148C219.792 153.789 219.695 153.315 219.695 152.727V144.469ZM224.047 150.859V150.695C224.047 150.076 224.135 149.505 224.312 148.984C224.49 148.458 224.747 148.003 225.086 147.617C225.424 147.232 225.839 146.932 226.328 146.719C226.818 146.5 227.375 146.391 228 146.391C228.635 146.391 229.198 146.5 229.688 146.719C230.182 146.932 230.599 147.232 230.938 147.617C231.276 148.003 231.534 148.458 231.711 148.984C231.888 149.505 231.977 150.076 231.977 150.695V150.859C231.977 151.474 231.888 152.044 231.711 152.57C231.534 153.091 231.276 153.547 230.938 153.938C230.599 154.323 230.185 154.622 229.695 154.836C229.206 155.049 228.646 155.156 228.016 155.156C227.391 155.156 226.831 155.049 226.336 154.836C225.841 154.622 225.424 154.323 225.086 153.938C224.747 153.547 224.49 153.091 224.312 152.57C224.135 152.044 224.047 151.474 224.047 150.859ZM226.109 150.695V150.859C226.109 151.229 226.146 151.576 226.219 151.898C226.292 152.221 226.404 152.505 226.555 152.75C226.706 152.995 226.901 153.188 227.141 153.328C227.385 153.464 227.677 153.531 228.016 153.531C228.349 153.531 228.635 153.464 228.875 153.328C229.115 153.188 229.31 152.995 229.461 152.75C229.617 152.505 229.732 152.221 229.805 151.898C229.878 151.576 229.914 151.229 229.914 150.859V150.695C229.914 150.331 229.878 149.99 229.805 149.672C229.732 149.349 229.617 149.065 229.461 148.82C229.31 148.57 229.112 148.375 228.867 148.234C228.628 148.089 228.339 148.016 228 148.016C227.667 148.016 227.38 148.089 227.141 148.234C226.901 148.375 226.706 148.57 226.555 148.82C226.404 149.065 226.292 149.349 226.219 149.672C226.146 149.99 226.109 150.331 226.109 150.695ZM242.531 153.203V143H244.609V155H242.734L242.531 153.203ZM237.102 150.875V150.711C237.102 150.065 237.174 149.479 237.32 148.953C237.471 148.422 237.69 147.966 237.977 147.586C238.263 147.206 238.609 146.911 239.016 146.703C239.427 146.495 239.893 146.391 240.414 146.391C240.919 146.391 241.359 146.492 241.734 146.695C242.115 146.898 242.438 147.188 242.703 147.562C242.974 147.938 243.19 148.383 243.352 148.898C243.513 149.409 243.63 149.971 243.703 150.586V151.031C243.63 151.63 243.513 152.18 243.352 152.68C243.19 153.18 242.974 153.617 242.703 153.992C242.438 154.362 242.115 154.648 241.734 154.852C241.354 155.055 240.909 155.156 240.398 155.156C239.883 155.156 239.419 155.049 239.008 154.836C238.602 154.622 238.255 154.323 237.969 153.938C237.688 153.552 237.471 153.099 237.32 152.578C237.174 152.057 237.102 151.49 237.102 150.875ZM239.172 150.711V150.875C239.172 151.24 239.203 151.581 239.266 151.898C239.328 152.216 239.43 152.497 239.57 152.742C239.711 152.982 239.891 153.169 240.109 153.305C240.333 153.44 240.604 153.508 240.922 153.508C241.328 153.508 241.661 153.419 241.922 153.242C242.188 153.06 242.393 152.812 242.539 152.5C242.685 152.182 242.779 151.826 242.82 151.43V150.203C242.799 149.891 242.745 149.602 242.656 149.336C242.573 149.07 242.453 148.841 242.297 148.648C242.146 148.456 241.958 148.305 241.734 148.195C241.51 148.086 241.245 148.031 240.938 148.031C240.62 148.031 240.349 148.102 240.125 148.242C239.901 148.378 239.719 148.568 239.578 148.812C239.438 149.057 239.333 149.341 239.266 149.664C239.203 149.987 239.172 150.336 239.172 150.711ZM250.273 155.156C249.633 155.156 249.057 155.052 248.547 154.844C248.036 154.635 247.602 154.346 247.242 153.977C246.888 153.602 246.615 153.167 246.422 152.672C246.234 152.172 246.141 151.635 246.141 151.062V150.75C246.141 150.099 246.234 149.508 246.422 148.977C246.609 148.44 246.875 147.979 247.219 147.594C247.562 147.208 247.974 146.911 248.453 146.703C248.932 146.495 249.461 146.391 250.039 146.391C250.638 146.391 251.167 146.492 251.625 146.695C252.083 146.893 252.466 147.174 252.773 147.539C253.081 147.904 253.312 148.341 253.469 148.852C253.625 149.357 253.703 149.917 253.703 150.531V151.398H247.078V149.977H251.672V149.82C251.661 149.492 251.599 149.193 251.484 148.922C251.37 148.646 251.193 148.427 250.953 148.266C250.714 148.099 250.404 148.016 250.023 148.016C249.716 148.016 249.448 148.083 249.219 148.219C248.995 148.349 248.807 148.536 248.656 148.781C248.51 149.021 248.401 149.307 248.328 149.641C248.255 149.974 248.219 150.344 248.219 150.75V151.062C248.219 151.417 248.266 151.745 248.359 152.047C248.458 152.349 248.602 152.612 248.789 152.836C248.982 153.055 249.211 153.227 249.477 153.352C249.747 153.471 250.055 153.531 250.398 153.531C250.831 153.531 251.221 153.448 251.57 153.281C251.924 153.109 252.232 152.857 252.492 152.523L253.531 153.602C253.354 153.862 253.115 154.112 252.812 154.352C252.516 154.591 252.156 154.786 251.734 154.938C251.312 155.083 250.826 155.156 250.273 155.156ZM257.109 148.352V155H255.047V146.547H256.984L257.109 148.352ZM256.781 150.469H256.172C256.177 149.854 256.26 149.297 256.422 148.797C256.583 148.297 256.81 147.867 257.102 147.508C257.398 147.148 257.75 146.872 258.156 146.68C258.562 146.487 259.016 146.391 259.516 146.391C259.922 146.391 260.289 146.448 260.617 146.562C260.945 146.677 261.227 146.859 261.461 147.109C261.701 147.359 261.883 147.688 262.008 148.094C262.138 148.495 262.203 148.99 262.203 149.578V155H260.125V149.562C260.125 149.177 260.068 148.872 259.953 148.648C259.844 148.424 259.682 148.266 259.469 148.172C259.26 148.078 259.003 148.031 258.695 148.031C258.378 148.031 258.099 148.096 257.859 148.227C257.625 148.352 257.427 148.526 257.266 148.75C257.109 148.974 256.99 149.232 256.906 149.523C256.823 149.815 256.781 150.13 256.781 150.469ZM268.023 146.547V148.031H263.18V146.547H268.023ZM264.477 144.469H266.547V152.562C266.547 152.812 266.581 153.005 266.648 153.141C266.716 153.276 266.818 153.367 266.953 153.414C267.089 153.461 267.25 153.484 267.438 153.484C267.573 153.484 267.698 153.477 267.812 153.461C267.927 153.445 268.023 153.43 268.102 153.414L268.109 154.961C267.938 155.018 267.742 155.065 267.523 155.102C267.31 155.138 267.068 155.156 266.797 155.156C266.333 155.156 265.927 155.078 265.578 154.922C265.229 154.76 264.958 154.503 264.766 154.148C264.573 153.789 264.477 153.315 264.477 152.727V144.469ZM271.461 148.273V155H269.398V146.547H271.352L271.461 148.273ZM274.031 146.492L274 148.414C273.885 148.393 273.755 148.378 273.609 148.367C273.469 148.357 273.336 148.352 273.211 148.352C272.893 148.352 272.615 148.396 272.375 148.484C272.135 148.568 271.935 148.69 271.773 148.852C271.617 149.013 271.497 149.211 271.414 149.445C271.331 149.674 271.284 149.935 271.273 150.227L270.828 150.172C270.828 149.635 270.883 149.138 270.992 148.68C271.102 148.221 271.26 147.82 271.469 147.477C271.677 147.133 271.938 146.867 272.25 146.68C272.568 146.487 272.932 146.391 273.344 146.391C273.458 146.391 273.581 146.401 273.711 146.422C273.846 146.438 273.953 146.461 274.031 146.492ZM274.578 150.859V150.695C274.578 150.076 274.667 149.505 274.844 148.984C275.021 148.458 275.279 148.003 275.617 147.617C275.956 147.232 276.37 146.932 276.859 146.719C277.349 146.5 277.906 146.391 278.531 146.391C279.167 146.391 279.729 146.5 280.219 146.719C280.714 146.932 281.13 147.232 281.469 147.617C281.807 148.003 282.065 148.458 282.242 148.984C282.419 149.505 282.508 150.076 282.508 150.695V150.859C282.508 151.474 282.419 152.044 282.242 152.57C282.065 153.091 281.807 153.547 281.469 153.938C281.13 154.323 280.716 154.622 280.227 154.836C279.737 155.049 279.177 155.156 278.547 155.156C277.922 155.156 277.362 155.049 276.867 154.836C276.372 154.622 275.956 154.323 275.617 153.938C275.279 153.547 275.021 153.091 274.844 152.57C274.667 152.044 274.578 151.474 274.578 150.859ZM276.641 150.695V150.859C276.641 151.229 276.677 151.576 276.75 151.898C276.823 152.221 276.935 152.505 277.086 152.75C277.237 152.995 277.432 153.188 277.672 153.328C277.917 153.464 278.208 153.531 278.547 153.531C278.88 153.531 279.167 153.464 279.406 153.328C279.646 153.188 279.841 152.995 279.992 152.75C280.148 152.505 280.263 152.221 280.336 151.898C280.409 151.576 280.445 151.229 280.445 150.859V150.695C280.445 150.331 280.409 149.99 280.336 149.672C280.263 149.349 280.148 149.065 279.992 148.82C279.841 148.57 279.643 148.375 279.398 148.234C279.159 148.089 278.87 148.016 278.531 148.016C278.198 148.016 277.911 148.089 277.672 148.234C277.432 148.375 277.237 148.57 277.086 148.82C276.935 149.065 276.823 149.349 276.75 149.672C276.677 149.99 276.641 150.331 276.641 150.695ZM293.062 153.203V143H295.141V155H293.266L293.062 153.203ZM287.633 150.875V150.711C287.633 150.065 287.706 149.479 287.852 148.953C288.003 148.422 288.221 147.966 288.508 147.586C288.794 147.206 289.141 146.911 289.547 146.703C289.958 146.495 290.424 146.391 290.945 146.391C291.451 146.391 291.891 146.492 292.266 146.695C292.646 146.898 292.969 147.188 293.234 147.562C293.505 147.938 293.721 148.383 293.883 148.898C294.044 149.409 294.161 149.971 294.234 150.586V151.031C294.161 151.63 294.044 152.18 293.883 152.68C293.721 153.18 293.505 153.617 293.234 153.992C292.969 154.362 292.646 154.648 292.266 154.852C291.885 155.055 291.44 155.156 290.93 155.156C290.414 155.156 289.951 155.049 289.539 154.836C289.133 154.622 288.786 154.323 288.5 153.938C288.219 153.552 288.003 153.099 287.852 152.578C287.706 152.057 287.633 151.49 287.633 150.875ZM289.703 150.711V150.875C289.703 151.24 289.734 151.581 289.797 151.898C289.859 152.216 289.961 152.497 290.102 152.742C290.242 152.982 290.422 153.169 290.641 153.305C290.865 153.44 291.135 153.508 291.453 153.508C291.859 153.508 292.193 153.419 292.453 153.242C292.719 153.06 292.924 152.812 293.07 152.5C293.216 152.182 293.31 151.826 293.352 151.43V150.203C293.331 149.891 293.276 149.602 293.188 149.336C293.104 149.07 292.984 148.841 292.828 148.648C292.677 148.456 292.49 148.305 292.266 148.195C292.042 148.086 291.776 148.031 291.469 148.031C291.151 148.031 290.88 148.102 290.656 148.242C290.432 148.378 290.25 148.568 290.109 148.812C289.969 149.057 289.865 149.341 289.797 149.664C289.734 149.987 289.703 150.336 289.703 150.711ZM301.664 153.203V149.305C301.664 149.018 301.615 148.771 301.516 148.562C301.417 148.354 301.266 148.193 301.062 148.078C300.859 147.964 300.602 147.906 300.289 147.906C300.013 147.906 299.771 147.953 299.562 148.047C299.359 148.141 299.203 148.273 299.094 148.445C298.984 148.612 298.93 148.805 298.93 149.023H296.859C296.859 148.674 296.943 148.344 297.109 148.031C297.276 147.714 297.513 147.432 297.82 147.188C298.133 146.938 298.505 146.742 298.938 146.602C299.375 146.461 299.865 146.391 300.406 146.391C301.047 146.391 301.617 146.5 302.117 146.719C302.622 146.932 303.018 147.255 303.305 147.688C303.596 148.12 303.742 148.664 303.742 149.32V153.008C303.742 153.43 303.768 153.792 303.82 154.094C303.878 154.391 303.961 154.648 304.07 154.867V155H301.969C301.87 154.786 301.794 154.516 301.742 154.188C301.69 153.854 301.664 153.526 301.664 153.203ZM301.953 149.852L301.969 151.078H300.664C300.341 151.078 300.057 151.112 299.812 151.18C299.568 151.242 299.367 151.336 299.211 151.461C299.055 151.581 298.938 151.727 298.859 151.898C298.781 152.065 298.742 152.255 298.742 152.469C298.742 152.677 298.789 152.865 298.883 153.031C298.982 153.198 299.122 153.331 299.305 153.43C299.492 153.523 299.711 153.57 299.961 153.57C300.326 153.57 300.643 153.497 300.914 153.352C301.185 153.201 301.396 153.018 301.547 152.805C301.698 152.591 301.779 152.388 301.789 152.195L302.383 153.086C302.31 153.299 302.201 153.526 302.055 153.766C301.909 154.005 301.721 154.229 301.492 154.438C301.263 154.646 300.987 154.818 300.664 154.953C300.341 155.089 299.966 155.156 299.539 155.156C298.992 155.156 298.503 155.047 298.07 154.828C297.638 154.609 297.297 154.31 297.047 153.93C296.797 153.549 296.672 153.117 296.672 152.633C296.672 152.185 296.755 151.789 296.922 151.445C297.089 151.102 297.336 150.812 297.664 150.578C297.992 150.339 298.398 150.159 298.883 150.039C299.372 149.914 299.932 149.852 300.562 149.852H301.953ZM311.641 148.281V155H309.578V146.547H311.523L311.641 148.281ZM311.336 150.469H310.703C310.703 149.88 310.773 149.339 310.914 148.844C311.06 148.349 311.273 147.919 311.555 147.555C311.836 147.185 312.182 146.898 312.594 146.695C313.01 146.492 313.492 146.391 314.039 146.391C314.419 146.391 314.768 146.448 315.086 146.562C315.404 146.672 315.677 146.846 315.906 147.086C316.141 147.32 316.32 147.628 316.445 148.008C316.57 148.383 316.633 148.833 316.633 149.359V155H314.57V149.57C314.57 149.174 314.513 148.865 314.398 148.641C314.289 148.417 314.13 148.26 313.922 148.172C313.714 148.078 313.464 148.031 313.172 148.031C312.849 148.031 312.57 148.096 312.336 148.227C312.107 148.352 311.917 148.526 311.766 148.75C311.62 148.974 311.51 149.232 311.438 149.523C311.37 149.815 311.336 150.13 311.336 150.469ZM316.477 150.086L315.625 150.242C315.63 149.711 315.703 149.214 315.844 148.75C315.984 148.281 316.19 147.872 316.461 147.523C316.737 147.169 317.078 146.893 317.484 146.695C317.896 146.492 318.37 146.391 318.906 146.391C319.323 146.391 319.698 146.451 320.031 146.57C320.37 146.685 320.659 146.87 320.898 147.125C321.138 147.375 321.32 147.701 321.445 148.102C321.576 148.503 321.641 148.992 321.641 149.57V155H319.562V149.562C319.562 149.151 319.505 148.836 319.391 148.617C319.281 148.398 319.122 148.247 318.914 148.164C318.706 148.076 318.461 148.031 318.18 148.031C317.893 148.031 317.643 148.086 317.43 148.195C317.221 148.299 317.044 148.445 316.898 148.633C316.758 148.82 316.651 149.039 316.578 149.289C316.51 149.534 316.477 149.799 316.477 150.086ZM328.148 153.203V149.305C328.148 149.018 328.099 148.771 328 148.562C327.901 148.354 327.75 148.193 327.547 148.078C327.344 147.964 327.086 147.906 326.773 147.906C326.497 147.906 326.255 147.953 326.047 148.047C325.844 148.141 325.688 148.273 325.578 148.445C325.469 148.612 325.414 148.805 325.414 149.023H323.344C323.344 148.674 323.427 148.344 323.594 148.031C323.76 147.714 323.997 147.432 324.305 147.188C324.617 146.938 324.99 146.742 325.422 146.602C325.859 146.461 326.349 146.391 326.891 146.391C327.531 146.391 328.102 146.5 328.602 146.719C329.107 146.932 329.503 147.255 329.789 147.688C330.081 148.12 330.227 148.664 330.227 149.32V153.008C330.227 153.43 330.253 153.792 330.305 154.094C330.362 154.391 330.445 154.648 330.555 154.867V155H328.453C328.354 154.786 328.279 154.516 328.227 154.188C328.174 153.854 328.148 153.526 328.148 153.203ZM328.438 149.852L328.453 151.078H327.148C326.826 151.078 326.542 151.112 326.297 151.18C326.052 151.242 325.852 151.336 325.695 151.461C325.539 151.581 325.422 151.727 325.344 151.898C325.266 152.065 325.227 152.255 325.227 152.469C325.227 152.677 325.273 152.865 325.367 153.031C325.466 153.198 325.607 153.331 325.789 153.43C325.977 153.523 326.195 153.57 326.445 153.57C326.81 153.57 327.128 153.497 327.398 153.352C327.669 153.201 327.88 153.018 328.031 152.805C328.182 152.591 328.263 152.388 328.273 152.195L328.867 153.086C328.794 153.299 328.685 153.526 328.539 153.766C328.393 154.005 328.206 154.229 327.977 154.438C327.747 154.646 327.471 154.818 327.148 154.953C326.826 155.089 326.451 155.156 326.023 155.156C325.477 155.156 324.987 155.047 324.555 154.828C324.122 154.609 323.781 154.31 323.531 153.93C323.281 153.549 323.156 153.117 323.156 152.633C323.156 152.185 323.24 151.789 323.406 151.445C323.573 151.102 323.82 150.812 324.148 150.578C324.477 150.339 324.883 150.159 325.367 150.039C325.857 149.914 326.417 149.852 327.047 149.852H328.438ZM334.148 148.273V155H332.086V146.547H334.039L334.148 148.273ZM336.719 146.492L336.688 148.414C336.573 148.393 336.443 148.378 336.297 148.367C336.156 148.357 336.023 148.352 335.898 148.352C335.581 148.352 335.302 148.396 335.062 148.484C334.823 148.568 334.622 148.69 334.461 148.852C334.305 149.013 334.185 149.211 334.102 149.445C334.018 149.674 333.971 149.935 333.961 150.227L333.516 150.172C333.516 149.635 333.57 149.138 333.68 148.68C333.789 148.221 333.948 147.82 334.156 147.477C334.365 147.133 334.625 146.867 334.938 146.68C335.255 146.487 335.62 146.391 336.031 146.391C336.146 146.391 336.268 146.401 336.398 146.422C336.534 146.438 336.641 146.461 336.719 146.492ZM341.164 153.531C341.456 153.531 341.716 153.474 341.945 153.359C342.174 153.245 342.357 153.083 342.492 152.875C342.633 152.667 342.708 152.424 342.719 152.148H344.664C344.654 152.721 344.492 153.234 344.18 153.688C343.867 154.141 343.451 154.5 342.93 154.766C342.414 155.026 341.836 155.156 341.195 155.156C340.544 155.156 339.977 155.047 339.492 154.828C339.008 154.609 338.604 154.305 338.281 153.914C337.964 153.523 337.724 153.07 337.562 152.555C337.406 152.039 337.328 151.487 337.328 150.898V150.648C337.328 150.06 337.406 149.508 337.562 148.992C337.724 148.477 337.964 148.023 338.281 147.633C338.604 147.242 339.008 146.938 339.492 146.719C339.977 146.5 340.542 146.391 341.188 146.391C341.87 146.391 342.469 146.523 342.984 146.789C343.505 147.055 343.911 147.43 344.203 147.914C344.5 148.398 344.654 148.969 344.664 149.625H342.719C342.708 149.323 342.641 149.052 342.516 148.812C342.391 148.573 342.214 148.38 341.984 148.234C341.755 148.089 341.477 148.016 341.148 148.016C340.799 148.016 340.508 148.089 340.273 148.234C340.044 148.38 339.865 148.581 339.734 148.836C339.609 149.086 339.521 149.367 339.469 149.68C339.422 149.987 339.398 150.31 339.398 150.648V150.898C339.398 151.242 339.422 151.57 339.469 151.883C339.521 152.195 339.609 152.477 339.734 152.727C339.865 152.971 340.044 153.167 340.273 153.312C340.508 153.458 340.805 153.531 341.164 153.531ZM350.695 153.203V149.305C350.695 149.018 350.646 148.771 350.547 148.562C350.448 148.354 350.297 148.193 350.094 148.078C349.891 147.964 349.633 147.906 349.32 147.906C349.044 147.906 348.802 147.953 348.594 148.047C348.391 148.141 348.234 148.273 348.125 148.445C348.016 148.612 347.961 148.805 347.961 149.023H345.891C345.891 148.674 345.974 148.344 346.141 148.031C346.307 147.714 346.544 147.432 346.852 147.188C347.164 146.938 347.536 146.742 347.969 146.602C348.406 146.461 348.896 146.391 349.438 146.391C350.078 146.391 350.648 146.5 351.148 146.719C351.654 146.932 352.049 147.255 352.336 147.688C352.628 148.12 352.773 148.664 352.773 149.32V153.008C352.773 153.43 352.799 153.792 352.852 154.094C352.909 154.391 352.992 154.648 353.102 154.867V155H351C350.901 154.786 350.826 154.516 350.773 154.188C350.721 153.854 350.695 153.526 350.695 153.203ZM350.984 149.852L351 151.078H349.695C349.372 151.078 349.089 151.112 348.844 151.18C348.599 151.242 348.398 151.336 348.242 151.461C348.086 151.581 347.969 151.727 347.891 151.898C347.812 152.065 347.773 152.255 347.773 152.469C347.773 152.677 347.82 152.865 347.914 153.031C348.013 153.198 348.154 153.331 348.336 153.43C348.523 153.523 348.742 153.57 348.992 153.57C349.357 153.57 349.674 153.497 349.945 153.352C350.216 153.201 350.427 153.018 350.578 152.805C350.729 152.591 350.81 152.388 350.82 152.195L351.414 153.086C351.341 153.299 351.232 153.526 351.086 153.766C350.94 154.005 350.753 154.229 350.523 154.438C350.294 154.646 350.018 154.818 349.695 154.953C349.372 155.089 348.997 155.156 348.57 155.156C348.023 155.156 347.534 155.047 347.102 154.828C346.669 154.609 346.328 154.31 346.078 153.93C345.828 153.549 345.703 153.117 345.703 152.633C345.703 152.185 345.786 151.789 345.953 151.445C346.12 151.102 346.367 150.812 346.695 150.578C347.023 150.339 347.43 150.159 347.914 150.039C348.404 149.914 348.964 149.852 349.594 149.852H350.984ZM358.102 153.531C358.393 153.531 358.654 153.474 358.883 153.359C359.112 153.245 359.294 153.083 359.43 152.875C359.57 152.667 359.646 152.424 359.656 152.148H361.602C361.591 152.721 361.43 153.234 361.117 153.688C360.805 154.141 360.388 154.5 359.867 154.766C359.352 155.026 358.773 155.156 358.133 155.156C357.482 155.156 356.914 155.047 356.43 154.828C355.945 154.609 355.542 154.305 355.219 153.914C354.901 153.523 354.661 153.07 354.5 152.555C354.344 152.039 354.266 151.487 354.266 150.898V150.648C354.266 150.06 354.344 149.508 354.5 148.992C354.661 148.477 354.901 148.023 355.219 147.633C355.542 147.242 355.945 146.938 356.43 146.719C356.914 146.5 357.479 146.391 358.125 146.391C358.807 146.391 359.406 146.523 359.922 146.789C360.443 147.055 360.849 147.43 361.141 147.914C361.438 148.398 361.591 148.969 361.602 149.625H359.656C359.646 149.323 359.578 149.052 359.453 148.812C359.328 148.573 359.151 148.38 358.922 148.234C358.693 148.089 358.414 148.016 358.086 148.016C357.737 148.016 357.445 148.089 357.211 148.234C356.982 148.38 356.802 148.581 356.672 148.836C356.547 149.086 356.458 149.367 356.406 149.68C356.359 149.987 356.336 150.31 356.336 150.648V150.898C356.336 151.242 356.359 151.57 356.406 151.883C356.458 152.195 356.547 152.477 356.672 152.727C356.802 152.971 356.982 153.167 357.211 153.312C357.445 153.458 357.742 153.531 358.102 153.531ZM357.266 155H358.805L358.719 155.445C359.016 155.497 359.286 155.622 359.531 155.82C359.776 156.018 359.898 156.344 359.898 156.797C359.898 157.068 359.841 157.312 359.727 157.531C359.617 157.75 359.451 157.938 359.227 158.094C359.003 158.255 358.724 158.378 358.391 158.461C358.062 158.544 357.68 158.586 357.242 158.586L357.188 157.43C357.375 157.43 357.542 157.406 357.688 157.359C357.839 157.312 357.956 157.237 358.039 157.133C358.128 157.034 358.172 156.906 358.172 156.75C358.172 156.594 358.133 156.471 358.055 156.383C357.977 156.299 357.852 156.234 357.68 156.188C357.513 156.146 357.294 156.117 357.023 156.102L357.266 155ZM367.633 153.203V149.305C367.633 149.018 367.583 148.771 367.484 148.562C367.385 148.354 367.234 148.193 367.031 148.078C366.828 147.964 366.57 147.906 366.258 147.906C365.982 147.906 365.74 147.953 365.531 148.047C365.328 148.141 365.172 148.273 365.062 148.445C364.953 148.612 364.898 148.805 364.898 149.023H362.828C362.828 148.674 362.911 148.344 363.078 148.031C363.245 147.714 363.482 147.432 363.789 147.188C364.102 146.938 364.474 146.742 364.906 146.602C365.344 146.461 365.833 146.391 366.375 146.391C367.016 146.391 367.586 146.5 368.086 146.719C368.591 146.932 368.987 147.255 369.273 147.688C369.565 148.12 369.711 148.664 369.711 149.32V153.008C369.711 153.43 369.737 153.792 369.789 154.094C369.846 154.391 369.93 154.648 370.039 154.867V155H367.938C367.839 154.786 367.763 154.516 367.711 154.188C367.659 153.854 367.633 153.526 367.633 153.203ZM367.922 149.852L367.938 151.078H366.633C366.31 151.078 366.026 151.112 365.781 151.18C365.536 151.242 365.336 151.336 365.18 151.461C365.023 151.581 364.906 151.727 364.828 151.898C364.75 152.065 364.711 152.255 364.711 152.469C364.711 152.677 364.758 152.865 364.852 153.031C364.951 153.198 365.091 153.331 365.273 153.43C365.461 153.523 365.68 153.57 365.93 153.57C366.294 153.57 366.612 153.497 366.883 153.352C367.154 153.201 367.365 153.018 367.516 152.805C367.667 152.591 367.747 152.388 367.758 152.195L368.352 153.086C368.279 153.299 368.169 153.526 368.023 153.766C367.878 154.005 367.69 154.229 367.461 154.438C367.232 154.646 366.956 154.818 366.633 154.953C366.31 155.089 365.935 155.156 365.508 155.156C364.961 155.156 364.471 155.047 364.039 154.828C363.607 154.609 363.266 154.31 363.016 153.93C362.766 153.549 362.641 153.117 362.641 152.633C362.641 152.185 362.724 151.789 362.891 151.445C363.057 151.102 363.305 150.812 363.633 150.578C363.961 150.339 364.367 150.159 364.852 150.039C365.341 149.914 365.901 149.852 366.531 149.852H367.922ZM368.078 143.07L369.305 143.156C369.305 143.536 369.227 143.88 369.07 144.188C368.919 144.49 368.714 144.729 368.453 144.906C368.193 145.083 367.893 145.172 367.555 145.172C367.305 145.172 367.089 145.138 366.906 145.07C366.729 145.003 366.565 144.922 366.414 144.828C366.268 144.734 366.117 144.654 365.961 144.586C365.805 144.513 365.622 144.477 365.414 144.477C365.227 144.477 365.065 144.547 364.93 144.688C364.799 144.828 364.734 145.018 364.734 145.258L363.5 145.195C363.5 144.82 363.576 144.479 363.727 144.172C363.878 143.865 364.083 143.62 364.344 143.438C364.609 143.255 364.911 143.164 365.25 143.164C365.464 143.164 365.656 143.198 365.828 143.266C366.005 143.333 366.174 143.414 366.336 143.508C366.497 143.596 366.661 143.677 366.828 143.75C367 143.818 367.185 143.852 367.383 143.852C367.576 143.852 367.74 143.781 367.875 143.641C368.01 143.5 368.078 143.31 368.078 143.07ZM371.203 150.859V150.695C371.203 150.076 371.292 149.505 371.469 148.984C371.646 148.458 371.904 148.003 372.242 147.617C372.581 147.232 372.995 146.932 373.484 146.719C373.974 146.5 374.531 146.391 375.156 146.391C375.792 146.391 376.354 146.5 376.844 146.719C377.339 146.932 377.755 147.232 378.094 147.617C378.432 148.003 378.69 148.458 378.867 148.984C379.044 149.505 379.133 150.076 379.133 150.695V150.859C379.133 151.474 379.044 152.044 378.867 152.57C378.69 153.091 378.432 153.547 378.094 153.938C377.755 154.323 377.341 154.622 376.852 154.836C376.362 155.049 375.802 155.156 375.172 155.156C374.547 155.156 373.987 155.049 373.492 154.836C372.997 154.622 372.581 154.323 372.242 153.938C371.904 153.547 371.646 153.091 371.469 152.57C371.292 152.044 371.203 151.474 371.203 150.859ZM373.266 150.695V150.859C373.266 151.229 373.302 151.576 373.375 151.898C373.448 152.221 373.56 152.505 373.711 152.75C373.862 152.995 374.057 153.188 374.297 153.328C374.542 153.464 374.833 153.531 375.172 153.531C375.505 153.531 375.792 153.464 376.031 153.328C376.271 153.188 376.466 152.995 376.617 152.75C376.773 152.505 376.888 152.221 376.961 151.898C377.034 151.576 377.07 151.229 377.07 150.859V150.695C377.07 150.331 377.034 149.99 376.961 149.672C376.888 149.349 376.773 149.065 376.617 148.82C376.466 148.57 376.268 148.375 376.023 148.234C375.784 148.089 375.495 148.016 375.156 148.016C374.823 148.016 374.536 148.089 374.297 148.234C374.057 148.375 373.862 148.57 373.711 148.82C373.56 149.065 373.448 149.349 373.375 149.672C373.302 149.99 373.266 150.331 373.266 150.695ZM380.719 153.992C380.719 153.68 380.826 153.417 381.039 153.203C381.253 152.99 381.542 152.883 381.906 152.883C382.271 152.883 382.56 152.99 382.773 153.203C382.987 153.417 383.094 153.68 383.094 153.992C383.094 154.299 382.987 154.56 382.773 154.773C382.56 154.982 382.271 155.086 381.906 155.086C381.542 155.086 381.253 154.982 381.039 154.773C380.826 154.56 380.719 154.299 380.719 153.992Z" fill="white"/>
</svg>
