<svg width="474" height="812" viewBox="0 0 474 812" fill="none" xmlns="http://www.w3.org/2000/svg">
<path opacity="0.95" fill-rule="evenodd" clip-rule="evenodd" d="M474 0H0V812H474V0ZM236 137C161.442 137 101 197.442 101 272V366.5C101 441.058 161.442 501.5 236 501.5C310.558 501.5 371 441.058 371 366.5V272C371 197.442 310.558 137 236 137Z" fill="#4A4A4A" fill-opacity="0.8"/>
<path d="M95.4609 100.852H92.5312V99.1641H95.4609C95.9401 99.1641 96.3281 99.0859 96.625 98.9297C96.9271 98.7682 97.1484 98.5495 97.2891 98.2734C97.4297 97.9922 97.5 97.6719 97.5 97.3125C97.5 96.9635 97.4297 96.638 97.2891 96.3359C97.1484 96.0339 96.9271 95.7891 96.625 95.6016C96.3281 95.4141 95.9401 95.3203 95.4609 95.3203H93.2344V105H91.0859V93.625H95.4609C96.3464 93.625 97.1016 93.7839 97.7266 94.1016C98.3568 94.4141 98.8359 94.849 99.1641 95.4062C99.4974 95.9583 99.6641 96.5885 99.6641 97.2969C99.6641 98.0312 99.4974 98.6641 99.1641 99.1953C98.8359 99.7266 98.3568 100.135 97.7266 100.422C97.1016 100.708 96.3464 100.852 95.4609 100.852ZM100.719 100.859V100.695C100.719 100.076 100.807 99.5052 100.984 98.9844C101.161 98.4583 101.419 98.0026 101.758 97.6172C102.096 97.2318 102.51 96.9323 103 96.7188C103.49 96.5 104.047 96.3906 104.672 96.3906C105.307 96.3906 105.87 96.5 106.359 96.7188C106.854 96.9323 107.271 97.2318 107.609 97.6172C107.948 98.0026 108.206 98.4583 108.383 98.9844C108.56 99.5052 108.648 100.076 108.648 100.695V100.859C108.648 101.474 108.56 102.044 108.383 102.57C108.206 103.091 107.948 103.547 107.609 103.938C107.271 104.323 106.857 104.622 106.367 104.836C105.878 105.049 105.318 105.156 104.688 105.156C104.062 105.156 103.503 105.049 103.008 104.836C102.513 104.622 102.096 104.323 101.758 103.938C101.419 103.547 101.161 103.091 100.984 102.57C100.807 102.044 100.719 101.474 100.719 100.859ZM102.781 100.695V100.859C102.781 101.229 102.818 101.576 102.891 101.898C102.964 102.221 103.076 102.505 103.227 102.75C103.378 102.995 103.573 103.188 103.812 103.328C104.057 103.464 104.349 103.531 104.688 103.531C105.021 103.531 105.307 103.464 105.547 103.328C105.786 103.188 105.982 102.995 106.133 102.75C106.289 102.505 106.404 102.221 106.477 101.898C106.549 101.576 106.586 101.229 106.586 100.859V100.695C106.586 100.331 106.549 99.9896 106.477 99.6719C106.404 99.349 106.289 99.0651 106.133 98.8203C105.982 98.5703 105.784 98.375 105.539 98.2344C105.299 98.0885 105.01 98.0156 104.672 98.0156C104.339 98.0156 104.052 98.0885 103.812 98.2344C103.573 98.375 103.378 98.5703 103.227 98.8203C103.076 99.0651 102.964 99.349 102.891 99.6719C102.818 99.9896 102.781 100.331 102.781 100.695ZM114.797 102.688C114.797 102.51 114.75 102.352 114.656 102.211C114.562 102.07 114.385 101.943 114.125 101.828C113.87 101.708 113.495 101.596 113 101.492C112.562 101.398 112.159 101.281 111.789 101.141C111.419 101 111.102 100.831 110.836 100.633C110.57 100.43 110.362 100.193 110.211 99.9219C110.065 99.6458 109.992 99.3281 109.992 98.9688C109.992 98.6198 110.068 98.2917 110.219 97.9844C110.37 97.6719 110.589 97.3984 110.875 97.1641C111.161 96.9245 111.51 96.737 111.922 96.6016C112.333 96.4609 112.797 96.3906 113.312 96.3906C114.031 96.3906 114.648 96.5078 115.164 96.7422C115.685 96.9766 116.083 97.2995 116.359 97.7109C116.635 98.1172 116.773 98.5755 116.773 99.0859H114.711C114.711 98.862 114.659 98.6589 114.555 98.4766C114.456 98.2943 114.302 98.1484 114.094 98.0391C113.885 97.9245 113.622 97.8672 113.305 97.8672C113.018 97.8672 112.776 97.9141 112.578 98.0078C112.385 98.1016 112.24 98.224 112.141 98.375C112.042 98.526 111.992 98.6927 111.992 98.875C111.992 99.0104 112.018 99.1328 112.07 99.2422C112.128 99.3464 112.219 99.4427 112.344 99.5312C112.469 99.6198 112.638 99.7005 112.852 99.7734C113.07 99.8464 113.339 99.9167 113.656 99.9844C114.286 100.109 114.836 100.276 115.305 100.484C115.779 100.688 116.148 100.958 116.414 101.297C116.68 101.635 116.812 102.068 116.812 102.594C116.812 102.969 116.732 103.312 116.57 103.625C116.409 103.932 116.174 104.201 115.867 104.43C115.56 104.659 115.193 104.839 114.766 104.969C114.339 105.094 113.857 105.156 113.32 105.156C112.544 105.156 111.888 105.018 111.352 104.742C110.815 104.461 110.409 104.107 110.133 103.68C109.857 103.247 109.719 102.799 109.719 102.336H111.695C111.711 102.664 111.799 102.927 111.961 103.125C112.122 103.323 112.326 103.466 112.57 103.555C112.82 103.638 113.083 103.68 113.359 103.68C113.672 103.68 113.935 103.638 114.148 103.555C114.362 103.466 114.523 103.349 114.633 103.203C114.742 103.052 114.797 102.88 114.797 102.688ZM120.57 96.5469V105H118.5V96.5469H120.57ZM118.359 94.3359C118.359 94.0286 118.464 93.7734 118.672 93.5703C118.885 93.3672 119.172 93.2656 119.531 93.2656C119.891 93.2656 120.174 93.3672 120.383 93.5703C120.596 93.7734 120.703 94.0286 120.703 94.3359C120.703 94.638 120.596 94.8906 120.383 95.0938C120.174 95.2969 119.891 95.3984 119.531 95.3984C119.172 95.3984 118.885 95.2969 118.672 95.0938C118.464 94.8906 118.359 94.638 118.359 94.3359ZM126.008 103.531C126.299 103.531 126.56 103.474 126.789 103.359C127.018 103.245 127.201 103.083 127.336 102.875C127.477 102.667 127.552 102.424 127.562 102.148H129.508C129.497 102.721 129.336 103.234 129.023 103.688C128.711 104.141 128.294 104.5 127.773 104.766C127.258 105.026 126.68 105.156 126.039 105.156C125.388 105.156 124.82 105.047 124.336 104.828C123.852 104.609 123.448 104.305 123.125 103.914C122.807 103.523 122.568 103.07 122.406 102.555C122.25 102.039 122.172 101.487 122.172 100.898V100.648C122.172 100.06 122.25 99.5078 122.406 98.9922C122.568 98.4766 122.807 98.0234 123.125 97.6328C123.448 97.2422 123.852 96.9375 124.336 96.7188C124.82 96.5 125.385 96.3906 126.031 96.3906C126.714 96.3906 127.312 96.5234 127.828 96.7891C128.349 97.0547 128.755 97.4297 129.047 97.9141C129.344 98.3984 129.497 98.9688 129.508 99.625H127.562C127.552 99.3229 127.484 99.0521 127.359 98.8125C127.234 98.5729 127.057 98.3802 126.828 98.2344C126.599 98.0885 126.32 98.0156 125.992 98.0156C125.643 98.0156 125.352 98.0885 125.117 98.2344C124.888 98.3802 124.708 98.5807 124.578 98.8359C124.453 99.0859 124.365 99.3672 124.312 99.6797C124.266 99.987 124.242 100.31 124.242 100.648V100.898C124.242 101.242 124.266 101.57 124.312 101.883C124.365 102.195 124.453 102.477 124.578 102.727C124.708 102.971 124.888 103.167 125.117 103.312C125.352 103.458 125.648 103.531 126.008 103.531ZM133.07 96.5469V105H131V96.5469H133.07ZM130.859 94.3359C130.859 94.0286 130.964 93.7734 131.172 93.5703C131.385 93.3672 131.672 93.2656 132.031 93.2656C132.391 93.2656 132.674 93.3672 132.883 93.5703C133.096 93.7734 133.203 94.0286 133.203 94.3359C133.203 94.638 133.096 94.8906 132.883 95.0938C132.674 95.2969 132.391 95.3984 132.031 95.3984C131.672 95.3984 131.385 95.2969 131.172 95.0938C130.964 94.8906 130.859 94.638 130.859 94.3359ZM134.672 100.859V100.695C134.672 100.076 134.76 99.5052 134.938 98.9844C135.115 98.4583 135.372 98.0026 135.711 97.6172C136.049 97.2318 136.464 96.9323 136.953 96.7188C137.443 96.5 138 96.3906 138.625 96.3906C139.26 96.3906 139.823 96.5 140.312 96.7188C140.807 96.9323 141.224 97.2318 141.562 97.6172C141.901 98.0026 142.159 98.4583 142.336 98.9844C142.513 99.5052 142.602 100.076 142.602 100.695V100.859C142.602 101.474 142.513 102.044 142.336 102.57C142.159 103.091 141.901 103.547 141.562 103.938C141.224 104.323 140.81 104.622 140.32 104.836C139.831 105.049 139.271 105.156 138.641 105.156C138.016 105.156 137.456 105.049 136.961 104.836C136.466 104.622 136.049 104.323 135.711 103.938C135.372 103.547 135.115 103.091 134.938 102.57C134.76 102.044 134.672 101.474 134.672 100.859ZM136.734 100.695V100.859C136.734 101.229 136.771 101.576 136.844 101.898C136.917 102.221 137.029 102.505 137.18 102.75C137.331 102.995 137.526 103.188 137.766 103.328C138.01 103.464 138.302 103.531 138.641 103.531C138.974 103.531 139.26 103.464 139.5 103.328C139.74 103.188 139.935 102.995 140.086 102.75C140.242 102.505 140.357 102.221 140.43 101.898C140.503 101.576 140.539 101.229 140.539 100.859V100.695C140.539 100.331 140.503 99.9896 140.43 99.6719C140.357 99.349 140.242 99.0651 140.086 98.8203C139.935 98.5703 139.737 98.375 139.492 98.2344C139.253 98.0885 138.964 98.0156 138.625 98.0156C138.292 98.0156 138.005 98.0885 137.766 98.2344C137.526 98.375 137.331 98.5703 137.18 98.8203C137.029 99.0651 136.917 99.349 136.844 99.6719C136.771 99.9896 136.734 100.331 136.734 100.695ZM146.125 98.3516V105H144.062V96.5469H146L146.125 98.3516ZM145.797 100.469H145.188C145.193 99.8542 145.276 99.2969 145.438 98.7969C145.599 98.2969 145.826 97.8672 146.117 97.5078C146.414 97.1484 146.766 96.8724 147.172 96.6797C147.578 96.487 148.031 96.3906 148.531 96.3906C148.938 96.3906 149.305 96.4479 149.633 96.5625C149.961 96.6771 150.242 96.8594 150.477 97.1094C150.716 97.3594 150.898 97.6875 151.023 98.0938C151.154 98.4948 151.219 98.9896 151.219 99.5781V105H149.141V99.5625C149.141 99.1771 149.083 98.8724 148.969 98.6484C148.859 98.4245 148.698 98.2656 148.484 98.1719C148.276 98.0781 148.018 98.0312 147.711 98.0312C147.393 98.0312 147.115 98.0964 146.875 98.2266C146.641 98.3516 146.443 98.526 146.281 98.75C146.125 98.974 146.005 99.2318 145.922 99.5234C145.839 99.8151 145.797 100.13 145.797 100.469ZM156.836 105.156C156.195 105.156 155.62 105.052 155.109 104.844C154.599 104.635 154.164 104.346 153.805 103.977C153.451 103.602 153.177 103.167 152.984 102.672C152.797 102.172 152.703 101.635 152.703 101.062V100.75C152.703 100.099 152.797 99.5078 152.984 98.9766C153.172 98.4401 153.438 97.9792 153.781 97.5938C154.125 97.2083 154.536 96.9115 155.016 96.7031C155.495 96.4948 156.023 96.3906 156.602 96.3906C157.201 96.3906 157.729 96.4922 158.188 96.6953C158.646 96.8932 159.029 97.1745 159.336 97.5391C159.643 97.9036 159.875 98.3411 160.031 98.8516C160.188 99.3568 160.266 99.9167 160.266 100.531V101.398H153.641V99.9766H158.234V99.8203C158.224 99.4922 158.161 99.1927 158.047 98.9219C157.932 98.6458 157.755 98.4271 157.516 98.2656C157.276 98.099 156.966 98.0156 156.586 98.0156C156.279 98.0156 156.01 98.0833 155.781 98.2188C155.557 98.349 155.37 98.5365 155.219 98.7812C155.073 99.0208 154.964 99.3073 154.891 99.6406C154.818 99.974 154.781 100.344 154.781 100.75V101.062C154.781 101.417 154.828 101.745 154.922 102.047C155.021 102.349 155.164 102.612 155.352 102.836C155.544 103.055 155.773 103.227 156.039 103.352C156.31 103.471 156.617 103.531 156.961 103.531C157.393 103.531 157.784 103.448 158.133 103.281C158.487 103.109 158.794 102.857 159.055 102.523L160.094 103.602C159.917 103.862 159.677 104.112 159.375 104.352C159.078 104.591 158.719 104.786 158.297 104.938C157.875 105.083 157.388 105.156 156.836 105.156ZM170.281 102.688C170.281 102.51 170.234 102.352 170.141 102.211C170.047 102.07 169.87 101.943 169.609 101.828C169.354 101.708 168.979 101.596 168.484 101.492C168.047 101.398 167.643 101.281 167.273 101.141C166.904 101 166.586 100.831 166.32 100.633C166.055 100.43 165.846 100.193 165.695 99.9219C165.549 99.6458 165.477 99.3281 165.477 98.9688C165.477 98.6198 165.552 98.2917 165.703 97.9844C165.854 97.6719 166.073 97.3984 166.359 97.1641C166.646 96.9245 166.995 96.737 167.406 96.6016C167.818 96.4609 168.281 96.3906 168.797 96.3906C169.516 96.3906 170.133 96.5078 170.648 96.7422C171.169 96.9766 171.568 97.2995 171.844 97.7109C172.12 98.1172 172.258 98.5755 172.258 99.0859H170.195C170.195 98.862 170.143 98.6589 170.039 98.4766C169.94 98.2943 169.786 98.1484 169.578 98.0391C169.37 97.9245 169.107 97.8672 168.789 97.8672C168.503 97.8672 168.26 97.9141 168.062 98.0078C167.87 98.1016 167.724 98.224 167.625 98.375C167.526 98.526 167.477 98.6927 167.477 98.875C167.477 99.0104 167.503 99.1328 167.555 99.2422C167.612 99.3464 167.703 99.4427 167.828 99.5312C167.953 99.6198 168.122 99.7005 168.336 99.7734C168.555 99.8464 168.823 99.9167 169.141 99.9844C169.771 100.109 170.32 100.276 170.789 100.484C171.263 100.688 171.633 100.958 171.898 101.297C172.164 101.635 172.297 102.068 172.297 102.594C172.297 102.969 172.216 103.312 172.055 103.625C171.893 103.932 171.659 104.201 171.352 104.43C171.044 104.659 170.677 104.839 170.25 104.969C169.823 105.094 169.341 105.156 168.805 105.156C168.029 105.156 167.372 105.018 166.836 104.742C166.299 104.461 165.893 104.107 165.617 103.68C165.341 103.247 165.203 102.799 165.203 102.336H167.18C167.195 102.664 167.284 102.927 167.445 103.125C167.607 103.323 167.81 103.466 168.055 103.555C168.305 103.638 168.568 103.68 168.844 103.68C169.156 103.68 169.419 103.638 169.633 103.555C169.846 103.466 170.008 103.349 170.117 103.203C170.227 103.052 170.281 102.88 170.281 102.688ZM177.664 105.156C177.023 105.156 176.448 105.052 175.938 104.844C175.427 104.635 174.992 104.346 174.633 103.977C174.279 103.602 174.005 103.167 173.812 102.672C173.625 102.172 173.531 101.635 173.531 101.062V100.75C173.531 100.099 173.625 99.5078 173.812 98.9766C174 98.4401 174.266 97.9792 174.609 97.5938C174.953 97.2083 175.365 96.9115 175.844 96.7031C176.323 96.4948 176.852 96.3906 177.43 96.3906C178.029 96.3906 178.557 96.4922 179.016 96.6953C179.474 96.8932 179.857 97.1745 180.164 97.5391C180.471 97.9036 180.703 98.3411 180.859 98.8516C181.016 99.3568 181.094 99.9167 181.094 100.531V101.398H174.469V99.9766H179.062V99.8203C179.052 99.4922 178.99 99.1927 178.875 98.9219C178.76 98.6458 178.583 98.4271 178.344 98.2656C178.104 98.099 177.794 98.0156 177.414 98.0156C177.107 98.0156 176.839 98.0833 176.609 98.2188C176.385 98.349 176.198 98.5365 176.047 98.7812C175.901 99.0208 175.792 99.3073 175.719 99.6406C175.646 99.974 175.609 100.344 175.609 100.75V101.062C175.609 101.417 175.656 101.745 175.75 102.047C175.849 102.349 175.992 102.612 176.18 102.836C176.372 103.055 176.602 103.227 176.867 103.352C177.138 103.471 177.445 103.531 177.789 103.531C178.221 103.531 178.612 103.448 178.961 103.281C179.315 103.109 179.622 102.857 179.883 102.523L180.922 103.602C180.745 103.862 180.505 104.112 180.203 104.352C179.906 104.591 179.547 104.786 179.125 104.938C178.703 105.083 178.216 105.156 177.664 105.156ZM187.508 102.992V96.5469H189.586V105H187.633L187.508 102.992ZM187.773 101.242L188.414 101.227C188.414 101.794 188.352 102.318 188.227 102.797C188.102 103.276 187.906 103.693 187.641 104.047C187.38 104.396 187.049 104.669 186.648 104.867C186.247 105.06 185.773 105.156 185.227 105.156C184.81 105.156 184.43 105.099 184.086 104.984C183.742 104.865 183.445 104.68 183.195 104.43C182.951 104.174 182.76 103.849 182.625 103.453C182.49 103.052 182.422 102.57 182.422 102.008V96.5469H184.484V102.023C184.484 102.305 184.516 102.539 184.578 102.727C184.646 102.914 184.737 103.068 184.852 103.188C184.971 103.302 185.109 103.385 185.266 103.438C185.427 103.484 185.599 103.508 185.781 103.508C186.281 103.508 186.674 103.409 186.961 103.211C187.253 103.008 187.461 102.737 187.586 102.398C187.711 102.055 187.773 101.669 187.773 101.242ZM197.461 98.2734V105H195.398V96.5469H197.352L197.461 98.2734ZM200.031 96.4922L200 98.4141C199.885 98.3932 199.755 98.3776 199.609 98.3672C199.469 98.3568 199.336 98.3516 199.211 98.3516C198.893 98.3516 198.615 98.3958 198.375 98.4844C198.135 98.5677 197.935 98.6901 197.773 98.8516C197.617 99.013 197.497 99.2109 197.414 99.4453C197.331 99.6745 197.284 99.9349 197.273 100.227L196.828 100.172C196.828 99.6354 196.883 99.138 196.992 98.6797C197.102 98.2214 197.26 97.8203 197.469 97.4766C197.677 97.1328 197.938 96.8672 198.25 96.6797C198.568 96.487 198.932 96.3906 199.344 96.3906C199.458 96.3906 199.581 96.401 199.711 96.4219C199.846 96.4375 199.953 96.4609 200.031 96.4922ZM200.578 100.859V100.695C200.578 100.076 200.667 99.5052 200.844 98.9844C201.021 98.4583 201.279 98.0026 201.617 97.6172C201.956 97.2318 202.37 96.9323 202.859 96.7188C203.349 96.5 203.906 96.3906 204.531 96.3906C205.167 96.3906 205.729 96.5 206.219 96.7188C206.714 96.9323 207.13 97.2318 207.469 97.6172C207.807 98.0026 208.065 98.4583 208.242 98.9844C208.419 99.5052 208.508 100.076 208.508 100.695V100.859C208.508 101.474 208.419 102.044 208.242 102.57C208.065 103.091 207.807 103.547 207.469 103.938C207.13 104.323 206.716 104.622 206.227 104.836C205.737 105.049 205.177 105.156 204.547 105.156C203.922 105.156 203.362 105.049 202.867 104.836C202.372 104.622 201.956 104.323 201.617 103.938C201.279 103.547 201.021 103.091 200.844 102.57C200.667 102.044 200.578 101.474 200.578 100.859ZM202.641 100.695V100.859C202.641 101.229 202.677 101.576 202.75 101.898C202.823 102.221 202.935 102.505 203.086 102.75C203.237 102.995 203.432 103.188 203.672 103.328C203.917 103.464 204.208 103.531 204.547 103.531C204.88 103.531 205.167 103.464 205.406 103.328C205.646 103.188 205.841 102.995 205.992 102.75C206.148 102.505 206.263 102.221 206.336 101.898C206.409 101.576 206.445 101.229 206.445 100.859V100.695C206.445 100.331 206.409 99.9896 206.336 99.6719C206.263 99.349 206.148 99.0651 205.992 98.8203C205.841 98.5703 205.643 98.375 205.398 98.2344C205.159 98.0885 204.87 98.0156 204.531 98.0156C204.198 98.0156 203.911 98.0885 203.672 98.2344C203.432 98.375 203.237 98.5703 203.086 98.8203C202.935 99.0651 202.823 99.349 202.75 99.6719C202.677 99.9896 202.641 100.331 202.641 100.695ZM214.656 102.688C214.656 102.51 214.609 102.352 214.516 102.211C214.422 102.07 214.245 101.943 213.984 101.828C213.729 101.708 213.354 101.596 212.859 101.492C212.422 101.398 212.018 101.281 211.648 101.141C211.279 101 210.961 100.831 210.695 100.633C210.43 100.43 210.221 100.193 210.07 99.9219C209.924 99.6458 209.852 99.3281 209.852 98.9688C209.852 98.6198 209.927 98.2917 210.078 97.9844C210.229 97.6719 210.448 97.3984 210.734 97.1641C211.021 96.9245 211.37 96.737 211.781 96.6016C212.193 96.4609 212.656 96.3906 213.172 96.3906C213.891 96.3906 214.508 96.5078 215.023 96.7422C215.544 96.9766 215.943 97.2995 216.219 97.7109C216.495 98.1172 216.633 98.5755 216.633 99.0859H214.57C214.57 98.862 214.518 98.6589 214.414 98.4766C214.315 98.2943 214.161 98.1484 213.953 98.0391C213.745 97.9245 213.482 97.8672 213.164 97.8672C212.878 97.8672 212.635 97.9141 212.438 98.0078C212.245 98.1016 212.099 98.224 212 98.375C211.901 98.526 211.852 98.6927 211.852 98.875C211.852 99.0104 211.878 99.1328 211.93 99.2422C211.987 99.3464 212.078 99.4427 212.203 99.5312C212.328 99.6198 212.497 99.7005 212.711 99.7734C212.93 99.8464 213.198 99.9167 213.516 99.9844C214.146 100.109 214.695 100.276 215.164 100.484C215.638 100.688 216.008 100.958 216.273 101.297C216.539 101.635 216.672 102.068 216.672 102.594C216.672 102.969 216.591 103.312 216.43 103.625C216.268 103.932 216.034 104.201 215.727 104.43C215.419 104.659 215.052 104.839 214.625 104.969C214.198 105.094 213.716 105.156 213.18 105.156C212.404 105.156 211.747 105.018 211.211 104.742C210.674 104.461 210.268 104.107 209.992 103.68C209.716 103.247 209.578 102.799 209.578 102.336H211.555C211.57 102.664 211.659 102.927 211.82 103.125C211.982 103.323 212.185 103.466 212.43 103.555C212.68 103.638 212.943 103.68 213.219 103.68C213.531 103.68 213.794 103.638 214.008 103.555C214.221 103.466 214.383 103.349 214.492 103.203C214.602 103.052 214.656 102.88 214.656 102.688ZM222.242 96.5469V98.0312H217.398V96.5469H222.242ZM218.695 94.4688H220.766V102.562C220.766 102.812 220.799 103.005 220.867 103.141C220.935 103.276 221.036 103.367 221.172 103.414C221.307 103.461 221.469 103.484 221.656 103.484C221.792 103.484 221.917 103.477 222.031 103.461C222.146 103.445 222.242 103.43 222.32 103.414L222.328 104.961C222.156 105.018 221.961 105.065 221.742 105.102C221.529 105.138 221.286 105.156 221.016 105.156C220.552 105.156 220.146 105.078 219.797 104.922C219.448 104.76 219.177 104.503 218.984 104.148C218.792 103.789 218.695 103.315 218.695 102.727V94.4688ZM223.047 100.859V100.695C223.047 100.076 223.135 99.5052 223.312 98.9844C223.49 98.4583 223.747 98.0026 224.086 97.6172C224.424 97.2318 224.839 96.9323 225.328 96.7188C225.818 96.5 226.375 96.3906 227 96.3906C227.635 96.3906 228.198 96.5 228.688 96.7188C229.182 96.9323 229.599 97.2318 229.938 97.6172C230.276 98.0026 230.534 98.4583 230.711 98.9844C230.888 99.5052 230.977 100.076 230.977 100.695V100.859C230.977 101.474 230.888 102.044 230.711 102.57C230.534 103.091 230.276 103.547 229.938 103.938C229.599 104.323 229.185 104.622 228.695 104.836C228.206 105.049 227.646 105.156 227.016 105.156C226.391 105.156 225.831 105.049 225.336 104.836C224.841 104.622 224.424 104.323 224.086 103.938C223.747 103.547 223.49 103.091 223.312 102.57C223.135 102.044 223.047 101.474 223.047 100.859ZM225.109 100.695V100.859C225.109 101.229 225.146 101.576 225.219 101.898C225.292 102.221 225.404 102.505 225.555 102.75C225.706 102.995 225.901 103.188 226.141 103.328C226.385 103.464 226.677 103.531 227.016 103.531C227.349 103.531 227.635 103.464 227.875 103.328C228.115 103.188 228.31 102.995 228.461 102.75C228.617 102.505 228.732 102.221 228.805 101.898C228.878 101.576 228.914 101.229 228.914 100.859V100.695C228.914 100.331 228.878 99.9896 228.805 99.6719C228.732 99.349 228.617 99.0651 228.461 98.8203C228.31 98.5703 228.112 98.375 227.867 98.2344C227.628 98.0885 227.339 98.0156 227 98.0156C226.667 98.0156 226.38 98.0885 226.141 98.2344C225.901 98.375 225.706 98.5703 225.555 98.8203C225.404 99.0651 225.292 99.349 225.219 99.6719C225.146 99.9896 225.109 100.331 225.109 100.695ZM241.531 103.203V93H243.609V105H241.734L241.531 103.203ZM236.102 100.875V100.711C236.102 100.065 236.174 99.4792 236.32 98.9531C236.471 98.4219 236.69 97.9661 236.977 97.5859C237.263 97.2057 237.609 96.9115 238.016 96.7031C238.427 96.4948 238.893 96.3906 239.414 96.3906C239.919 96.3906 240.359 96.4922 240.734 96.6953C241.115 96.8984 241.438 97.1875 241.703 97.5625C241.974 97.9375 242.19 98.3828 242.352 98.8984C242.513 99.4089 242.63 99.9714 242.703 100.586V101.031C242.63 101.63 242.513 102.18 242.352 102.68C242.19 103.18 241.974 103.617 241.703 103.992C241.438 104.362 241.115 104.648 240.734 104.852C240.354 105.055 239.909 105.156 239.398 105.156C238.883 105.156 238.419 105.049 238.008 104.836C237.602 104.622 237.255 104.323 236.969 103.938C236.688 103.552 236.471 103.099 236.32 102.578C236.174 102.057 236.102 101.49 236.102 100.875ZM238.172 100.711V100.875C238.172 101.24 238.203 101.581 238.266 101.898C238.328 102.216 238.43 102.497 238.57 102.742C238.711 102.982 238.891 103.169 239.109 103.305C239.333 103.44 239.604 103.508 239.922 103.508C240.328 103.508 240.661 103.419 240.922 103.242C241.188 103.06 241.393 102.812 241.539 102.5C241.685 102.182 241.779 101.826 241.82 101.43V100.203C241.799 99.8906 241.745 99.6016 241.656 99.3359C241.573 99.0703 241.453 98.8411 241.297 98.6484C241.146 98.4557 240.958 98.3047 240.734 98.1953C240.51 98.0859 240.245 98.0312 239.938 98.0312C239.62 98.0312 239.349 98.1016 239.125 98.2422C238.901 98.3776 238.719 98.5677 238.578 98.8125C238.438 99.0573 238.333 99.3411 238.266 99.6641C238.203 99.987 238.172 100.336 238.172 100.711ZM249.273 105.156C248.633 105.156 248.057 105.052 247.547 104.844C247.036 104.635 246.602 104.346 246.242 103.977C245.888 103.602 245.615 103.167 245.422 102.672C245.234 102.172 245.141 101.635 245.141 101.062V100.75C245.141 100.099 245.234 99.5078 245.422 98.9766C245.609 98.4401 245.875 97.9792 246.219 97.5938C246.562 97.2083 246.974 96.9115 247.453 96.7031C247.932 96.4948 248.461 96.3906 249.039 96.3906C249.638 96.3906 250.167 96.4922 250.625 96.6953C251.083 96.8932 251.466 97.1745 251.773 97.5391C252.081 97.9036 252.312 98.3411 252.469 98.8516C252.625 99.3568 252.703 99.9167 252.703 100.531V101.398H246.078V99.9766H250.672V99.8203C250.661 99.4922 250.599 99.1927 250.484 98.9219C250.37 98.6458 250.193 98.4271 249.953 98.2656C249.714 98.099 249.404 98.0156 249.023 98.0156C248.716 98.0156 248.448 98.0833 248.219 98.2188C247.995 98.349 247.807 98.5365 247.656 98.7812C247.51 99.0208 247.401 99.3073 247.328 99.6406C247.255 99.974 247.219 100.344 247.219 100.75V101.062C247.219 101.417 247.266 101.745 247.359 102.047C247.458 102.349 247.602 102.612 247.789 102.836C247.982 103.055 248.211 103.227 248.477 103.352C248.747 103.471 249.055 103.531 249.398 103.531C249.831 103.531 250.221 103.448 250.57 103.281C250.924 103.109 251.232 102.857 251.492 102.523L252.531 103.602C252.354 103.862 252.115 104.112 251.812 104.352C251.516 104.591 251.156 104.786 250.734 104.938C250.312 105.083 249.826 105.156 249.273 105.156ZM256.109 98.3516V105H254.047V96.5469H255.984L256.109 98.3516ZM255.781 100.469H255.172C255.177 99.8542 255.26 99.2969 255.422 98.7969C255.583 98.2969 255.81 97.8672 256.102 97.5078C256.398 97.1484 256.75 96.8724 257.156 96.6797C257.562 96.487 258.016 96.3906 258.516 96.3906C258.922 96.3906 259.289 96.4479 259.617 96.5625C259.945 96.6771 260.227 96.8594 260.461 97.1094C260.701 97.3594 260.883 97.6875 261.008 98.0938C261.138 98.4948 261.203 98.9896 261.203 99.5781V105H259.125V99.5625C259.125 99.1771 259.068 98.8724 258.953 98.6484C258.844 98.4245 258.682 98.2656 258.469 98.1719C258.26 98.0781 258.003 98.0312 257.695 98.0312C257.378 98.0312 257.099 98.0964 256.859 98.2266C256.625 98.3516 256.427 98.526 256.266 98.75C256.109 98.974 255.99 99.2318 255.906 99.5234C255.823 99.8151 255.781 100.13 255.781 100.469ZM267.023 96.5469V98.0312H262.18V96.5469H267.023ZM263.477 94.4688H265.547V102.562C265.547 102.812 265.581 103.005 265.648 103.141C265.716 103.276 265.818 103.367 265.953 103.414C266.089 103.461 266.25 103.484 266.438 103.484C266.573 103.484 266.698 103.477 266.812 103.461C266.927 103.445 267.023 103.43 267.102 103.414L267.109 104.961C266.938 105.018 266.742 105.065 266.523 105.102C266.31 105.138 266.068 105.156 265.797 105.156C265.333 105.156 264.927 105.078 264.578 104.922C264.229 104.76 263.958 104.503 263.766 104.148C263.573 103.789 263.477 103.315 263.477 102.727V94.4688ZM270.461 98.2734V105H268.398V96.5469H270.352L270.461 98.2734ZM273.031 96.4922L273 98.4141C272.885 98.3932 272.755 98.3776 272.609 98.3672C272.469 98.3568 272.336 98.3516 272.211 98.3516C271.893 98.3516 271.615 98.3958 271.375 98.4844C271.135 98.5677 270.935 98.6901 270.773 98.8516C270.617 99.013 270.497 99.2109 270.414 99.4453C270.331 99.6745 270.284 99.9349 270.273 100.227L269.828 100.172C269.828 99.6354 269.883 99.138 269.992 98.6797C270.102 98.2214 270.26 97.8203 270.469 97.4766C270.677 97.1328 270.938 96.8672 271.25 96.6797C271.568 96.487 271.932 96.3906 272.344 96.3906C272.458 96.3906 272.581 96.401 272.711 96.4219C272.846 96.4375 272.953 96.4609 273.031 96.4922ZM273.578 100.859V100.695C273.578 100.076 273.667 99.5052 273.844 98.9844C274.021 98.4583 274.279 98.0026 274.617 97.6172C274.956 97.2318 275.37 96.9323 275.859 96.7188C276.349 96.5 276.906 96.3906 277.531 96.3906C278.167 96.3906 278.729 96.5 279.219 96.7188C279.714 96.9323 280.13 97.2318 280.469 97.6172C280.807 98.0026 281.065 98.4583 281.242 98.9844C281.419 99.5052 281.508 100.076 281.508 100.695V100.859C281.508 101.474 281.419 102.044 281.242 102.57C281.065 103.091 280.807 103.547 280.469 103.938C280.13 104.323 279.716 104.622 279.227 104.836C278.737 105.049 278.177 105.156 277.547 105.156C276.922 105.156 276.362 105.049 275.867 104.836C275.372 104.622 274.956 104.323 274.617 103.938C274.279 103.547 274.021 103.091 273.844 102.57C273.667 102.044 273.578 101.474 273.578 100.859ZM275.641 100.695V100.859C275.641 101.229 275.677 101.576 275.75 101.898C275.823 102.221 275.935 102.505 276.086 102.75C276.237 102.995 276.432 103.188 276.672 103.328C276.917 103.464 277.208 103.531 277.547 103.531C277.88 103.531 278.167 103.464 278.406 103.328C278.646 103.188 278.841 102.995 278.992 102.75C279.148 102.505 279.263 102.221 279.336 101.898C279.409 101.576 279.445 101.229 279.445 100.859V100.695C279.445 100.331 279.409 99.9896 279.336 99.6719C279.263 99.349 279.148 99.0651 278.992 98.8203C278.841 98.5703 278.643 98.375 278.398 98.2344C278.159 98.0885 277.87 98.0156 277.531 98.0156C277.198 98.0156 276.911 98.0885 276.672 98.2344C276.432 98.375 276.237 98.5703 276.086 98.8203C275.935 99.0651 275.823 99.349 275.75 99.6719C275.677 99.9896 275.641 100.331 275.641 100.695ZM292.062 103.203V93H294.141V105H292.266L292.062 103.203ZM286.633 100.875V100.711C286.633 100.065 286.706 99.4792 286.852 98.9531C287.003 98.4219 287.221 97.9661 287.508 97.5859C287.794 97.2057 288.141 96.9115 288.547 96.7031C288.958 96.4948 289.424 96.3906 289.945 96.3906C290.451 96.3906 290.891 96.4922 291.266 96.6953C291.646 96.8984 291.969 97.1875 292.234 97.5625C292.505 97.9375 292.721 98.3828 292.883 98.8984C293.044 99.4089 293.161 99.9714 293.234 100.586V101.031C293.161 101.63 293.044 102.18 292.883 102.68C292.721 103.18 292.505 103.617 292.234 103.992C291.969 104.362 291.646 104.648 291.266 104.852C290.885 105.055 290.44 105.156 289.93 105.156C289.414 105.156 288.951 105.049 288.539 104.836C288.133 104.622 287.786 104.323 287.5 103.938C287.219 103.552 287.003 103.099 286.852 102.578C286.706 102.057 286.633 101.49 286.633 100.875ZM288.703 100.711V100.875C288.703 101.24 288.734 101.581 288.797 101.898C288.859 102.216 288.961 102.497 289.102 102.742C289.242 102.982 289.422 103.169 289.641 103.305C289.865 103.44 290.135 103.508 290.453 103.508C290.859 103.508 291.193 103.419 291.453 103.242C291.719 103.06 291.924 102.812 292.07 102.5C292.216 102.182 292.31 101.826 292.352 101.43V100.203C292.331 99.8906 292.276 99.6016 292.188 99.3359C292.104 99.0703 291.984 98.8411 291.828 98.6484C291.677 98.4557 291.49 98.3047 291.266 98.1953C291.042 98.0859 290.776 98.0312 290.469 98.0312C290.151 98.0312 289.88 98.1016 289.656 98.2422C289.432 98.3776 289.25 98.5677 289.109 98.8125C288.969 99.0573 288.865 99.3411 288.797 99.6641C288.734 99.987 288.703 100.336 288.703 100.711ZM300.664 103.203V99.3047C300.664 99.0182 300.615 98.7708 300.516 98.5625C300.417 98.3542 300.266 98.1927 300.062 98.0781C299.859 97.9635 299.602 97.9062 299.289 97.9062C299.013 97.9062 298.771 97.9531 298.562 98.0469C298.359 98.1406 298.203 98.2734 298.094 98.4453C297.984 98.612 297.93 98.8047 297.93 99.0234H295.859C295.859 98.6745 295.943 98.3438 296.109 98.0312C296.276 97.7135 296.513 97.4323 296.82 97.1875C297.133 96.9375 297.505 96.7422 297.938 96.6016C298.375 96.4609 298.865 96.3906 299.406 96.3906C300.047 96.3906 300.617 96.5 301.117 96.7188C301.622 96.9323 302.018 97.2552 302.305 97.6875C302.596 98.1198 302.742 98.6641 302.742 99.3203V103.008C302.742 103.43 302.768 103.792 302.82 104.094C302.878 104.391 302.961 104.648 303.07 104.867V105H300.969C300.87 104.786 300.794 104.516 300.742 104.188C300.69 103.854 300.664 103.526 300.664 103.203ZM300.953 99.8516L300.969 101.078H299.664C299.341 101.078 299.057 101.112 298.812 101.18C298.568 101.242 298.367 101.336 298.211 101.461C298.055 101.581 297.938 101.727 297.859 101.898C297.781 102.065 297.742 102.255 297.742 102.469C297.742 102.677 297.789 102.865 297.883 103.031C297.982 103.198 298.122 103.331 298.305 103.43C298.492 103.523 298.711 103.57 298.961 103.57C299.326 103.57 299.643 103.497 299.914 103.352C300.185 103.201 300.396 103.018 300.547 102.805C300.698 102.591 300.779 102.388 300.789 102.195L301.383 103.086C301.31 103.299 301.201 103.526 301.055 103.766C300.909 104.005 300.721 104.229 300.492 104.438C300.263 104.646 299.987 104.818 299.664 104.953C299.341 105.089 298.966 105.156 298.539 105.156C297.992 105.156 297.503 105.047 297.07 104.828C296.638 104.609 296.297 104.31 296.047 103.93C295.797 103.549 295.672 103.117 295.672 102.633C295.672 102.185 295.755 101.789 295.922 101.445C296.089 101.102 296.336 100.812 296.664 100.578C296.992 100.339 297.398 100.159 297.883 100.039C298.372 99.9141 298.932 99.8516 299.562 99.8516H300.953ZM310.641 98.2812V105H308.578V96.5469H310.523L310.641 98.2812ZM310.336 100.469H309.703C309.703 99.8802 309.773 99.3385 309.914 98.8438C310.06 98.349 310.273 97.9193 310.555 97.5547C310.836 97.1849 311.182 96.8984 311.594 96.6953C312.01 96.4922 312.492 96.3906 313.039 96.3906C313.419 96.3906 313.768 96.4479 314.086 96.5625C314.404 96.6719 314.677 96.8464 314.906 97.0859C315.141 97.3203 315.32 97.6276 315.445 98.0078C315.57 98.3828 315.633 98.8333 315.633 99.3594V105H313.57V99.5703C313.57 99.1745 313.513 98.8646 313.398 98.6406C313.289 98.4167 313.13 98.2604 312.922 98.1719C312.714 98.0781 312.464 98.0312 312.172 98.0312C311.849 98.0312 311.57 98.0964 311.336 98.2266C311.107 98.3516 310.917 98.526 310.766 98.75C310.62 98.974 310.51 99.2318 310.438 99.5234C310.37 99.8151 310.336 100.13 310.336 100.469ZM315.477 100.086L314.625 100.242C314.63 99.7109 314.703 99.2135 314.844 98.75C314.984 98.2812 315.19 97.8724 315.461 97.5234C315.737 97.1693 316.078 96.8932 316.484 96.6953C316.896 96.4922 317.37 96.3906 317.906 96.3906C318.323 96.3906 318.698 96.4505 319.031 96.5703C319.37 96.6849 319.659 96.8698 319.898 97.125C320.138 97.375 320.32 97.7005 320.445 98.1016C320.576 98.5026 320.641 98.9922 320.641 99.5703V105H318.562V99.5625C318.562 99.151 318.505 98.8359 318.391 98.6172C318.281 98.3984 318.122 98.2474 317.914 98.1641C317.706 98.0755 317.461 98.0312 317.18 98.0312C316.893 98.0312 316.643 98.0859 316.43 98.1953C316.221 98.2995 316.044 98.4453 315.898 98.6328C315.758 98.8203 315.651 99.0391 315.578 99.2891C315.51 99.5339 315.477 99.7995 315.477 100.086ZM327.148 103.203V99.3047C327.148 99.0182 327.099 98.7708 327 98.5625C326.901 98.3542 326.75 98.1927 326.547 98.0781C326.344 97.9635 326.086 97.9062 325.773 97.9062C325.497 97.9062 325.255 97.9531 325.047 98.0469C324.844 98.1406 324.688 98.2734 324.578 98.4453C324.469 98.612 324.414 98.8047 324.414 99.0234H322.344C322.344 98.6745 322.427 98.3438 322.594 98.0312C322.76 97.7135 322.997 97.4323 323.305 97.1875C323.617 96.9375 323.99 96.7422 324.422 96.6016C324.859 96.4609 325.349 96.3906 325.891 96.3906C326.531 96.3906 327.102 96.5 327.602 96.7188C328.107 96.9323 328.503 97.2552 328.789 97.6875C329.081 98.1198 329.227 98.6641 329.227 99.3203V103.008C329.227 103.43 329.253 103.792 329.305 104.094C329.362 104.391 329.445 104.648 329.555 104.867V105H327.453C327.354 104.786 327.279 104.516 327.227 104.188C327.174 103.854 327.148 103.526 327.148 103.203ZM327.438 99.8516L327.453 101.078H326.148C325.826 101.078 325.542 101.112 325.297 101.18C325.052 101.242 324.852 101.336 324.695 101.461C324.539 101.581 324.422 101.727 324.344 101.898C324.266 102.065 324.227 102.255 324.227 102.469C324.227 102.677 324.273 102.865 324.367 103.031C324.466 103.198 324.607 103.331 324.789 103.43C324.977 103.523 325.195 103.57 325.445 103.57C325.81 103.57 326.128 103.497 326.398 103.352C326.669 103.201 326.88 103.018 327.031 102.805C327.182 102.591 327.263 102.388 327.273 102.195L327.867 103.086C327.794 103.299 327.685 103.526 327.539 103.766C327.393 104.005 327.206 104.229 326.977 104.438C326.747 104.646 326.471 104.818 326.148 104.953C325.826 105.089 325.451 105.156 325.023 105.156C324.477 105.156 323.987 105.047 323.555 104.828C323.122 104.609 322.781 104.31 322.531 103.93C322.281 103.549 322.156 103.117 322.156 102.633C322.156 102.185 322.24 101.789 322.406 101.445C322.573 101.102 322.82 100.812 323.148 100.578C323.477 100.339 323.883 100.159 324.367 100.039C324.857 99.9141 325.417 99.8516 326.047 99.8516H327.438ZM333.148 98.2734V105H331.086V96.5469H333.039L333.148 98.2734ZM335.719 96.4922L335.688 98.4141C335.573 98.3932 335.443 98.3776 335.297 98.3672C335.156 98.3568 335.023 98.3516 334.898 98.3516C334.581 98.3516 334.302 98.3958 334.062 98.4844C333.823 98.5677 333.622 98.6901 333.461 98.8516C333.305 99.013 333.185 99.2109 333.102 99.4453C333.018 99.6745 332.971 99.9349 332.961 100.227L332.516 100.172C332.516 99.6354 332.57 99.138 332.68 98.6797C332.789 98.2214 332.948 97.8203 333.156 97.4766C333.365 97.1328 333.625 96.8672 333.938 96.6797C334.255 96.487 334.62 96.3906 335.031 96.3906C335.146 96.3906 335.268 96.401 335.398 96.4219C335.534 96.4375 335.641 96.4609 335.719 96.4922ZM340.164 103.531C340.456 103.531 340.716 103.474 340.945 103.359C341.174 103.245 341.357 103.083 341.492 102.875C341.633 102.667 341.708 102.424 341.719 102.148H343.664C343.654 102.721 343.492 103.234 343.18 103.688C342.867 104.141 342.451 104.5 341.93 104.766C341.414 105.026 340.836 105.156 340.195 105.156C339.544 105.156 338.977 105.047 338.492 104.828C338.008 104.609 337.604 104.305 337.281 103.914C336.964 103.523 336.724 103.07 336.562 102.555C336.406 102.039 336.328 101.487 336.328 100.898V100.648C336.328 100.06 336.406 99.5078 336.562 98.9922C336.724 98.4766 336.964 98.0234 337.281 97.6328C337.604 97.2422 338.008 96.9375 338.492 96.7188C338.977 96.5 339.542 96.3906 340.188 96.3906C340.87 96.3906 341.469 96.5234 341.984 96.7891C342.505 97.0547 342.911 97.4297 343.203 97.9141C343.5 98.3984 343.654 98.9688 343.664 99.625H341.719C341.708 99.3229 341.641 99.0521 341.516 98.8125C341.391 98.5729 341.214 98.3802 340.984 98.2344C340.755 98.0885 340.477 98.0156 340.148 98.0156C339.799 98.0156 339.508 98.0885 339.273 98.2344C339.044 98.3802 338.865 98.5807 338.734 98.8359C338.609 99.0859 338.521 99.3672 338.469 99.6797C338.422 99.987 338.398 100.31 338.398 100.648V100.898C338.398 101.242 338.422 101.57 338.469 101.883C338.521 102.195 338.609 102.477 338.734 102.727C338.865 102.971 339.044 103.167 339.273 103.312C339.508 103.458 339.805 103.531 340.164 103.531ZM349.695 103.203V99.3047C349.695 99.0182 349.646 98.7708 349.547 98.5625C349.448 98.3542 349.297 98.1927 349.094 98.0781C348.891 97.9635 348.633 97.9062 348.32 97.9062C348.044 97.9062 347.802 97.9531 347.594 98.0469C347.391 98.1406 347.234 98.2734 347.125 98.4453C347.016 98.612 346.961 98.8047 346.961 99.0234H344.891C344.891 98.6745 344.974 98.3438 345.141 98.0312C345.307 97.7135 345.544 97.4323 345.852 97.1875C346.164 96.9375 346.536 96.7422 346.969 96.6016C347.406 96.4609 347.896 96.3906 348.438 96.3906C349.078 96.3906 349.648 96.5 350.148 96.7188C350.654 96.9323 351.049 97.2552 351.336 97.6875C351.628 98.1198 351.773 98.6641 351.773 99.3203V103.008C351.773 103.43 351.799 103.792 351.852 104.094C351.909 104.391 351.992 104.648 352.102 104.867V105H350C349.901 104.786 349.826 104.516 349.773 104.188C349.721 103.854 349.695 103.526 349.695 103.203ZM349.984 99.8516L350 101.078H348.695C348.372 101.078 348.089 101.112 347.844 101.18C347.599 101.242 347.398 101.336 347.242 101.461C347.086 101.581 346.969 101.727 346.891 101.898C346.812 102.065 346.773 102.255 346.773 102.469C346.773 102.677 346.82 102.865 346.914 103.031C347.013 103.198 347.154 103.331 347.336 103.43C347.523 103.523 347.742 103.57 347.992 103.57C348.357 103.57 348.674 103.497 348.945 103.352C349.216 103.201 349.427 103.018 349.578 102.805C349.729 102.591 349.81 102.388 349.82 102.195L350.414 103.086C350.341 103.299 350.232 103.526 350.086 103.766C349.94 104.005 349.753 104.229 349.523 104.438C349.294 104.646 349.018 104.818 348.695 104.953C348.372 105.089 347.997 105.156 347.57 105.156C347.023 105.156 346.534 105.047 346.102 104.828C345.669 104.609 345.328 104.31 345.078 103.93C344.828 103.549 344.703 103.117 344.703 102.633C344.703 102.185 344.786 101.789 344.953 101.445C345.12 101.102 345.367 100.812 345.695 100.578C346.023 100.339 346.43 100.159 346.914 100.039C347.404 99.9141 347.964 99.8516 348.594 99.8516H349.984ZM357.102 103.531C357.393 103.531 357.654 103.474 357.883 103.359C358.112 103.245 358.294 103.083 358.43 102.875C358.57 102.667 358.646 102.424 358.656 102.148H360.602C360.591 102.721 360.43 103.234 360.117 103.688C359.805 104.141 359.388 104.5 358.867 104.766C358.352 105.026 357.773 105.156 357.133 105.156C356.482 105.156 355.914 105.047 355.43 104.828C354.945 104.609 354.542 104.305 354.219 103.914C353.901 103.523 353.661 103.07 353.5 102.555C353.344 102.039 353.266 101.487 353.266 100.898V100.648C353.266 100.06 353.344 99.5078 353.5 98.9922C353.661 98.4766 353.901 98.0234 354.219 97.6328C354.542 97.2422 354.945 96.9375 355.43 96.7188C355.914 96.5 356.479 96.3906 357.125 96.3906C357.807 96.3906 358.406 96.5234 358.922 96.7891C359.443 97.0547 359.849 97.4297 360.141 97.9141C360.438 98.3984 360.591 98.9688 360.602 99.625H358.656C358.646 99.3229 358.578 99.0521 358.453 98.8125C358.328 98.5729 358.151 98.3802 357.922 98.2344C357.693 98.0885 357.414 98.0156 357.086 98.0156C356.737 98.0156 356.445 98.0885 356.211 98.2344C355.982 98.3802 355.802 98.5807 355.672 98.8359C355.547 99.0859 355.458 99.3672 355.406 99.6797C355.359 99.987 355.336 100.31 355.336 100.648V100.898C355.336 101.242 355.359 101.57 355.406 101.883C355.458 102.195 355.547 102.477 355.672 102.727C355.802 102.971 355.982 103.167 356.211 103.312C356.445 103.458 356.742 103.531 357.102 103.531ZM356.266 105H357.805L357.719 105.445C358.016 105.497 358.286 105.622 358.531 105.82C358.776 106.018 358.898 106.344 358.898 106.797C358.898 107.068 358.841 107.312 358.727 107.531C358.617 107.75 358.451 107.938 358.227 108.094C358.003 108.255 357.724 108.378 357.391 108.461C357.062 108.544 356.68 108.586 356.242 108.586L356.188 107.43C356.375 107.43 356.542 107.406 356.688 107.359C356.839 107.312 356.956 107.237 357.039 107.133C357.128 107.034 357.172 106.906 357.172 106.75C357.172 106.594 357.133 106.471 357.055 106.383C356.977 106.299 356.852 106.234 356.68 106.188C356.513 106.146 356.294 106.117 356.023 106.102L356.266 105ZM366.633 103.203V99.3047C366.633 99.0182 366.583 98.7708 366.484 98.5625C366.385 98.3542 366.234 98.1927 366.031 98.0781C365.828 97.9635 365.57 97.9062 365.258 97.9062C364.982 97.9062 364.74 97.9531 364.531 98.0469C364.328 98.1406 364.172 98.2734 364.062 98.4453C363.953 98.612 363.898 98.8047 363.898 99.0234H361.828C361.828 98.6745 361.911 98.3438 362.078 98.0312C362.245 97.7135 362.482 97.4323 362.789 97.1875C363.102 96.9375 363.474 96.7422 363.906 96.6016C364.344 96.4609 364.833 96.3906 365.375 96.3906C366.016 96.3906 366.586 96.5 367.086 96.7188C367.591 96.9323 367.987 97.2552 368.273 97.6875C368.565 98.1198 368.711 98.6641 368.711 99.3203V103.008C368.711 103.43 368.737 103.792 368.789 104.094C368.846 104.391 368.93 104.648 369.039 104.867V105H366.938C366.839 104.786 366.763 104.516 366.711 104.188C366.659 103.854 366.633 103.526 366.633 103.203ZM366.922 99.8516L366.938 101.078H365.633C365.31 101.078 365.026 101.112 364.781 101.18C364.536 101.242 364.336 101.336 364.18 101.461C364.023 101.581 363.906 101.727 363.828 101.898C363.75 102.065 363.711 102.255 363.711 102.469C363.711 102.677 363.758 102.865 363.852 103.031C363.951 103.198 364.091 103.331 364.273 103.43C364.461 103.523 364.68 103.57 364.93 103.57C365.294 103.57 365.612 103.497 365.883 103.352C366.154 103.201 366.365 103.018 366.516 102.805C366.667 102.591 366.747 102.388 366.758 102.195L367.352 103.086C367.279 103.299 367.169 103.526 367.023 103.766C366.878 104.005 366.69 104.229 366.461 104.438C366.232 104.646 365.956 104.818 365.633 104.953C365.31 105.089 364.935 105.156 364.508 105.156C363.961 105.156 363.471 105.047 363.039 104.828C362.607 104.609 362.266 104.31 362.016 103.93C361.766 103.549 361.641 103.117 361.641 102.633C361.641 102.185 361.724 101.789 361.891 101.445C362.057 101.102 362.305 100.812 362.633 100.578C362.961 100.339 363.367 100.159 363.852 100.039C364.341 99.9141 364.901 99.8516 365.531 99.8516H366.922ZM367.078 93.0703L368.305 93.1562C368.305 93.5365 368.227 93.8802 368.07 94.1875C367.919 94.4896 367.714 94.7292 367.453 94.9062C367.193 95.0833 366.893 95.1719 366.555 95.1719C366.305 95.1719 366.089 95.138 365.906 95.0703C365.729 95.0026 365.565 94.9219 365.414 94.8281C365.268 94.7344 365.117 94.6536 364.961 94.5859C364.805 94.513 364.622 94.4766 364.414 94.4766C364.227 94.4766 364.065 94.5469 363.93 94.6875C363.799 94.8281 363.734 95.0182 363.734 95.2578L362.5 95.1953C362.5 94.8203 362.576 94.4792 362.727 94.1719C362.878 93.8646 363.083 93.6198 363.344 93.4375C363.609 93.2552 363.911 93.1641 364.25 93.1641C364.464 93.1641 364.656 93.1979 364.828 93.2656C365.005 93.3333 365.174 93.4141 365.336 93.5078C365.497 93.5964 365.661 93.6771 365.828 93.75C366 93.8177 366.185 93.8516 366.383 93.8516C366.576 93.8516 366.74 93.7812 366.875 93.6406C367.01 93.5 367.078 93.3099 367.078 93.0703ZM370.203 100.859V100.695C370.203 100.076 370.292 99.5052 370.469 98.9844C370.646 98.4583 370.904 98.0026 371.242 97.6172C371.581 97.2318 371.995 96.9323 372.484 96.7188C372.974 96.5 373.531 96.3906 374.156 96.3906C374.792 96.3906 375.354 96.5 375.844 96.7188C376.339 96.9323 376.755 97.2318 377.094 97.6172C377.432 98.0026 377.69 98.4583 377.867 98.9844C378.044 99.5052 378.133 100.076 378.133 100.695V100.859C378.133 101.474 378.044 102.044 377.867 102.57C377.69 103.091 377.432 103.547 377.094 103.938C376.755 104.323 376.341 104.622 375.852 104.836C375.362 105.049 374.802 105.156 374.172 105.156C373.547 105.156 372.987 105.049 372.492 104.836C371.997 104.622 371.581 104.323 371.242 103.938C370.904 103.547 370.646 103.091 370.469 102.57C370.292 102.044 370.203 101.474 370.203 100.859ZM372.266 100.695V100.859C372.266 101.229 372.302 101.576 372.375 101.898C372.448 102.221 372.56 102.505 372.711 102.75C372.862 102.995 373.057 103.188 373.297 103.328C373.542 103.464 373.833 103.531 374.172 103.531C374.505 103.531 374.792 103.464 375.031 103.328C375.271 103.188 375.466 102.995 375.617 102.75C375.773 102.505 375.888 102.221 375.961 101.898C376.034 101.576 376.07 101.229 376.07 100.859V100.695C376.07 100.331 376.034 99.9896 375.961 99.6719C375.888 99.349 375.773 99.0651 375.617 98.8203C375.466 98.5703 375.268 98.375 375.023 98.2344C374.784 98.0885 374.495 98.0156 374.156 98.0156C373.823 98.0156 373.536 98.0885 373.297 98.2344C373.057 98.375 372.862 98.5703 372.711 98.8203C372.56 99.0651 372.448 99.349 372.375 99.6719C372.302 99.9896 372.266 100.331 372.266 100.695ZM379.719 103.992C379.719 103.68 379.826 103.417 380.039 103.203C380.253 102.99 380.542 102.883 380.906 102.883C381.271 102.883 381.56 102.99 381.773 103.203C381.987 103.417 382.094 103.68 382.094 103.992C382.094 104.299 381.987 104.56 381.773 104.773C381.56 104.982 381.271 105.086 380.906 105.086C380.542 105.086 380.253 104.982 380.039 104.773C379.826 104.56 379.719 104.299 379.719 103.992Z" fill="white"/>
</svg>
