<svg width="140" height="24" viewBox="0 0 140 24" fill="none" xmlns="http://www.w3.org/2000/svg">
<path d="M84.75 18.0498C84.7953 18.175 84.7953 18.2708 84.75 18.337C84.7349 18.3591 84.6972 18.418 84.5463 18.418H79.7931C79.7101 18.418 79.6497 18.396 79.612 18.3444C79.5818 18.3076 79.5441 18.2339 79.5818 18.0498L81.966 11.6945C82.0112 11.5767 82.0791 11.503 82.1546 11.503C82.215 11.503 82.2904 11.5472 82.3206 11.6871L84.75 18.0498ZM89.7597 22.0854L84.4633 8.62363C84.2898 8.17441 83.8672 7.88721 83.3995 7.88721H80.8946C80.4193 7.88721 80.0044 8.17441 79.8308 8.63099L74.2704 22.9102L74.1949 23.1091C74.0591 23.4773 74.3383 23.8676 74.7381 23.8676H76.8808H76.9789L77.9522 21.0692L78.5105 21.1428H85.8817H86.0175H86.2665H86.3947L87.3303 23.7718L87.3529 23.8676H89.6012C90.0087 23.8676 90.2878 23.4699 90.1445 23.1017L89.7597 22.0854Z" fill="white"/>
<path d="M73.8251 19.3827L72.5652 18.3664C72.4067 18.2486 72.2483 18.197 72.1049 18.2118C71.9088 18.2338 71.7503 18.3885 71.6522 18.5063L71.6372 18.5284C71.0713 19.4121 70.3546 20.0675 69.502 20.4799C68.6494 20.8923 67.5555 21.0985 66.2502 21.0985C64.5904 21.0985 63.27 20.7082 62.327 19.9497C61.3839 19.1838 60.9236 18.0056 60.9236 16.3486V15.4428C60.9312 12.2983 62.7193 10.7076 66.2502 10.7076C68.6419 10.7076 70.3923 11.5103 71.4561 13.0863L71.4787 13.1084C71.7805 13.425 72.0974 13.4545 72.4218 13.182L73.6667 12.0479C73.644 12.1878 73.81 11.9301 73.6667 12.0479C73.6893 11.8933 73.893 11.3409 73.7723 11.1789C72.3464 8.94757 69.8189 7.81348 66.2502 7.81348C60.7426 7.81348 58.0566 10.3173 58.0566 15.4649V16.3265C58.0566 21.4888 60.735 24 66.2502 24C69.7887 24 72.3765 22.7628 73.9307 20.3327L73.9534 20.3032C74.059 20.178 74.1043 20.0234 74.0741 19.8393C74.059 19.6404 73.976 19.4931 73.8251 19.3827Z" fill="white"/>
<path d="M106.049 7.88708H104.298C104.14 7.88708 103.997 7.95336 103.884 8.07855C103.77 8.21111 103.71 8.36576 103.71 8.54986V17.4827C103.71 17.8067 103.491 17.9982 103.28 18.0718C103.076 18.1381 102.782 18.1233 102.578 17.873L94.6186 8.07119C94.5432 7.95336 94.4224 7.88708 94.2489 7.88708H92.1288C91.9704 7.88708 91.8346 7.95336 91.729 8.07855C91.6158 8.21111 91.563 8.37312 91.563 8.54986V23.2783C91.563 23.4624 91.6233 23.6171 91.729 23.7496C91.8421 23.8748 91.9704 23.9411 92.1288 23.9411H93.9094C94.0678 23.9411 94.2112 23.8748 94.3244 23.757C94.4375 23.6244 94.5054 23.4698 94.5054 23.2857V12.556L103.597 23.7643C103.672 23.8822 103.793 23.9411 103.967 23.9411H106.064C106.222 23.9411 106.358 23.8748 106.471 23.757C106.592 23.6244 106.652 23.4698 106.652 23.2857V8.52777C106.652 8.3363 106.592 8.17429 106.471 8.0491C106.366 7.93127 106.222 7.86499 106.071 7.86499" fill="white"/>
<path d="M126.269 7.81348H124.496C124.337 7.81348 124.202 7.87976 124.096 8.00495C123.983 8.1375 123.922 8.29952 123.922 8.47626V23.2047C123.922 23.3888 123.983 23.5508 124.096 23.676C124.209 23.8012 124.337 23.8675 124.496 23.8675H126.299C126.465 23.8675 126.601 23.8012 126.706 23.676C126.812 23.5435 126.872 23.3814 126.872 23.2047V8.47626C126.872 8.29215 126.812 8.12277 126.699 7.99758C126.593 7.87975 126.457 7.81348 126.299 7.81348" fill="white"/>
<path d="M139.781 21.1059C139.668 20.9807 139.525 20.9218 139.366 20.9218H132.772C132.267 20.9218 131.852 20.5168 131.852 20.0234V8.48362C131.852 8.29215 131.791 8.13014 131.678 7.99758C131.565 7.87975 131.437 7.81348 131.278 7.81348H129.483C129.324 7.81348 129.188 7.87976 129.083 8.00495C128.97 8.1375 128.909 8.29952 128.909 8.47626V23.2047C128.909 23.3888 128.97 23.5435 129.075 23.676C129.188 23.8012 129.317 23.8675 129.475 23.8675H139.396C139.555 23.8675 139.698 23.8012 139.811 23.6834C139.932 23.5508 140 23.3888 140 23.2047V21.5478C140 21.371 139.932 21.209 139.811 21.0764" fill="white"/>
<path d="M53.9601 13.1011C53.9601 13.9921 53.7186 14.6476 53.2282 15.0894C52.7303 15.5386 52.0211 15.7669 51.1308 15.7669H45.095V11.6945C45.1101 11.5472 45.2233 10.8329 46.0155 10.8329H51.1383C52.0814 10.8329 52.7982 11.0023 53.281 11.3337C53.7337 11.6651 53.9601 12.2395 53.9601 13.1011ZM56.9402 13.0863C56.9402 11.2232 56.4649 9.87555 55.5294 9.07285C54.6089 8.28488 53.198 7.88721 51.327 7.88721H42.7184C42.56 7.88721 42.4242 7.95349 42.3185 8.07868C42.2054 8.21123 42.145 8.36588 42.145 8.54999V23.2048C42.145 23.3889 42.2054 23.5509 42.3185 23.6761C42.4242 23.8013 42.56 23.8676 42.7109 23.8676H44.4235C44.5744 23.8676 44.7102 23.8013 44.8309 23.6835C44.9517 23.5509 45.012 23.3889 45.012 23.2122V18.5727H50.2858L53.5904 23.4257C53.8016 23.7203 54.1034 23.8749 54.4807 23.8749H56.0198C56.3367 23.8749 56.5555 23.735 56.6837 23.4552C56.812 23.168 56.7667 22.8734 56.563 22.5936L53.5225 18.2192L53.8167 18.1161C55.8991 17.4018 56.9478 15.7006 56.9478 13.0569" fill="white"/>
<path d="M121.983 8.15232L122.081 8.06395C121.968 7.94612 121.832 7.88721 121.682 7.88721H108.531C108.373 7.88721 108.237 7.95349 108.116 8.07868C107.995 8.21123 107.935 8.37325 107.935 8.55735V10.1922C107.935 10.3837 107.995 10.5531 108.124 10.6709C108.237 10.7813 108.38 10.8403 108.531 10.8403H113.669V23.2195C113.669 23.4036 113.729 23.5656 113.85 23.6908C113.963 23.816 114.099 23.8749 114.258 23.8749H116.031C116.189 23.8749 116.332 23.8087 116.438 23.6835C116.551 23.5509 116.611 23.3963 116.611 23.2122V11.5693L116.619 11.5325C116.71 11.0465 117.042 10.7593 117.524 10.7593H121.689C121.84 10.7593 121.976 10.7003 122.089 10.5899C122.21 10.4647 122.27 10.31 122.27 10.1333V8.53526C122.27 8.34379 122.21 8.18914 122.089 8.06395L121.983 8.15232Z" fill="white"/>
<path d="M40.2587 20.9217H32.4122V17.4605H34.8793C35.1434 17.4605 35.3546 17.2175 35.3546 16.9229V14.7505C35.3546 14.4559 35.1358 14.2202 34.8793 14.2202H32.4122V11.6207C32.5027 11.1199 32.8347 10.8327 33.3327 10.8327H40.221C40.3794 10.8327 40.5077 10.7738 40.6133 10.656C40.7265 10.5308 40.7868 10.3761 40.7868 10.1846V8.54978C40.7868 8.35831 40.7265 8.1963 40.6133 8.06374C40.5077 7.94592 40.3719 7.87964 40.2135 7.87964H30.0658C29.8923 7.87964 29.7414 7.95328 29.6282 8.07847C29.5226 8.20366 29.4622 8.36568 29.4622 8.54978V14.2129H27.0781C26.814 14.2129 26.5952 14.4485 26.5952 14.7431V16.8566C26.5952 17.1512 26.814 17.3868 27.0781 17.3868H29.4471L29.4622 17.6225V22.8732C29.4622 23.2414 29.5301 23.4918 29.6735 23.6464C29.7263 23.698 29.8772 23.8674 30.36 23.8674H40.2738C40.4322 23.8674 40.5681 23.8084 40.6737 23.6906C40.7944 23.5654 40.8623 23.374 40.8623 23.153V21.555C40.8623 21.3635 40.8019 21.2015 40.6812 21.0616C40.5605 20.9364 40.4322 20.8775 40.2738 20.8775" fill="white"/>
<path d="M24.113 7.81348H22.0155C22.0155 7.81348 21.7213 7.92394 21.6534 8.04177L13.4824 18.1013C13.3466 18.2707 13.1278 18.337 12.9241 18.2633C12.7129 18.1897 12.5695 17.9908 12.5695 17.7552V8.52781C12.5695 8.3437 12.5092 8.18169 12.3809 8.0565C12.2677 7.9313 11.9735 7.88712 11.9735 7.88712H9.86096C9.67989 7.88712 9.56672 7.94603 9.49881 8.0565L0.279155 19.2133C0.12826 19.3974 0.0452683 19.6257 0.0452683 19.8761L0 23.3814C0 23.595 0.0905368 23.757 0.241431 23.8159C0.362147 23.8601 0.490407 23.8233 0.603578 23.7128L8.71416 13.7122C8.84997 13.5428 9.06876 13.4766 9.27247 13.5502C9.48373 13.6238 9.62708 13.8227 9.62708 14.0583V23.2563C9.62708 23.433 9.67234 23.595 9.76288 23.7055C9.87605 23.8601 10.0194 23.9411 10.1929 23.9411H12.313C12.313 23.9411 12.6072 23.8159 12.728 23.6834L20.8838 13.668C21.0196 13.4987 21.246 13.4324 21.4421 13.506C21.6534 13.5797 21.7967 13.7785 21.8495 14.0142V23.19C21.7967 23.4035 21.8646 23.595 21.9853 23.7202C22.0985 23.838 22.2343 23.8969 22.3852 23.8675H24.0828C24.2337 23.8969 24.3695 23.8454 24.4676 23.757C24.6185 23.6245 24.7165 23.2342 24.7165 23.2342V8.52781C24.7165 8.3437 24.6562 8.18169 24.5355 8.0565C24.4223 7.9313 24.2865 7.86503 24.1356 7.86503" fill="white"/>
<path d="M12.9922 3.83669C13.3845 3.83669 13.5806 3.68204 13.5806 3.37275C13.5806 3.09291 13.3996 2.95299 13.045 2.95299H10.8344C10.7815 2.95299 10.7514 2.98244 10.7589 3.03399V3.76305C10.7589 3.8146 10.7815 3.83669 10.8344 3.83669H12.9922ZM12.7281 2.06928C13.045 2.06928 13.2562 1.8999 13.2562 1.64215C13.2562 1.38441 13.0978 1.25921 12.7734 1.25921H10.8419C10.7891 1.25921 10.7589 1.28867 10.7665 1.34022V1.99564C10.7665 2.04719 10.7891 2.07664 10.8419 2.07664H12.7281V2.06928ZM9.7781 4.94133C9.65738 4.94133 9.56685 4.85295 9.55176 4.72776V0.382872C9.56685 0.25768 9.65738 0.169309 9.78564 0.147217H13.0299C14.0031 0.169309 14.5464 0.58907 14.5464 1.34758C14.5464 1.7968 14.3653 2.13556 14.0107 2.34912C13.9654 2.38594 13.9654 2.4154 14.0182 2.43749C14.569 2.59214 14.901 2.99717 14.901 3.52739C14.901 4.46265 14.2898 4.9266 13.2562 4.9266L9.7781 4.94133Z" fill="white"/>
<path d="M19.156 3.24782C19.2239 3.24782 19.2465 3.21837 19.2239 3.15209L18.4317 1.38468C18.4166 1.3184 18.3487 1.3184 18.3185 1.38468L17.5414 3.15209C17.5263 3.21837 17.5489 3.24782 17.6093 3.24782H19.156ZM15.791 4.94159C15.7005 4.94159 15.625 4.90477 15.5798 4.83113C15.5345 4.76485 15.527 4.68385 15.5647 4.60284L17.5489 0.265313C17.5867 0.191671 17.647 0.147486 17.73 0.15485H19.0353C19.1258 0.15485 19.1786 0.191671 19.2088 0.265313L21.2081 4.60284C21.2836 4.77222 21.178 4.94159 20.9818 4.94159H20.1594C20.0689 4.94159 20.001 4.89741 19.9708 4.80904L19.7294 4.26409C19.7143 4.22726 19.6841 4.20517 19.6388 4.20517H17.1415C17.0963 4.20517 17.0585 4.22726 17.0434 4.26409L16.802 4.80904C16.7718 4.89741 16.7039 4.94159 16.6134 4.94159H15.791Z" fill="white"/>
<path d="M27.2063 0.235547C27.3346 0.235547 27.4326 0.316554 27.4326 0.441746V4.72772C27.4326 4.84555 27.3346 4.94129 27.2138 4.94129H26.1576C26.0972 4.94129 26.052 4.91919 26.0218 4.87501L23.532 2.01769C23.4943 1.96614 23.4264 1.98087 23.4264 2.05451V4.72772C23.4264 4.84555 23.3283 4.94129 23.2076 4.94129H22.438C22.3173 4.94129 22.2192 4.84555 22.2192 4.72772V0.390196C22.2192 0.390196 22.3249 0.176634 22.4531 0.154541H23.4113C23.4717 0.176634 23.5169 0.198726 23.5471 0.228183L26.067 3.0855C26.1123 3.12969 26.1727 3.11496 26.15 3.04132V0.390196C26.1727 0.265004 26.3839 0.235547 26.3839 0.235547H27.2063Z" fill="white"/>
<path d="M34.1853 3.68948C34.2984 3.76312 34.306 3.89567 34.2305 3.99141C33.6421 4.74992 32.7291 5.1255 31.4918 5.1255C29.5377 5.1255 28.5645 4.31543 28.5645 2.68058V2.43756C28.5645 0.817429 29.5377 0 31.4918 0C32.7291 0 33.6194 0.338754 34.1476 1.0089C34.223 1.10463 34.2079 1.23719 34.1098 1.30347L33.4987 1.81896C33.3704 1.92206 33.2422 1.90733 33.1139 1.78214C32.7367 1.36238 32.1935 1.15618 31.4918 1.15618C30.3903 1.15618 29.8471 1.58331 29.8471 2.43756V2.70267C29.8471 3.54956 30.3978 3.97668 31.4918 3.97668C32.2689 3.97668 32.8348 3.74839 33.1894 3.29917C33.3101 3.16662 33.4308 3.15189 33.5666 3.24762L34.1853 3.68948Z" fill="white"/>
<path d="M39.0288 3.65998C39.3457 3.46115 39.5042 3.14449 39.5042 2.69527V2.43016C39.5042 1.59064 38.9232 1.17088 37.7613 1.17088C37.2634 1.17088 36.8786 1.25188 36.5466 1.43599C36.2147 1.62009 36.026 1.96621 36.026 2.43016V2.69527C36.026 3.14449 36.1845 3.46115 36.5089 3.65998C36.8258 3.85882 37.2407 3.95455 37.7613 3.95455C38.2895 3.94719 38.712 3.85145 39.0288 3.65998ZM34.751 2.65845V2.43752C34.751 0.876306 35.7469 0.0515137 37.7236 0.0515137C39.7154 0.0515137 40.7113 0.876306 40.7113 2.43752V2.68054C40.7113 4.25648 39.7154 5.07391 37.7236 5.07391C35.7393 5.07391 34.751 4.27858 34.751 2.68054" fill="white"/>
</svg>